<?xml version="1.0" encoding="utf-8"?>
<!-- Generator: Adobe Illustrator 16.0.0, SVG Export Plug-In . SVG Version: 6.00 Build 0)  -->
<!DOCTYPE svg PUBLIC "-//W3C//DTD SVG 1.1//EN" "http://www.w3.org/Graphics/SVG/1.1/DTD/svg11.dtd">
<svg version="1.1" id="圖層_1" xmlns="http://www.w3.org/2000/svg" xmlns:xlink="http://www.w3.org/1999/xlink" x="0px" y="0px"
	 width="30px" height="30px" viewBox="0 0 30 30" enable-background="new 0 0 30 30" xml:space="preserve">
<rect display="none" fill="#B0D584" width="30" height="29.969"/>
<g>
	<path fill="#035B78" d="M5.609,4.868c-1.904,2.737-1.668,6.299-0.212,9.208l0.106,0.206l0.068,0.132l0.044,0.075l0.075,0.136
		c0.045,0.08,0.091,0.159,0.138,0.239l0.079,0.13c0.053,0.085,0.107,0.168,0.162,0.252l0.068,0.105
		c0.077,0.115,0.154,0.226,0.233,0.337l0.007,0.01l0.04,0.053c0.07,0.094,0.14,0.188,0.212,0.283l0.08,0.102
		c0.065,0.082,0.13,0.162,0.197,0.24l0.075,0.092c0.089,0.104,0.182,0.207,0.274,0.313l0.006,0.004l0.011,0.012
		c0.091,0.1,0.185,0.197,0.279,0.293l0.088,0.092c0.074,0.072,0.147,0.146,0.223,0.215l0.09,0.088
		c0.101,0.094,0.201,0.188,0.305,0.277l0.005,0.004l0.053,0.047c0.09,0.076,0.183,0.154,0.276,0.232l0.115,0.09
		c0.076,0.063,0.152,0.121,0.23,0.182l0.124,0.094c0.085,0.063,0.171,0.125,0.258,0.186l0.094,0.066l0.026,0.02
		c0.083,0.059,0.167,0.111,0.252,0.168L9.8,18.918c0.129,0.082,0.261,0.164,0.393,0.242l0.109,0.063
		c0.097,0.057,0.195,0.113,0.295,0.166l0.164,0.084l0.211,0.109l0.049,0.023l0.086,0.041c0.111,0.053,0.223,0.105,0.335,0.154
		l0.071,0.033c0.129,0.057,0.26,0.111,0.391,0.162l0.095,0.037c0.122,0.047,0.244,0.094,0.368,0.139l0.047,0.016
		c0.136,0.047,0.273,0.09,0.411,0.133l0.099,0.029c0.141,0.043,0.28,0.094,0.425,0.121c9.211,1.678,11.887-5.536,11.887-5.536
		c-2.247,2.926-6.236,3.7-10.015,2.84c-0.144-0.033-0.282-0.078-0.422-0.119l-0.105-0.031c-0.137-0.043-0.272-0.086-0.407-0.133
		l-0.055-0.021c-0.121-0.041-0.24-0.086-0.358-0.131l-0.101-0.041c-0.129-0.049-0.259-0.104-0.387-0.16l-0.077-0.035
		c-0.11-0.049-0.218-0.1-0.327-0.15l-0.094-0.045c-0.084-0.041-0.167-0.084-0.253-0.129l-0.168-0.088
		c-0.103-0.055-0.203-0.113-0.302-0.17l-0.102-0.057c-0.133-0.078-0.264-0.16-0.393-0.242l-0.106-0.07
		c-0.094-0.061-0.188-0.123-0.28-0.186l-0.09-0.063c-0.09-0.064-0.178-0.127-0.266-0.191l-0.117-0.088
		c-0.081-0.063-0.16-0.125-0.239-0.187l-0.106-0.086c-0.1-0.082-0.2-0.166-0.298-0.252l-0.031-0.025
		c-0.106-0.093-0.21-0.189-0.313-0.285l-0.088-0.084c-0.077-0.072-0.151-0.145-0.226-0.22l-0.088-0.088
		c-0.094-0.096-0.186-0.193-0.276-0.292L9.13,14.09c-0.095-0.104-0.188-0.211-0.279-0.318L8.78,13.683
		c-0.068-0.082-0.136-0.164-0.201-0.248l-0.074-0.092c-0.08-0.103-0.157-0.206-0.232-0.31C6.175,10.172,5.42,6.224,7.098,2.984
		 M11.522,2.561c-1.377,1.982-1.302,4.637-0.228,6.732c0.18,0.352,0.383,0.692,0.609,1.017c0.207,0.296,0.436,0.648,0.709,0.885
		c0.1,0.11,0.203,0.216,0.31,0.321l0.082,0.082c0.104,0.099,0.208,0.197,0.315,0.292l0.013,0.011l0.003,0.003
		c0.119,0.105,0.243,0.206,0.368,0.305l0.084,0.065c0.126,0.096,0.254,0.191,0.385,0.282l0.011,0.009l0.176,0.115l0.083,0.055
		c0.094,0.061,0.189,0.118,0.286,0.175l0.041,0.023c0.084,0.047,0.168,0.095,0.253,0.141l0.091,0.047l0.177,0.091l0.026,0.012
		c0.122,0.06,0.243,0.118,0.368,0.172l0.082,0.033c0.099,0.043,0.2,0.084,0.301,0.123L16.2,13.6
		c0.094,0.034,0.185,0.065,0.278,0.096l0.125,0.04c0.133,0.041,0.264,0.093,0.399,0.116c7.113,1.178,8.755-4.298,8.755-4.298
		c-1.48,2.131-4.347,3.148-7.403,2.354c-0.137-0.035-0.271-0.074-0.403-0.116l-0.12-0.039c-0.096-0.03-0.188-0.063-0.284-0.097
		l-0.125-0.047c-0.104-0.04-0.204-0.08-0.303-0.123l-0.081-0.035c-0.125-0.055-0.25-0.112-0.373-0.172l-0.186-0.094l-0.106-0.055
		c-0.078-0.042-0.159-0.087-0.237-0.132l-0.057-0.033c-0.095-0.056-0.19-0.115-0.284-0.174l-0.085-0.058l-0.185-0.122
		c-0.132-0.091-0.259-0.185-0.385-0.281l-0.087-0.069c-1.338-1.057-2.399-2.501-2.903-4.14c-0.53-1.699-0.415-3.606,0.5-5.153
		 M16.496,0.839c-0.813,1.195-0.893,2.678-0.328,3.998c0.594,1.401,1.812,2.5,3.231,3.021l0.178,0.061l0.076,0.024
		c0.083,0.026,0.167,0.058,0.255,0.073c3.926,0.759,4.99-2.014,5.272-2.423c-0.933,1.343-2.502,1.666-4.424,1.198
		c-0.152-0.038-0.319-0.092-0.466-0.144c-0.188-0.067-0.372-0.142-0.554-0.229c-0.342-0.164-0.667-0.364-0.969-0.592
		C17.046,4.52,15.979,2.028,17.101,0"/>
	<path fill="#035B78" d="M15.614,22.889h-1.101c-0.062,0-0.121,0.049-0.135,0.109l-0.391,1.806l-0.391,1.807
		c-0.013,0.062-0.073,0.11-0.134,0.11h-0.779c-0.77,0-0.681-0.533-0.523-1.264l0.004-0.022l0.017-0.093l0.003-0.018l0.036-0.187
		l0.038-0.202l0.04-0.205l0.178-0.866l0.178-0.868c0.012-0.06-0.028-0.109-0.089-0.109h-1.13c-0.061,0-0.121,0.05-0.133,0.109
		l-0.243,1.151l-0.243,1.151v0.003l-0.022,0.107c-0.28,1.276-0.206,2.495,1.314,2.533h0.044h2.385c0.062,0,0.121-0.049,0.135-0.109
		l0.514-2.42l0.516-2.417C15.714,22.938,15.675,22.889,15.614,22.889z M3.83,22.876H2.623c-0.061,0-0.122,0.049-0.136,0.108
		L2.373,23.49l-0.114,0.505c-0.013,0.06,0.026,0.109,0.086,0.109h1.218c0.061,0,0.122-0.05,0.136-0.109l0.111-0.505l0.111-0.506
		C3.932,22.925,3.891,22.876,3.83,22.876z M3.48,24.45H2.263c-0.062,0-0.123,0.048-0.136,0.108l-0.171,0.757l-0.171,0.759
		L1.737,26.29l-0.164,0.773L1.41,27.837c-0.014,0.06-0.039,0.156-0.059,0.212c0,0-0.228,0.678-0.609,0.671l-0.048-0.001
		l-0.332-0.006l0,0c-0.061-0.002-0.122,0.046-0.136,0.105l-0.127,0.53l-0.125,0.533c-0.015,0.06,0.023,0.109,0.084,0.109
		C0.274,29.993,0.761,30,1.054,30c0.956,0,1.458-0.53,1.782-2.053l0.378-1.749l0.354-1.64C3.582,24.498,3.542,24.45,3.48,24.45z
		 M25.902,24.04l-0.052-0.209l-0.048-0.213l-0.026-0.107c-0.1-0.387-0.388-0.607-1.02-0.607h-0.982L22.871,22.9h-1.018
		c-0.061,0-0.121,0.05-0.134,0.108l-0.045,0.212l-0.053,0.253l-0.016,0.069l-0.458,2.146l-0.434,2.037
		c-0.014,0.061-0.019,0.133-0.012,0.162c0.008,0.029,0.126,0.055,0.188,0.055h0.917c0.062,0,0.138-0.012,0.17-0.023
		c0.032-0.015,0.083-0.135,0.096-0.193l0.162-0.808l0.163-0.809v-0.002l0.021-0.106l0.198-0.927l0.175-0.819
		c0.014-0.059,0.073-0.108,0.135-0.108l2.886-0.002C25.878,24.148,25.916,24.1,25.902,24.04z M29.619,22.154l-0.223,0.001h-0.924
		c-0.062,0-0.14,0.041-0.173,0.093l-2.045,2.992c-0.033,0.052-0.072,0.044-0.086-0.016l-0.151-0.661
		c-0.013-0.059-0.074-0.108-0.136-0.108h-1.313c-0.061,0-0.098,0.048-0.08,0.106l0.588,2.063c0.018,0.059,0.019,0.155,0.002,0.214
		l-0.256,0.998c-0.016,0.059,0.023,0.106,0.084,0.106h1.298c0.061,0,0.124-0.048,0.139-0.106l0.256-0.998
		c0.016-0.061,0.059-0.147,0.096-0.197l3.317-4.402c0.036-0.05,0.018-0.089-0.045-0.089L29.619,22.154z M19.184,24.737
		L19.184,24.737c-0.009,0.066-0.07,0.114-0.131,0.114h-1.666c-0.057,0-0.087-0.039-0.077-0.087l0.002-0.005H17.31l0.001-0.004
		l0.008-0.029c0.159-0.422,0.482-0.7,1.09-0.7C19.094,24.024,19.229,24.361,19.184,24.737z M18.692,22.813
		c-2.137,0-2.645,1.3-2.929,2.609c-0.284,1.336-0.259,2.583,1.953,2.583h0.269h0.067h0.016l0.265-0.002h0.005
		c0.585-0.002,1.171-0.007,1.407-0.009c0.062,0,0.12-0.05,0.132-0.109l0.092-0.439l0.018-0.085l0.107-0.522
		c0.012-0.059-0.027-0.108-0.09-0.108h-1.989c-0.791,0-1.026-0.211-0.939-0.829h3.18l0,0h0.002c0.05,0,0.096-0.035,0.115-0.08
		l0.007-0.027l0,0C20.852,24.014,20.715,22.816,18.692,22.813z M8.589,24.729l-0.03,0.106v0.001l-0.241,0.852l-0.24,0.852
		c-0.017,0.059-0.08,0.106-0.141,0.106H6.667c-0.964,0-1.199-0.754-0.964-1.866c0.234-1.136,0.694-1.844,1.643-1.916
		C8.643,22.767,8.902,23.678,8.589,24.729z M9.46,26.58c0,0,0.6-1.455,0.735-2.295c0.186-1.124-0.377-2.756-2.553-2.756
		c-2.163,0-3.102,1.558-3.46,3.251c-0.358,1.706,0.111,3.201,2.261,3.188l1.697-0.006l1.585-0.007c0.061,0,0.123-0.048,0.139-0.107
		l0.277-1.054c0.016-0.06-0.022-0.108-0.083-0.108l-0.265-0.002l-0.264-0.001c-0.052,0-0.082-0.034-0.075-0.079L9.46,26.58z
		 M20.166,25.606c0,0.039-0.032,0.073-0.071,0.073c-0.042,0-0.074-0.034-0.074-0.073c0-0.04,0.032-0.073,0.074-0.073
		C20.134,25.533,20.166,25.566,20.166,25.606z"/>
</g>
</svg>
