<?xml version="1.0" encoding="utf-8"?>
<!-- Generator: Adobe Illustrator 16.0.0, SVG Export Plug-In . SVG Version: 6.00 Build 0)  -->
<!DOCTYPE svg PUBLIC "-//W3C//DTD SVG 1.1//EN" "http://www.w3.org/Graphics/SVG/1.1/DTD/svg11.dtd">
<svg version="1.1" id="圖層_1" xmlns="http://www.w3.org/2000/svg" xmlns:xlink="http://www.w3.org/1999/xlink" x="0px" y="0px"
	 width="30px" height="30px" viewBox="0 0 30 30" enable-background="new 0 0 30 30" xml:space="preserve">
<rect display="none" fill="#B0D584" width="30" height="29.969"/>
<g>
	<path fill-rule="evenodd" clip-rule="evenodd" fill="#035B78" d="M14.999-0.033c8.275-0.052,15.18,6.79,15.037,15.309
		c-0.136,8.081-6.829,14.918-15.362,14.753C6.619,29.875-0.201,23.194-0.034,14.668C0.125,6.602,6.753-0.065,14.999-0.033z
		 M17.397,23.406c0.021,0.051,0.042,0.104,0.063,0.155c0.146-0.025,0.304-0.023,0.437-0.08c0.896-0.379,1.39-1.351,1.188-2.309
		c-0.27-1.286-1.1-2.077-2.28-2.526c-1.274-0.484-2.578-0.372-3.882-0.116c-0.17,0.033-0.41,0.013-0.536-0.086
		c-0.627-0.491-1.232-1.012-1.836-1.531c-0.651-0.561-1.345-1.083-1.928-1.709c-1.06-1.138-1.172-2.503-0.373-3.841
		c0.271-0.453,0.58-0.906,0.961-1.263c2.475-2.32,5.371-3.848,8.712-4.491c1.163-0.225,2.333-0.23,3.481,0.124
		c1.297,0.401,1.832,1.407,1.332,2.665c-0.238,0.6-0.569,1.192-0.984,1.684c-1.404,1.666-3.271,2.524-5.388,2.859
		c-1.301,0.206-2.569,0.191-3.588-0.847c-0.054-0.056-0.165-0.056-0.249-0.083c-0.027,0.096-0.104,0.214-0.073,0.283
		c0.107,0.239,0.219,0.491,0.39,0.682c0.484,0.542,1.109,0.866,1.821,0.986c1.414,0.239,2.806,0.088,4.177-0.298
		c2.382-0.672,4.203-2.039,5.267-4.313c1.137-2.429,0.238-4.517-2.296-5.35c-1.685-0.554-3.399-0.493-5.098-0.114
		c-2.28,0.508-4.368,1.498-6.342,2.728c-1.624,1.012-3.078,2.215-4.099,3.859c-0.723,1.165-1.235,2.408-0.466,3.745
		c0.362,0.629,0.792,1.266,1.335,1.733c1.101,0.944,2.301,1.773,3.459,2.651c0.238,0.181,0.474,0.365,0.739,0.569
		c-0.135,0.072-0.204,0.107-0.271,0.145c-1.353,0.73-2.673,1.507-3.729,2.653c-0.692,0.752-1.005,1.643-0.892,2.67
		c0.098,0.894,0.647,1.506,1.471,1.635c2.115,0.334,4.285-0.899,5.114-2.897c0.519-1.251,0.529-2.521,0.155-3.837
		c0.823-0.272,1.648-0.258,2.465-0.115c0.971,0.169,1.88,0.488,2.471,1.368c0.581,0.865,0.44,1.721-0.391,2.341
		C17.618,23.221,17.51,23.314,17.397,23.406z"/>
	<path fill-rule="evenodd" clip-rule="evenodd" fill="#FFFFFF" d="M17.397,23.406c0.112-0.092,0.221-0.186,0.336-0.271
		c0.831-0.62,0.972-1.476,0.391-2.341c-0.591-0.88-1.5-1.199-2.471-1.368c-0.817-0.143-1.642-0.157-2.465,0.115
		c0.374,1.316,0.363,2.586-0.155,3.837c-0.83,1.998-3,3.231-5.114,2.897c-0.823-0.129-1.373-0.741-1.471-1.635
		c-0.113-1.027,0.2-1.918,0.892-2.67c1.055-1.146,2.376-1.923,3.729-2.653c0.068-0.037,0.137-0.072,0.271-0.145
		c-0.266-0.204-0.501-0.389-0.739-0.569c-1.158-0.878-2.358-1.707-3.459-2.651c-0.543-0.467-0.974-1.104-1.335-1.733
		c-0.769-1.337-0.257-2.58,0.466-3.745c1.021-1.644,2.476-2.848,4.099-3.859c1.974-1.23,4.062-2.22,6.342-2.728
		c1.698-0.378,3.413-0.44,5.098,0.114c2.534,0.833,3.433,2.921,2.296,5.35c-1.063,2.274-2.885,3.64-5.267,4.313
		c-1.371,0.386-2.763,0.537-4.177,0.298c-0.712-0.12-1.337-0.444-1.821-0.986c-0.171-0.191-0.283-0.443-0.39-0.682
		c-0.031-0.069,0.046-0.187,0.073-0.283c0.084,0.026,0.195,0.027,0.249,0.083c1.02,1.038,2.288,1.053,3.588,0.847
		c2.117-0.335,3.983-1.194,5.388-2.859c0.415-0.491,0.746-1.084,0.984-1.684c0.5-1.257-0.035-2.264-1.332-2.665
		c-1.148-0.354-2.318-0.349-3.481-0.124c-3.341,0.643-6.237,2.171-8.712,4.491c-0.381,0.357-0.691,0.811-0.961,1.263
		c-0.799,1.338-0.687,2.703,0.373,3.841c0.583,0.626,1.277,1.149,1.928,1.709c0.604,0.52,1.209,1.04,1.836,1.531
		c0.126,0.099,0.366,0.119,0.536,0.086c1.305-0.256,2.608-0.368,3.882,0.116c1.181,0.449,2.011,1.24,2.28,2.526
		c0.201,0.958-0.292,1.93-1.188,2.309c-0.133,0.057-0.29,0.055-0.437,0.08C17.439,23.51,17.419,23.457,17.397,23.406z M11.991,20.04
		c-1.179,0.597-2.267,1.256-3.032,2.292c-0.34,0.46-0.58,1.039-0.705,1.599c-0.145,0.646,0.247,0.971,0.909,0.854
		c1.22-0.216,2.029-0.98,2.588-2.036C12.203,21.896,12.25,21,11.991,20.04z"/>
	<path fill-rule="evenodd" clip-rule="evenodd" fill="#035B78" d="M11.991,20.04c0.258,0.96,0.212,1.855-0.24,2.708
		c-0.56,1.056-1.369,1.82-2.588,2.036c-0.662,0.117-1.054-0.207-0.909-0.854c0.125-0.56,0.365-1.139,0.705-1.599
		C9.724,21.296,10.812,20.637,11.991,20.04z"/>
</g>
</svg>
