<?xml version="1.0" encoding="utf-8"?>
<!-- Generator: Adobe Illustrator 16.0.0, SVG Export Plug-In . SVG Version: 6.00 Build 0)  -->
<!DOCTYPE svg PUBLIC "-//W3C//DTD SVG 1.1//EN" "http://www.w3.org/Graphics/SVG/1.1/DTD/svg11.dtd">
<svg version="1.1" id="圖層_1" xmlns="http://www.w3.org/2000/svg" xmlns:xlink="http://www.w3.org/1999/xlink" x="0px" y="0px"
	 width="30px" height="30px" viewBox="0 0 30 30" enable-background="new 0 0 30 30" xml:space="preserve">
<g>
	<path fill-rule="evenodd" clip-rule="evenodd" fill="#F7F3A2" d="M19.907,19.63c-0.826-0.003-1.531,0.693-1.527,1.514
		c0.003,0.827,0.696,1.51,1.531,1.506c0.832-0.006,1.511-0.696,1.5-1.529C21.4,20.312,20.718,19.635,19.907,19.63z"/>
	<path fill-rule="evenodd" clip-rule="evenodd" fill="#F7F3A2" d="M14.153,10.012c-0.834-0.027-1.542,0.637-1.565,1.467
		c-0.021,0.812,0.633,1.515,1.44,1.545c0.847,0.031,1.549-0.61,1.58-1.442C15.639,10.743,14.985,10.039,14.153,10.012z"/>
	<path fill-rule="evenodd" clip-rule="evenodd" fill="#F7F3A2" d="M17.268,21.942c-0.822-0.009-1.517,0.688-1.517,1.518
		c0,0.817,0.659,1.496,1.475,1.515c0.825,0.019,1.528-0.662,1.543-1.494C18.783,22.657,18.094,21.949,17.268,21.942z"/>
	<path fill-rule="evenodd" clip-rule="evenodd" fill="#F7F3A2" d="M20.808,12.836c0.828,0.013,1.529-0.667,1.544-1.497
		c0.013-0.809-0.698-1.53-1.514-1.534c-0.8-0.005-1.499,0.675-1.519,1.482C19.298,12.111,19.982,12.824,20.808,12.836z"/>
	<path fill-rule="evenodd" clip-rule="evenodd" fill="#F7F3A2" d="M17.466,11.733c0.832-0.006,1.522-0.709,1.506-1.528
		c-0.02-0.831-0.719-1.495-1.556-1.479c-0.816,0.015-1.479,0.691-1.478,1.507C15.939,11.066,16.626,11.74,17.466,11.733z"/>
	<path fill-rule="evenodd" clip-rule="evenodd" fill="#F7F3A2" d="M21.601,16.648c-0.812,0.013-1.49,0.692-1.497,1.498
		c-0.006,0.821,0.698,1.533,1.516,1.53c0.822-0.002,1.524-0.708,1.518-1.527C23.13,17.324,22.427,16.635,21.601,16.648z"/>
	<path fill-rule="evenodd" clip-rule="evenodd" fill="#F7F3A2" d="M22.149,13.159c-0.831,0.007-1.495,0.694-1.504,1.521
		c-0.006,0.745,0.69,1.543,1.523,1.477c0.85-0.004,1.513-0.667,1.505-1.502C23.669,13.822,22.983,13.151,22.149,13.159z"/>
	<path fill-rule="evenodd" clip-rule="evenodd" fill="#F7F3A2" d="M14.995,0C6.713,0,0,6.713,0,14.995
		c0,8.282,6.713,14.995,14.995,14.995c8.282,0,14.995-6.713,14.995-14.995C29.989,6.713,23.276,0,14.995,0z M6.707,9.73
		c-0.742-0.277-1.172-1.05-1.072-2.07c0.119-1.231,0.621-2.305,1.506-3.183c0.26-0.259,0.563-0.403,0.976-0.213
		C7.393,4.947,7.357,5.277,7.897,6.119c0.273,0.424,0.568,0.837,0.816,1.275c0.261,0.46,0.312,0.96,0.093,1.458
		C8.676,9.149,8.524,9.403,8.114,9.388c-0.18-0.007-0.413,0.101-0.539,0.234C7.297,9.918,7.009,9.843,6.707,9.73z M8.494,9.718
		c0.487,0.073,0.744,0.391,0.862,0.855c0.419,1.65,0.848,3.297,1.271,4.947c0.314,1.229,0.621,2.462,0.935,3.692
		c0.159,0.621-0.074,1.057-0.774,1.332c-0.479-1.31-0.95-2.595-1.418-3.881c-0.667-1.83-1.339-3.659-1.996-5.492
		C7.073,10.333,7.649,9.592,8.494,9.718z M12.957,25.813c-0.121-0.099-0.302-0.174-0.352-0.3c-0.319-0.819-0.611-1.649-0.912-2.478
		c-0.113-0.312-0.226-0.621-0.349-0.959c0.303-0.118,0.558-0.216,0.854-0.331c0.26,1.012,0.518,2.013,0.775,3.015
		c0.051,0.196,0.135,0.391,0.138,0.589C13.113,25.501,13.012,25.657,12.957,25.813z M23.194,19.898
		c-0.785,1.505-1.735,2.904-2.992,4.066c-0.959,0.885-2.009,1.608-3.366,1.727c-1.078,0.092-1.757-0.464-1.735-1.543
		c0.014-0.729,0.191-1.455,0.27-2.186c0.048-0.442,0.082-0.895,0.054-1.339c-0.033-0.518-0.271-0.947-0.79-1.144
		c-0.52-0.196-0.934,0.029-1.28,0.396c-0.258,0.272-0.48,0.576-0.722,0.864c-1.218,1.445-3.285,1.103-3.926-0.672
		c-0.43-1.188-0.245-2.386,0.059-3.681c0.148,0.411,0.233,0.688,0.348,0.952c0.182,0.42,0.243,0.834,0.183,1.302
		c-0.081,0.627,0.068,1.24,0.438,1.771c0.533,0.765,1.36,0.801,1.969,0.098c0.866-1,0.791-2.8-0.147-3.729
		c-0.096-0.095-0.178-0.229-0.212-0.357c-0.313-1.187-0.62-2.375-0.909-3.567c-0.037-0.15-0.019-0.362,0.064-0.485
		c1.533-2.264,3.558-3.835,6.327-4.215c3.469-0.475,6.376,1.523,7.252,4.939C24.688,15.472,24.313,17.746,23.194,19.898z"/>
</g>
</svg>
