<?xml version="1.0" encoding="utf-8"?>
<!-- Generator: Adobe Illustrator 16.0.0, SVG Export Plug-In . SVG Version: 6.00 Build 0)  -->
<!DOCTYPE svg PUBLIC "-//W3C//DTD SVG 1.1//EN" "http://www.w3.org/Graphics/SVG/1.1/DTD/svg11.dtd">
<svg version="1.1" id="圖層_1" xmlns="http://www.w3.org/2000/svg" xmlns:xlink="http://www.w3.org/1999/xlink" x="0px" y="0px"
	 width="30px" height="30px" viewBox="0 0 30 30" enable-background="new 0 0 30 30" xml:space="preserve">
<rect display="none" fill="#ACD7B4" width="30" height="30"/>
<g>
	<path fill="#005D7C" d="M0.937,0h28.125L26.25,27.188L15.938,30h-1.874L3.75,27.188L0.937,0z"/>
	<path fill="#019DBC" d="M15.001,2.812h10.312l-1.875,21.563l-8.437,2.813V2.812z"/>
	<polygon fill="none" points="18.716,19.464 19.219,14.868 15.016,14.879 15.016,20.46 	"/>
	<polygon fill="none" points="19.498,11.612 19.746,8.249 15.016,8.262 15.016,11.666 	"/>
	<path id="path5157" fill="#E5E5E5" d="M5.856,21.681l-0.01-3.109c0,0,3.2,0.903,5.014,1.368l0.029-13.591h2.583v17.389
		L5.856,21.681L5.856,21.681z"/>
	<polygon fill="#FFFFFF" points="15.799,20.617 15.85,23.694 22.844,21.873 22.844,21.873 23.544,13.381 18.38,13.958 18.38,9.423 
		23.888,9.403 24.108,6.306 15.799,6.346 15.911,17.621 20.932,16.761 20.859,19.272 	"/>
</g>
</svg>
