<?xml version="1.0" encoding="utf-8"?>
<!-- Generator: Adobe Illustrator 16.0.0, SVG Export Plug-In . SVG Version: 6.00 Build 0)  -->
<!DOCTYPE svg PUBLIC "-//W3C//DTD SVG 1.1//EN" "http://www.w3.org/Graphics/SVG/1.1/DTD/svg11.dtd">
<svg version="1.1" id="圖層_1" xmlns="http://www.w3.org/2000/svg" xmlns:xlink="http://www.w3.org/1999/xlink" x="0px" y="0px"
	 width="30px" height="30px" viewBox="0 0 30 30" enable-background="new 0 0 30 30" xml:space="preserve">
<rect display="none" fill="#ACD7B4" width="30" height="30"/>
<g>
	<g>
		<path fill="#005D7C" d="M1.843,0.563h26.315c0.501,0,0.96,0.207,1.292,0.54l0,0l0.002,0.002l0.002,0.002l0.004,0.002
			c0.33,0.333,0.536,0.79,0.536,1.291v25.201c0,0.505-0.208,0.963-0.54,1.295s-0.789,0.54-1.296,0.54H1.843
			c-0.5,0-0.959-0.205-1.293-0.54l-0.002-0.002l-0.002-0.003L0.542,28.89c-0.332-0.334-0.537-0.79-0.537-1.291V2.396
			c0.005-0.504,0.209-0.963,0.542-1.295c0.019-0.02,0.039-0.04,0.061-0.056C0.936,0.747,1.37,0.563,1.843,0.563L1.843,0.563z
			 M16.064,24.659c-0.385,0-0.699-0.339-0.699-0.759c0-0.421,0.314-0.76,0.699-0.76h8.594c0.385,0,0.696,0.339,0.696,0.76
			c0,0.42-0.312,0.759-0.696,0.759H16.064L16.064,24.659z M5.091,24.659c-0.38,0-0.69-0.339-0.69-0.759c0-0.421,0.31-0.76,0.69-0.76
			h7.967c0.381,0,0.691,0.339,0.691,0.76c0,0.42-0.31,0.759-0.691,0.759H5.091L5.091,24.659z M4.815,21.343
			c-0.38,0-0.69-0.339-0.69-0.759c0-0.419,0.31-0.759,0.69-0.759h7.967c0.38,0,0.69,0.34,0.69,0.759c0,0.42-0.31,0.759-0.69,0.759
			H4.815L4.815,21.343z M16.064,21.343c-0.385,0-0.699-0.339-0.699-0.759c0-0.419,0.314-0.759,0.699-0.759h8.594
			c0.385,0,0.696,0.34,0.696,0.759c0,0.42-0.312,0.759-0.696,0.759H16.064L16.064,21.343z M4.303,9.048h20.97v8.21H4.303V9.048
			L4.303,9.048z M28.337,7.135c-0.059,0.009-0.118,0.015-0.177,0.015H1.843c-0.061,0-0.12-0.006-0.176-0.015v20.462
			c0,0.048,0.02,0.093,0.049,0.124l0,0l0.002,0.003c0.033,0.031,0.074,0.049,0.125,0.049h26.315c0.047,0,0.091-0.021,0.126-0.054
			c0.031-0.031,0.053-0.076,0.053-0.125V7.135L28.337,7.135z M12.24,2.93c0.659,0,1.19,0.534,1.19,1.191s-0.534,1.191-1.19,1.191
			s-1.191-0.534-1.191-1.191S11.584,2.93,12.24,2.93L12.24,2.93z M8.075,2.93c0.659,0,1.19,0.534,1.19,1.191
			s-0.534,1.191-1.19,1.191c-0.659,0-1.191-0.534-1.191-1.191S7.419,2.93,8.075,2.93L8.075,2.93z M3.913,2.93
			c0.659,0,1.19,0.534,1.19,1.191s-0.534,1.191-1.19,1.191c-0.659,0-1.191-0.534-1.191-1.191S3.254,2.93,3.913,2.93L3.913,2.93z"/>
	</g>
	<path fill="#FFFFFF" d="M3.913,2.93c0.659,0,1.19,0.534,1.19,1.191s-0.534,1.191-1.19,1.191c-0.659,0-1.191-0.534-1.191-1.191
		S3.254,2.93,3.913,2.93L3.913,2.93z"/>
	<path fill="#FFFFFF" d="M8.075,2.93c0.659,0,1.19,0.534,1.19,1.191s-0.534,1.191-1.19,1.191c-0.659,0-1.191-0.534-1.191-1.191
		S7.419,2.93,8.075,2.93L8.075,2.93z"/>
	<path fill="#FFFFFF" d="M12.24,2.93c0.659,0,1.19,0.534,1.19,1.191s-0.534,1.191-1.19,1.191s-1.191-0.534-1.191-1.191
		S11.584,2.93,12.24,2.93L12.24,2.93z"/>
</g>
</svg>
