<?xml version="1.0" encoding="utf-8"?>
<!-- Generator: Adobe Illustrator 16.0.0, SVG Export Plug-In . SVG Version: 6.00 Build 0)  -->
<!DOCTYPE svg PUBLIC "-//W3C//DTD SVG 1.1//EN" "http://www.w3.org/Graphics/SVG/1.1/DTD/svg11.dtd">
<svg version="1.1" id="圖層_1" xmlns="http://www.w3.org/2000/svg" xmlns:xlink="http://www.w3.org/1999/xlink" x="0px" y="0px"
	 width="30px" height="30px" viewBox="0 0 30 30" enable-background="new 0 0 30 30" xml:space="preserve">
<rect display="none" fill="#B0D584" width="30" height="29.969"/>
<g>
	<path fill="#035B78" d="M27.626,6.923c-1.118-1.75-3.521-2.477-6.758-2.06c-0.115,0.013-0.236,0.034-0.351,0.047
		c-0.047-0.107-0.094-0.215-0.147-0.323c-1.394-2.956-3.299-4.584-5.372-4.584c-2.073,0-3.985,1.628-5.371,4.584
		C9.58,4.695,9.526,4.803,9.479,4.911C9.358,4.89,9.244,4.876,9.129,4.863c-3.245-0.424-5.64,0.31-6.758,2.06
		c-1.117,1.75-0.774,4.234,0.962,6.993C3.563,14.28,3.812,14.644,4.081,15c-0.269,0.363-0.518,0.721-0.747,1.083
		c-1.737,2.761-2.08,5.25-0.962,6.994c0.909,1.427,2.672,2.174,5.048,2.174c0.57-0.003,1.138-0.041,1.703-0.114
		c0.115-0.014,0.235-0.033,0.35-0.048c0.048,0.108,0.095,0.216,0.148,0.324c1.393,2.954,3.298,4.583,5.372,4.583
		c2.072,0,3.984-1.629,5.371-4.583c0.047-0.108,0.1-0.216,0.147-0.324c0.121,0.021,0.235,0.034,0.351,0.048
		c0.563,0.076,1.133,0.114,1.703,0.114c2.375,0,4.139-0.747,5.048-2.174c1.117-1.75,0.773-4.233-0.963-6.994
		c-0.229-0.362-0.478-0.727-0.748-1.083c0.271-0.364,0.52-0.72,0.748-1.084C28.407,11.15,28.75,8.666,27.626,6.923z M10.846,5.16
		c1.137-2.423,2.652-3.81,4.153-3.81c1.5,0,3.015,1.387,4.152,3.81c0.002,0.005,0.004,0.009,0.008,0.013
		c-1.43,0.344-2.824,0.819-4.166,1.42c-1.341-0.604-2.736-1.08-4.167-1.42C10.839,5.173,10.839,5.166,10.846,5.16z M21.063,15
		c0.001,1.077-0.058,2.153-0.175,3.225c-0.839,0.676-1.715,1.305-2.625,1.885c-1.05,0.674-2.143,1.278-3.271,1.811
		c-1.126-0.537-2.219-1.142-3.271-1.811c-0.909-0.581-1.785-1.21-2.625-1.885c-0.233-2.145-0.233-4.306,0-6.449
		c1.814-1.458,3.793-2.699,5.896-3.695c1.126,0.536,2.218,1.141,3.271,1.811c0.909,0.58,1.785,1.209,2.625,1.885
		C21.005,12.847,21.063,13.923,21.063,15z M22.349,13.041c0.658,0.614,1.279,1.268,1.857,1.959c-0.578,0.69-1.199,1.346-1.857,1.958
		c0.04-0.646,0.062-1.298,0.062-1.958C22.41,14.34,22.389,13.688,22.349,13.041z M20.612,20.136
		c-0.213,1.165-0.521,2.311-0.922,3.426c-1.047-0.236-2.072-0.552-3.069-0.942c0.794-0.417,1.588-0.875,2.375-1.373
		C19.549,20.889,20.087,20.519,20.612,20.136z M13.376,22.619c-0.996,0.396-2.023,0.711-3.069,0.942
		c-0.402-1.115-0.71-2.261-0.922-3.426c0.518,0.383,1.057,0.753,1.615,1.104C11.788,21.744,12.583,22.202,13.376,22.619z
		 M7.649,16.958C6.99,16.346,6.37,15.69,5.791,15c0.579-0.691,1.199-1.345,1.858-1.959C7.608,13.688,7.588,14.34,7.588,15
		C7.588,15.66,7.608,16.313,7.649,16.958z M9.385,9.864c0.212-1.166,0.521-2.311,0.922-3.426c1.045,0.236,2.071,0.551,3.069,0.942
		C12.583,7.797,11.788,8.256,11,8.754C10.448,9.11,9.91,9.481,9.385,9.864z M18.99,8.754c-0.781-0.498-1.575-0.963-2.376-1.374
		c0.996-0.396,2.021-0.711,3.069-0.942c0.4,1.115,0.709,2.261,0.922,3.426C20.087,9.481,19.549,9.11,18.99,8.754z M4.472,13.196
		c-1.427-2.261-1.777-4.287-0.969-5.553c0.646-1.01,2.046-1.555,3.938-1.555C7.946,6.09,8.452,6.125,8.954,6.189h0.014
		c-0.545,1.583-0.924,3.219-1.13,4.88c-1.037,0.866-2.003,1.813-2.888,2.834C4.781,13.674,4.62,13.438,4.472,13.196z M8.948,23.805
		c-0.502,0.064-1.008,0.098-1.514,0.101c-1.892,0-3.292-0.538-3.938-1.555c-0.808-1.267-0.458-3.292,0.969-5.554
		c0.148-0.235,0.31-0.478,0.478-0.714c0.884,1.021,1.85,1.969,2.887,2.834c0.208,1.661,0.586,3.297,1.131,4.881
		C8.961,23.805,8.954,23.805,8.948,23.805z M19.15,24.84c-1.137,2.424-2.651,3.81-4.152,3.81c-1.501,0-3.016-1.386-4.153-3.81
		c0-0.005-0.003-0.01-0.007-0.013c1.43-0.344,2.824-0.819,4.167-1.42c1.341,0.603,2.736,1.079,4.167,1.42
		C19.158,24.827,19.158,24.833,19.15,24.84z M25.524,16.804c1.428,2.262,1.778,4.287,0.97,5.554
		c-0.808,1.265-2.793,1.796-5.444,1.447h-0.014c0.544-1.584,0.923-3.22,1.131-4.881c1.037-0.865,2.003-1.813,2.888-2.834
		C25.216,16.325,25.377,16.562,25.524,16.804z M22.16,11.076c-0.208-1.661-0.586-3.296-1.131-4.88h0.014
		c2.651-0.343,4.638,0.182,5.445,1.447c0.808,1.266,0.457,3.292-0.97,5.553c-0.147,0.236-0.31,0.479-0.478,0.714
		C24.161,12.887,23.196,11.939,22.16,11.076z"/>
	<circle fill="#035B78" cx="15.001" cy="15" r="2.563"/>
</g>
</svg>
