<?xml version="1.0" encoding="utf-8"?>
<!-- Generator: Adobe Illustrator 16.0.0, SVG Export Plug-In . SVG Version: 6.00 Build 0)  -->
<!DOCTYPE svg PUBLIC "-//W3C//DTD SVG 1.1//EN" "http://www.w3.org/Graphics/SVG/1.1/DTD/svg11.dtd">
<svg version="1.1" id="圖層_1" xmlns="http://www.w3.org/2000/svg" xmlns:xlink="http://www.w3.org/1999/xlink" x="0px" y="0px"
	 width="30px" height="30px" viewBox="0 0 30 30" enable-background="new 0 0 30 30" xml:space="preserve">
<g display="none">
	<path display="inline" fill="#F7F3A2" d="M19.907,19.63c-0.826-0.003-1.531,0.693-1.527,1.515c0.003,0.826,0.696,1.51,1.531,1.506
		c0.832-0.006,1.511-0.695,1.5-1.528C21.4,20.313,20.718,19.635,19.907,19.63z"/>
	<path display="inline" fill="#F7F3A2" d="M14.153,10.012c-0.834-0.027-1.542,0.637-1.565,1.467
		c-0.021,0.812,0.633,1.515,1.44,1.545c0.847,0.031,1.549-0.61,1.58-1.442C15.639,10.743,14.985,10.039,14.153,10.012z"/>
	<path display="inline" fill="#F7F3A2" d="M17.268,21.941c-0.822-0.008-1.517,0.688-1.517,1.519c0,0.817,0.659,1.496,1.476,1.515
		c0.824,0.021,1.527-0.662,1.543-1.494C18.783,22.657,18.094,21.949,17.268,21.941z"/>
	<path display="inline" fill="#F7F3A2" d="M20.809,12.836c0.828,0.013,1.528-0.667,1.543-1.497c0.015-0.809-0.697-1.53-1.514-1.534
		c-0.8-0.005-1.499,0.675-1.52,1.482C19.298,12.111,19.982,12.824,20.809,12.836z"/>
	<path display="inline" fill="#F7F3A2" d="M17.466,11.733c0.832-0.006,1.522-0.709,1.507-1.528c-0.021-0.831-0.72-1.495-1.557-1.479
		c-0.816,0.015-1.479,0.691-1.479,1.507C15.939,11.066,16.626,11.74,17.466,11.733z"/>
	<path display="inline" fill="#F7F3A2" d="M21.602,16.648c-0.813,0.013-1.49,0.69-1.498,1.498c-0.006,0.819,0.699,1.533,1.518,1.528
		c0.82-0.002,1.523-0.708,1.52-1.526C23.13,17.324,22.428,16.635,21.602,16.648z"/>
	<path display="inline" fill="#F7F3A2" d="M22.148,13.159c-0.83,0.007-1.494,0.694-1.504,1.521
		c-0.006,0.745,0.689,1.542,1.522,1.477c0.851-0.005,1.515-0.667,1.505-1.502C23.669,13.822,22.982,13.151,22.148,13.159z"/>
	<path display="inline" fill="#F7F3A2" d="M14.995,0C6.713,0,0,6.713,0,14.995S6.713,29.99,14.995,29.99S29.99,23.277,29.99,14.995
		C29.988,6.713,23.275,0,14.995,0z M6.707,9.73C5.965,9.453,5.535,8.68,5.635,7.66c0.119-1.231,0.621-2.305,1.506-3.183
		c0.26-0.259,0.563-0.403,0.976-0.213c-0.724,0.683-0.76,1.013-0.22,1.855C8.17,6.543,8.465,6.956,8.713,7.394
		c0.261,0.46,0.312,0.96,0.093,1.458c-0.13,0.297-0.282,0.551-0.692,0.536c-0.18-0.007-0.413,0.101-0.539,0.234
		C7.297,9.918,7.009,9.843,6.707,9.73z M8.494,9.718c0.487,0.073,0.744,0.391,0.862,0.855c0.419,1.65,0.848,3.297,1.271,4.946
		c0.314,1.229,0.621,2.463,0.935,3.691c0.159,0.621-0.074,1.059-0.774,1.332c-0.479-1.311-0.95-2.595-1.418-3.881
		c-0.667-1.83-1.339-3.659-1.996-5.492C7.073,10.333,7.649,9.592,8.494,9.718z M12.957,25.813c-0.121-0.099-0.302-0.174-0.352-0.299
		c-0.319-0.82-0.611-1.648-0.912-2.479c-0.113-0.313-0.226-0.621-0.349-0.959c0.303-0.118,0.558-0.217,0.854-0.331
		c0.26,1.012,0.518,2.013,0.775,3.015c0.051,0.196,0.135,0.391,0.138,0.59C13.113,25.501,13.012,25.657,12.957,25.813z
		 M23.193,19.898c-0.784,1.504-1.734,2.902-2.991,4.064c-0.959,0.887-2.009,1.607-3.366,1.729c-1.078,0.092-1.757-0.465-1.735-1.543
		c0.014-0.729,0.191-1.455,0.27-2.188c0.048-0.441,0.082-0.896,0.054-1.339c-0.033-0.519-0.271-0.947-0.79-1.146
		c-0.521-0.194-0.934,0.029-1.28,0.396c-0.258,0.271-0.48,0.576-0.722,0.863c-1.218,1.445-3.285,1.104-3.926-0.672
		c-0.43-1.188-0.245-2.385,0.059-3.682c0.148,0.411,0.233,0.688,0.348,0.952c0.182,0.42,0.243,0.834,0.183,1.304
		c-0.081,0.627,0.068,1.238,0.438,1.771c0.533,0.765,1.36,0.801,1.969,0.098c0.866-1,0.791-2.8-0.147-3.729
		c-0.096-0.094-0.178-0.229-0.212-0.355c-0.313-1.187-0.62-2.375-0.909-3.567c-0.037-0.15-0.019-0.362,0.064-0.485
		c1.533-2.264,3.558-3.835,6.327-4.215c3.469-0.475,6.376,1.523,7.252,4.939C24.688,15.472,24.313,17.746,23.193,19.898z"/>
</g>
<g>
	<path fill="#F7F3A2" d="M22.73,8.174c-5.152,0-10.306,0-15.46,0c-0.397,0-0.458,0.075-0.458,0.547c0,3.4,0,6.798,0,10.195
		c0,0.479,0.049,0.535,0.462,0.535c2.572,0,5.144,0,7.716,0c2.581,0,5.162,0,7.744,0c0.39,0,0.442-0.062,0.442-0.522
		c0-3.409,0-6.818,0-10.226C23.178,8.253,23.111,8.174,22.73,8.174z M17.035,16.141c-0.203,0.197-0.416,0.104-0.592-0.094
		c-0.418-0.473-0.844-0.938-1.292-1.432c-0.262,0.366-0.492,0.7-0.74,1.022c-0.058,0.076-0.176,0.168-0.248,0.152
		c-0.078-0.014-0.167-0.133-0.194-0.225c-0.396-1.281-0.783-2.564-1.164-3.853c-0.026-0.087-0.013-0.235,0.043-0.287
		c0.056-0.048,0.204-0.041,0.289-0.005c1.227,0.517,2.452,1.04,3.671,1.571c0.097,0.042,0.226,0.156,0.223,0.232
		c-0.001,0.085-0.125,0.19-0.218,0.248c-0.327,0.199-0.665,0.38-1.042,0.593c0.44,0.506,0.837,1.001,1.273,1.458
		C17.277,15.762,17.219,15.969,17.035,16.141z"/>
	<path fill="#F7F3A2" d="M14.995,0C11.121,0,7.603,1.481,4.942,3.892H4.917v0.022C1.903,6.657,0,10.599,0,14.995
		C0,23.277,6.713,29.99,14.995,29.99S29.99,23.277,29.99,14.995C29.988,6.713,23.275,0,14.995,0z M18.143,22.762
		c-0.057,0.129-0.257,0.241-0.396,0.245c-0.922,0.021-1.844,0.013-2.764,0.013c-0.895,0-1.789,0-2.683,0
		c-0.191,0-0.37-0.013-0.47-0.249c-0.099-0.233-0.01-0.407,0.105-0.589c0.696-1.083,0.556-1.031,1.719-1.028
		c1.052,0.003,2.101,0.012,3.153-0.003c0.402-0.007,0.715,0.131,0.937,0.543c0.101,0.189,0.255,0.348,0.336,0.547
		C18.146,22.396,18.198,22.63,18.143,22.762z M24.222,18.932c0,1.148-0.513,1.74-1.503,1.74c-5.162,0-10.325,0-15.487,0
		c-0.931,0-1.462-0.61-1.462-1.69C5.768,15.53,5.768,12.077,5.769,8.625C5.77,7.595,6.297,6.972,7.175,6.97
		c2.609-0.002,5.217-0.001,7.827-0.001c2.581,0,5.161,0,7.743,0.001c0.972,0,1.477,0.593,1.477,1.734
		C24.222,12.114,24.222,15.522,24.222,18.932z"/>
</g>
</svg>
