<?xml version="1.0" encoding="utf-8"?>
<!-- Generator: Adobe Illustrator 16.0.0, SVG Export Plug-In . SVG Version: 6.00 Build 0)  -->
<!DOCTYPE svg PUBLIC "-//W3C//DTD SVG 1.1//EN" "http://www.w3.org/Graphics/SVG/1.1/DTD/svg11.dtd">
<svg version="1.1" id="圖層_1" xmlns="http://www.w3.org/2000/svg" xmlns:xlink="http://www.w3.org/1999/xlink" x="0px" y="0px"
	 width="30px" height="30px" viewBox="0 0 30 30" enable-background="new 0 0 30 30" xml:space="preserve">
<g display="none">
	<path display="inline" fill="#F7F3A2" d="M19.907,19.63c-0.826-0.003-1.531,0.692-1.527,1.515c0.003,0.826,0.696,1.51,1.531,1.506
		c0.832-0.006,1.511-0.694,1.5-1.527C21.4,20.313,20.718,19.635,19.907,19.63z"/>
	<path display="inline" fill="#F7F3A2" d="M14.153,10.012c-0.834-0.027-1.542,0.637-1.565,1.467
		c-0.021,0.812,0.633,1.515,1.44,1.545c0.847,0.031,1.549-0.61,1.58-1.442C15.639,10.743,14.985,10.039,14.153,10.012z"/>
	<path display="inline" fill="#F7F3A2" d="M17.268,21.941c-0.822-0.008-1.517,0.688-1.517,1.519c0,0.817,0.659,1.496,1.476,1.515
		c0.824,0.021,1.527-0.662,1.543-1.494C18.783,22.656,18.094,21.949,17.268,21.941z"/>
	<path display="inline" fill="#F7F3A2" d="M20.809,12.836c0.828,0.013,1.528-0.667,1.543-1.497c0.016-0.809-0.696-1.53-1.514-1.534
		c-0.8-0.005-1.499,0.675-1.52,1.482C19.298,12.111,19.982,12.824,20.809,12.836z"/>
	<path display="inline" fill="#F7F3A2" d="M17.466,11.733c0.832-0.006,1.522-0.709,1.507-1.528c-0.021-0.831-0.72-1.495-1.557-1.479
		c-0.816,0.015-1.479,0.691-1.479,1.507C15.939,11.066,16.626,11.74,17.466,11.733z"/>
	<path display="inline" fill="#F7F3A2" d="M21.602,16.648c-0.813,0.013-1.49,0.689-1.498,1.498
		c-0.006,0.818,0.699,1.533,1.519,1.527c0.819-0.002,1.522-0.708,1.521-1.525C23.13,17.324,22.428,16.635,21.602,16.648z"/>
	<path display="inline" fill="#F7F3A2" d="M22.148,13.159c-0.83,0.007-1.494,0.694-1.504,1.521
		c-0.006,0.745,0.688,1.542,1.521,1.476c0.852-0.004,1.516-0.667,1.505-1.501C23.669,13.822,22.982,13.151,22.148,13.159z"/>
	<path display="inline" fill="#F7F3A2" d="M14.995,0C6.713,0,0,6.713,0,14.995S6.713,29.99,14.995,29.99S29.99,23.277,29.99,14.995
		C29.988,6.713,23.275,0,14.995,0z M6.707,9.73C5.965,9.453,5.535,8.68,5.635,7.66c0.119-1.231,0.621-2.305,1.506-3.183
		c0.26-0.259,0.563-0.403,0.976-0.213c-0.724,0.683-0.76,1.013-0.22,1.855C8.17,6.543,8.465,6.956,8.713,7.394
		c0.261,0.46,0.312,0.96,0.093,1.458c-0.13,0.297-0.282,0.551-0.692,0.536c-0.18-0.007-0.413,0.101-0.539,0.234
		C7.297,9.918,7.009,9.843,6.707,9.73z M8.494,9.718c0.487,0.073,0.744,0.391,0.862,0.854c0.419,1.65,0.848,3.297,1.271,4.947
		c0.314,1.229,0.621,2.463,0.935,3.69c0.159,0.621-0.074,1.06-0.774,1.332c-0.479-1.312-0.95-2.595-1.418-3.881
		c-0.667-1.83-1.339-3.659-1.996-5.492C7.073,10.333,7.649,9.592,8.494,9.718z M12.957,25.813c-0.121-0.099-0.302-0.174-0.352-0.299
		c-0.319-0.82-0.611-1.647-0.912-2.479c-0.113-0.313-0.226-0.621-0.349-0.959c0.303-0.118,0.558-0.217,0.854-0.331
		c0.26,1.012,0.518,2.013,0.775,3.015c0.051,0.196,0.135,0.391,0.138,0.59C13.113,25.501,13.012,25.656,12.957,25.813z
		 M23.193,19.898c-0.784,1.504-1.734,2.901-2.991,4.063c-0.959,0.888-2.009,1.606-3.366,1.729c-1.078,0.092-1.757-0.465-1.735-1.543
		c0.014-0.729,0.191-1.455,0.27-2.188c0.048-0.44,0.082-0.896,0.054-1.339c-0.033-0.52-0.271-0.947-0.79-1.146
		c-0.521-0.193-0.934,0.029-1.28,0.396c-0.258,0.271-0.48,0.576-0.722,0.863c-1.218,1.445-3.285,1.104-3.926-0.672
		c-0.43-1.188-0.245-2.385,0.059-3.683c0.148,0.411,0.233,0.688,0.348,0.952c0.182,0.42,0.243,0.834,0.183,1.305
		c-0.081,0.627,0.068,1.237,0.438,1.77c0.533,0.766,1.36,0.802,1.969,0.099c0.866-1,0.791-2.8-0.147-3.729
		c-0.096-0.094-0.178-0.229-0.212-0.354c-0.313-1.187-0.62-2.375-0.909-3.567c-0.037-0.15-0.019-0.362,0.064-0.485
		c1.533-2.264,3.558-3.835,6.327-4.215c3.469-0.475,6.376,1.523,7.252,4.939C24.688,15.472,24.313,17.746,23.193,19.898z"/>
</g>
<g>
	<path fill="#F7F3A2" d="M14.007,18.392c-0.642-0.006-1.282-0.001-1.924-0.002c-0.631,0-1.261,0.001-1.892,0
		c-0.227-0.001-0.399,0.089-0.492,0.299c-0.141,0.32,0.096,0.667,0.463,0.67c0.651,0.005,1.304,0.001,1.956,0.001
		c0.619,0,1.239-0.001,1.858,0.001c0.227,0,0.4-0.089,0.492-0.299C14.609,18.74,14.373,18.395,14.007,18.392z"/>
	<path fill="#F7F3A2" d="M10.197,16.45c0.016,0,0.032,0,0.048,0c1.875,0,3.75,0,5.625,0c0.049,0,0.098,0.002,0.146-0.005
		c0.191-0.028,0.329-0.129,0.399-0.311c0.126-0.327-0.113-0.652-0.486-0.653c-0.954-0.004-1.908-0.001-2.862-0.001
		c-0.598,0-1.196,0-1.794,0c-0.36,0-0.722-0.003-1.083,0c-0.313,0.002-0.531,0.207-0.529,0.488S9.881,16.445,10.197,16.45z"/>
	<path fill="#F7F3A2" d="M10.272,13.54c2.5,0,5,0,7.5,0c0.06,0,0.119,0.002,0.178-0.004c0.25-0.027,0.437-0.233,0.437-0.479
		c0.002-0.247-0.183-0.454-0.434-0.482c-0.059-0.007-0.118-0.004-0.177-0.004c-1.25-0.001-2.501-0.001-3.75-0.001
		c-1.251,0-2.501,0-3.751,0c-0.388,0-0.614,0.179-0.615,0.484C9.659,13.358,9.887,13.54,10.272,13.54z"/>
	<path fill="#F7F3A2" d="M10.197,10.597c1.368,0.002,2.737,0.001,4.105,0.001c0.227,0,0.452,0.003,0.679-0.001
		c0.223-0.004,0.392-0.122,0.465-0.313c0.124-0.329-0.114-0.652-0.487-0.654c-0.793-0.003-1.585-0.001-2.377-0.001
		c-0.797,0-1.595-0.001-2.393,0C9.944,9.629,9.768,9.743,9.692,9.942C9.567,10.276,9.811,10.597,10.197,10.597z"/>
	<path fill="#F7F3A2" d="M14.995,0C11.121,0,7.603,1.481,4.942,3.892H4.917v0.022C1.903,6.657,0,10.599,0,14.995
		C0,23.277,6.713,29.99,14.995,29.99S29.99,23.277,29.99,14.995C29.988,6.713,23.275,0,14.995,0z M17.43,6.802
		c0.249,0.062,0.453,0.175,0.628,0.341c0.595,0.563,1.188,1.125,1.78,1.691c0.263,0.25,0.398,0.498,0.443,0.788
		c-0.947,0-1.893,0-2.852,0C17.43,8.686,17.43,7.752,17.43,6.802z M20.31,21.971c-0.025,0.433-0.237,0.788-0.598,1.021
		c-0.202,0.13-0.45,0.188-0.677,0.28c-3.342,0-6.683,0-10.023,0c-0.02-0.009-0.038-0.021-0.059-0.023
		c-0.372-0.06-0.672-0.238-0.912-0.528c-0.181-0.217-0.255-0.478-0.322-0.742c0-4.655,0-9.312,0-13.968
		C7.728,7.992,7.74,7.974,7.743,7.954c0.059-0.371,0.235-0.672,0.525-0.913c0.219-0.18,0.476-0.26,0.743-0.323
		c2.479,0,4.958,0,7.436,0c0,1.1,0,2.198,0.002,3.297c0,0.4,0.182,0.583,0.58,0.583c1.04,0,2.079,0,3.119,0c0.058,0,0.113,0,0.18,0
		c0,0.819,0.003,1.616-0.005,2.412c0,0.087-0.038,0.19-0.094,0.257c-1.205,1.436-2.416,2.866-3.625,4.298
		c-0.255,0.3-0.445,0.635-0.54,1.017c-0.163,0.664-0.325,1.327-0.468,1.995c-0.039,0.18-0.036,0.38,0.003,0.56
		c0.197,0.936,1.139,1.404,2.04,1.023c0.57-0.241,1.141-0.481,1.701-0.741c0.231-0.108,0.445-0.259,0.652-0.41
		c0.114-0.083,0.196-0.208,0.32-0.345C20.313,21.136,20.332,21.554,20.31,21.971z M17.468,18.057
		c0.74,0.621,1.478,1.238,2.218,1.861c-0.197,0.275-0.431,0.487-0.736,0.618c-0.559,0.239-1.115,0.482-1.671,0.726
		c-0.202,0.089-0.399,0.098-0.574-0.053c-0.171-0.146-0.192-0.337-0.142-0.545c0.145-0.601,0.289-1.202,0.431-1.804
		C17.067,18.547,17.235,18.29,17.468,18.057z M20.317,19.182c-0.745-0.626-1.481-1.244-2.229-1.871
		c0.895-1.059,1.782-2.109,2.681-3.171c0.744,0.624,1.481,1.241,2.229,1.869C22.103,17.069,21.214,18.12,20.317,19.182z
		 M24.271,14.154c-0.098,0.433-0.344,0.777-0.654,1.107c-0.737-0.617-1.474-1.234-2.215-1.856c0.361-0.503,0.774-0.903,1.443-0.893
		c0.691,0.012,1.271,0.503,1.396,1.183c0.005,0.025,0.02,0.047,0.03,0.07C24.271,13.896,24.271,14.024,24.271,14.154z"/>
</g>
</svg>
