<?xml version="1.0" encoding="utf-8"?>
<!-- Generator: Adobe Illustrator 16.0.0, SVG Export Plug-In . SVG Version: 6.00 Build 0)  -->
<!DOCTYPE svg PUBLIC "-//W3C//DTD SVG 1.1//EN" "http://www.w3.org/Graphics/SVG/1.1/DTD/svg11.dtd">
<svg version="1.1" id="圖層_1" xmlns="http://www.w3.org/2000/svg" xmlns:xlink="http://www.w3.org/1999/xlink" x="0px" y="0px"
	 width="30px" height="30px" viewBox="0 0 30 30" enable-background="new 0 0 30 30" xml:space="preserve">
<rect display="none" fill="#B0D584" width="30" height="29.969"/>
<path fill="#035B78" d="M29.426,13.665L16.335,0.576c-0.753-0.754-1.976-0.754-2.73,0v0l-2.718,2.718l3.448,3.447
	c0.827-0.281,1.742-0.068,2.359,0.55c0.621,0.622,0.832,1.543,0.544,2.373l3.322,3.323c0.805-0.276,1.732-0.097,2.375,0.546
	c0.896,0.896,0.896,2.351,0,3.247v0.001c-0.896,0.898-2.353,0.898-3.25,0.001c-0.656-0.655-0.854-1.642-0.5-2.5l-3.099-3.099
	l-0.001,8.156c0.225,0.109,0.431,0.257,0.608,0.434c0.897,0.896,0.897,2.353,0,3.249v0.001c-0.897,0.896-2.353,0.896-3.25,0
	c-0.897-0.896-0.898-2.353-0.001-3.249c0.215-0.216,0.471-0.386,0.753-0.502v-8.231c-0.282-0.115-0.538-0.285-0.752-0.501
	c-0.68-0.679-0.843-1.677-0.495-2.512L9.551,4.629l-8.975,8.975c-0.754,0.754-0.754,1.978,0,2.73c0,0,0,0,0,0l13.089,13.09
	c0.754,0.754,1.976,0.754,2.73,0l13.029-13.028C30.179,15.641,30.179,14.418,29.426,13.665"/>
</svg>
