<?xml version="1.0" encoding="utf-8"?>
<!-- Generator: Adobe Illustrator 16.0.0, SVG Export Plug-In . SVG Version: 6.00 Build 0)  -->
<!DOCTYPE svg PUBLIC "-//W3C//DTD SVG 1.1//EN" "http://www.w3.org/Graphics/SVG/1.1/DTD/svg11.dtd">
<svg version="1.1" id="圖層_1" xmlns="http://www.w3.org/2000/svg" xmlns:xlink="http://www.w3.org/1999/xlink" x="0px" y="0px"
	 width="30px" height="30px" viewBox="0 0 30 30" enable-background="new 0 0 30 30" xml:space="preserve">
<rect display="none" fill="#ACD7B4" width="30" height="30"/>
<g>
	<g>
		<path fill="#005D7C" d="M12.65,7.712h17.349l-1.733,16.771l-6.362,1.736h-1.155l-6.362-1.736L12.65,7.712z"/>
		<path fill="#019DBC" d="M21.325,9.447h6.362L26.529,22.75l-5.204,1.733V9.447z"/>
		<polygon fill="none" points="23.615,19.72 23.929,16.884 21.334,16.891 21.334,20.335 		"/>
		<polygon fill="none" points="24.101,14.875 24.253,12.801 21.334,12.809 21.334,14.909 		"/>
		<polygon fill="#FAFAFA" points="21.334,10.892 21.334,10.892 21.334,12.809 24.253,12.801 24.101,14.875 21.334,14.909 
			21.334,16.891 23.929,16.884 23.615,19.72 21.334,20.335 21.334,22.458 21.334,22.458 25.528,21.298 26.093,15.026 26.277,12.934 
			26.459,10.892 		"/>
		<g>
			<polygon fill="#E5E5E5" points="21.332,20.335 19.052,19.72 18.9,18.019 16.847,18.019 17.139,21.298 21.33,22.461 
				21.334,22.458 21.334,20.335 21.334,20.335 			"/>
			<polygon fill="#E5E5E5" points="16.208,10.892 16.341,12.823 21.334,12.809 21.334,10.892 			"/>
			<polygon fill="#E5E5E5" points="16.748,16.902 21.334,16.891 21.334,14.909 16.545,14.965 			"/>
		</g>
	</g>
	<g>
		<path fill="#005D7C" d="M0,3.781h17.328l-1.732,16.748l-6.353,1.733H8.085l-6.353-1.733L0,3.781z"/>
		<path fill="#019DBC" d="M8.665,5.512h6.353l-1.156,13.285l-5.197,1.731V5.512z"/>
		<polygon fill="#FFFFFF" points="13.295,8.97 13.477,7.245 3.448,7.245 3.649,8.97 3.835,11.292 3.83,11.292 4.006,13.021 
			10.729,13.021 10.498,15.77 8.665,16.35 8.665,16.332 6.224,15.686 6.073,14.171 4.035,14.171 4.308,16.954 4.308,17.067 
			8.665,18.221 12.315,17.067 12.36,17.067 12.362,17.053 12.371,17.05 12.371,16.96 12.702,13.021 12.708,13.021 12.883,11.292 
			5.955,11.292 5.77,8.97 		"/>
		<g>
			<polygon fill="#E5E5E5" points="8.665,7.245 3.448,7.245 3.649,8.97 3.835,11.292 3.83,11.292 4.006,13.021 8.665,13.021 
				8.665,11.292 5.955,11.292 5.77,8.97 8.665,8.97 			"/>
			<polygon fill="#E5E5E5" points="8.665,16.332 6.224,15.686 6.073,14.171 4.035,14.171 4.308,16.954 4.308,17.067 8.665,18.221 
				8.665,16.35 			"/>
		</g>
	</g>
</g>
</svg>
