<?xml version="1.0" encoding="utf-8"?>
<!-- Generator: Adobe Illustrator 16.0.0, SVG Export Plug-In . SVG Version: 6.00 Build 0)  -->
<!DOCTYPE svg PUBLIC "-//W3C//DTD SVG 1.1//EN" "http://www.w3.org/Graphics/SVG/1.1/DTD/svg11.dtd">
<svg version="1.1" id="圖層_1" xmlns="http://www.w3.org/2000/svg" xmlns:xlink="http://www.w3.org/1999/xlink" x="0px" y="0px"
	 width="30px" height="30px" viewBox="0 0 30 30" enable-background="new 0 0 30 30" xml:space="preserve">
<rect display="none" fill="#B0D584" width="30" height="29.969"/>
<g>
	<g>
		<path fill="#035B78" d="M16.207,19.915c0,0.709-0.574,1.283-1.283,1.283H1.768c-0.708,0-1.283-0.574-1.283-1.283V6.76
			c0-0.708,0.575-1.283,1.283-1.283h13.156c0.709,0,1.283,0.575,1.283,1.283V19.915z"/>
		<path fill="#FFFFFF" d="M14.924,21.698H1.768c-0.983,0-1.783-0.8-1.783-1.783V6.76c0-0.983,0.8-1.783,1.783-1.783h13.156
			c0.983,0,1.783,0.8,1.783,1.783v13.155C16.707,20.898,15.907,21.698,14.924,21.698z M1.768,5.977
			c-0.432,0-0.783,0.352-0.783,0.783v13.155c0,0.432,0.352,0.783,0.783,0.783h13.156c0.432,0,0.783-0.352,0.783-0.783V6.76
			c0-0.432-0.352-0.783-0.783-0.783H1.768z"/>
	</g>
	<g>
		<path fill="#FFFFFF" d="M4.797,18.518V8.252h4.001c0.677,0,1.238,0.07,1.684,0.211c0.446,0.14,0.833,0.434,1.158,0.88
			s0.489,0.97,0.489,1.571c0,0.567-0.166,1.06-0.496,1.478c-0.331,0.418-0.787,0.686-1.369,0.801
			c0.722,0.125,1.268,0.418,1.639,0.88s0.557,1.008,0.557,1.64c0,0.792-0.259,1.457-0.778,1.996s-1.317,0.809-2.395,0.809H4.797z
			 M6.549,12.562h2.256c0.461,0,0.826-0.138,1.094-0.414c0.268-0.275,0.402-0.626,0.402-1.053c0-0.471-0.153-0.818-0.459-1.042
			S9.179,9.719,8.768,9.719H6.549V12.562z M6.549,16.977H8.94c0.506,0,0.906-0.133,1.2-0.398c0.293-0.267,0.44-0.625,0.44-1.076
			c0-0.431-0.149-0.785-0.448-1.06c-0.298-0.276-0.693-0.414-1.184-0.414H6.549V16.977z"/>
	</g>
	<g>
		<path fill="#035B78" d="M29.542,23.197c0,0.709-0.576,1.283-1.283,1.283H15.103c-0.709,0-1.283-0.574-1.283-1.283V10.042
			c0-0.708,0.574-1.283,1.283-1.283h13.156c0.707,0,1.283,0.575,1.283,1.283V23.197z"/>
		<path fill="#FFFFFF" d="M28.259,24.98H15.103c-0.983,0-1.783-0.8-1.783-1.783V10.042c0-0.983,0.8-1.783,1.783-1.783h13.156
			c0.983,0,1.783,0.8,1.783,1.783v13.155C30.042,24.181,29.242,24.98,28.259,24.98z M15.103,9.259c-0.432,0-0.783,0.352-0.783,0.783
			v13.155c0,0.432,0.352,0.783,0.783,0.783h13.156c0.432,0,0.783-0.352,0.783-0.783V10.042c0-0.432-0.352-0.783-0.783-0.783H15.103z
			"/>
	</g>
	<g>
		<path fill="#FFFFFF" d="M17.057,19.326l1.797-0.383c0.215,1.018,1.043,1.525,2.481,1.525c0.657,0,1.162-0.13,1.515-0.391
			c0.354-0.261,0.531-0.584,0.531-0.971c0-0.279-0.08-0.539-0.241-0.777c-0.16-0.238-0.504-0.426-1.03-0.561l-1.963-0.512
			c-0.672-0.176-1.168-0.375-1.488-0.598c-0.321-0.223-0.578-0.537-0.771-0.943s-0.289-0.84-0.289-1.301
			c0-0.917,0.341-1.653,1.022-2.207c0.682-0.554,1.554-0.831,2.617-0.831c0.882,0,1.671,0.193,2.364,0.579
			c0.695,0.386,1.137,0.933,1.328,1.639l-1.76,0.437c-0.271-0.777-0.902-1.166-1.895-1.166c-0.577,0-1.018,0.121-1.32,0.361
			S19.5,13.774,19.5,14.145c0,0.586,0.477,0.998,1.429,1.233l1.745,0.437c1.058,0.266,1.768,0.658,2.128,1.177
			s0.542,1.092,0.542,1.718c0,1.008-0.381,1.802-1.14,2.381c-0.76,0.578-1.743,0.869-2.952,0.869c-1.018,0-1.908-0.213-2.673-0.641
			C17.814,20.893,17.307,20.229,17.057,19.326z"/>
	</g>
</g>
</svg>
