<?xml version="1.0" encoding="utf-8"?>
<!-- Generator: Adobe Illustrator 16.0.0, SVG Export Plug-In . SVG Version: 6.00 Build 0)  -->
<!DOCTYPE svg PUBLIC "-//W3C//DTD SVG 1.1//EN" "http://www.w3.org/Graphics/SVG/1.1/DTD/svg11.dtd">
<svg version="1.1" id="圖層_1" xmlns="http://www.w3.org/2000/svg" xmlns:xlink="http://www.w3.org/1999/xlink" x="0px" y="0px"
	 width="100px" height="100px" viewBox="0 0 100 100" enable-background="new 0 0 100 100" xml:space="preserve">
<g>
	<path fill="#D5D6D5" d="M2.356,80.67c0,0,7.776,6.229,12.808,6.002c2.372,1.355,14.28,2.813,9.396,0.53
		c0.415,0.036,0.236-0.181,0.54-0.199c2.148,0.168,15.318,2.676,15.327-0.373c1.68-1.245,2.547-0.096,2.547-0.096
		s-2.048,4.604-6.592,4.451c-4.792-1.246-6.848-2.387-7.768-2.172c-0.608,0.688-2.001,4.131-11.957-0.084
		C12.861,88.683,4.772,88.729,2.356,80.67z"/>
	<path id="身-上色_21_" fill="#ECD67D" d="M42.614,32.192c0,0-3.242,6.72-3.797,9.458c-0.558,2.738-1.311,10.642,0,13.471
		c1.309,2.831,9.398,9.055,9.149,9.677s-1.991,6.223-1.991,7.093c0,0.872-2.116,12.943,6.223,14.935
		c8.337,1.991,15.183,1.369,16.427,1.369s15.06-1.991,17.174-2.863c2.116-0.87,9.21-5.101,9.21-6.596
		c0-1.493,1.494-12.943-5.725-17.174c0,0,8.462-7.093,8.836-10.578c0.374-3.484,0.622-9.848-4.605-16.809
		c-6.471-5.965-7.592-4.969-14.809-6.712c-7.219-1.743-27.629-1.991-31.362,0C43.609,29.454,42.614,32.192,42.614,32.192z"/>
	<path fill="#BBAC6A" d="M88.479,61.76c1.412-1.147,3.388-1.918,4.482-3.364c2.274-2.999,4.917-6.103,5.558-9.747
		c0.521-2.936-1.039-5.119-2.209-7.81c-1.203-2.767-0.843-5.774-3.287-7.639c-1.5-1.144-2.927,1.669-1.448,2.795l1.231,1.618
		c2.18,2.928,3.402,7.145,2.897,10.26c-0.699,4.292-4.672,8.64-7.598,11.909C88.105,59.782,85.813,62.301,88.479,61.76z"/>
	<path fill="#BBAC6A" d="M87.258,63.506c3.382,2.888,5.306,8.313,4.688,12.899c-0.521,3.872-5.247,5.844-8.614,7.89
		c-0.308,0.267-8.303,2.93-8.326,3.231c-0.086,1.099,9.282-0.201,10.393-1.165c3.44-2.988,9.797-5.648,9.583-10.787
		c-0.225-5.386-1.539-10.621-5.656-14.134C88.236,58.276,85.824,62.279,87.258,63.506L87.258,63.506z"/>
	<path id="頭_59_" fill="#86B02E" d="M94.526,34.175c0-0.622,0.124-1.12,0.124-1.742c0.497-6.098-0.872-11.947-4.107-17.299
		C87.184,9.41,81.831,5.179,75.111,4.059c-2.987-0.498-6.098-0.622-9.085-0.498c-3.111,0.125-6.347,0.498-9.334,1.245
		c-6.845,1.866-12.196,6.472-15.307,12.818c-1.37,2.738-2.365,5.849-2.489,8.96c-0.249,2.365,0.124,4.854,0.498,7.218h11.449
		l2.241-2.904l1.991,3.277h8.297l1.908-3.526l2.156,3.526h11.781l2.573-3.609l1.658,3.609H94.526z"/>
	<path fill="#75942F" d="M71.4,5.256c4.871,0.861,9.115,3.264,12.93,6.421c3.153,2.61,4.493,6.374,5.75,10.118
		c1.321,3.935,0.975,7.505,1.441,11.53c0.426-0.425,0.852-0.851,1.28-1.278c-0.056,0-0.109,0-0.161,0c-1.65,0-1.65,2.558,0,2.558
		c0.052,0,0.105,0,0.161,0c0.635,0,1.356-0.583,1.277-1.279c-0.5-4.302-0.096-8.024-1.535-12.21
		c-1.273-3.711-2.55-6.968-5.119-10.012c-3.671-4.341-9.856-7.341-15.344-8.314C70.469,2.504,69.779,4.969,71.4,5.256L71.4,5.256z"
		/>
	<path fill="#75942F" d="M67.42,4.362c4.684,1.118,8.642,2.693,12.655,5.479c3.759,2.606,6.544,6.332,7.843,10.732
		c0.622,2.115,1.427,4.067,1.619,6.292c0.187,2.155-0.085,4.303,0.165,6.46c0.32-0.318,0.639-0.639,0.96-0.958
		c-0.053,0-0.106,0-0.16,0c-1.235,0-1.235,1.917,0,1.917c0.054,0,0.107,0,0.16,0c0.478,0,1.019-0.438,0.96-0.959
		c-0.251-2.152-0.112-4.297-0.165-6.46c-0.06-2.35-0.97-4.596-1.689-6.801c-1.248-3.814-3.258-7.251-6.253-9.969
		c-4.487-4.066-9.832-5.879-15.592-7.25C66.72,2.558,66.218,4.079,67.42,4.362L67.42,4.362z"/>
	<path fill="#231815" d="M95.521,34.175c0.618-8.653-1.272-16.313-6.702-23.203C83.229,3.88,74.55,2.358,66.026,2.565
		C48.198,2.998,35.705,15.966,38.434,34.066c0.065,0.432,0.557,0.731,0.96,0.731c3.335,0,6.669,0,10.004,0
		c2.568,0,2.956-1.337,4.544-3.397c-0.572,0-1.146,0-1.719,0c0.621,1.022,1.515,3.77,2.99,3.77c2.72,0,5.438,0,8.158,0
		c0.342,0,0.693-0.187,0.859-0.493c0.635-1.175,1.271-2.351,1.908-3.526c-0.574,0-1.147,0-1.721,0
		c0.601,0.979,1.531,3.647,2.754,3.984c1.805,0.496,4.305,0.035,6.155,0.035s4.35,0.461,6.154-0.035
		c1.289-0.354,2.448-3.058,3.168-4.066c-0.572,0-1.146,0-1.721,0c0.555,1.202,1.107,2.406,1.661,3.608
		c0.141,0.31,0.536,0.493,0.858,0.493c3.693,0,7.384,0,11.077,0c1.283,0,1.283-1.99,0-1.99c-2.637,0-5.274,0-7.912,0
		c-1.018,0-2.036,0-3.054,0c1.046,0,0.415-0.232-0.081-1.312c-0.275-0.601-0.553-1.203-0.829-1.805
		c-0.341-0.742-1.331-0.544-1.721,0c-0.336,0.473-0.674,0.947-1.011,1.42c-0.716,1.005-1.878,1.696-0.806,1.696
		c-1.928,0-3.857,0-5.785,0c-1.829,0-3.657,0-5.487,0c-0.522-0.043-0.41,0.057,0.336,0.297c-0.242-0.396-0.486-0.794-0.729-1.191
		c-0.437-0.713-0.873-1.426-1.309-2.14c-0.378-0.617-1.354-0.673-1.721,0c-0.6,1.111-1.2,2.221-1.802,3.332
		c0.302-0.557,0.923-0.297-0.366-0.297c-0.85,0-1.7,0-2.551,0c-1.494,0-2.99,0-4.486,0c0.961,0,0.315-0.172-0.275-1.146
		c-0.333-0.547-0.663-1.093-0.996-1.639c-0.423-0.699-1.272-0.578-1.719,0c-0.553,0.718-1.105,1.434-1.659,2.151
		c-0.795,1.031,0.799,0.26-0.569,0.26c-2.544,0-5.088,0-7.633,0c-0.859,0-1.717,0-2.576,0c-0.264,0,0.313-8.159,0.466-9.054
		c0.857-5.018,3.954-9.638,7.58-13.071c7.689-7.278,22.854-8.084,32.187-4.078c10.588,4.544,14.262,17.072,13.511,27.572
		C93.438,35.458,95.43,35.449,95.521,34.175z"/>
	<path fill="#231815" d="M40.759,33.673c-5.477,8.896-6.678,21.574,2.392,28.621c1.968,1.529,4.326,1.837,3.345,4.434
		c-1.115,2.952-1.928,6.111-2.081,9.268c-0.231,4.771,2.765,10.106,7.36,11.769c5.285,1.909,11.823,2.55,17.394,1.801
		c6.803-0.917,13.745-0.944,19.721-4.686c5.246-3.283,7.697-4.66,7.368-11.173c-0.241-4.792-1.636-10.637-6.387-12.976
		c0.067,0.521,0.135,1.041,0.201,1.563c3.532-3.214,6.89-6.129,8.852-10.729c1.838-4.306,0.729-8.413-1.183-12.334
		c-0.873-1.788-2.516-5.59-4.876-5.804c-3.019-0.272-6.037-0.545-9.056-0.819c-1.278-0.115-1.268,1.877,0,1.992
		c1.745,0.157,3.489,0.316,5.234,0.474c2.558,0.232,3.62-0.101,4.51,1.358c2.895,4.742,6.807,10.699,2.484,16.148
		c-0.91,1.149-1.682,2.366-2.424,3.628c-1.344,2.284-3.126,3.021-4.949,4.68c-0.454,0.413-0.361,1.285,0.201,1.563
		c4.868,2.398,7.151,11.513,5.056,16.265c-0.95,2.154-4.102,3.379-6.038,4.447c-3.468,1.915-6.232,2.905-10.183,3.308
		c-8.972,0.911-23.92,4.265-29.839-4.71c-2.055-3.114-1.491-6.985-0.708-10.361c0.479-2.06,1.8-3.734,2.328-5.656
		c0.544-1.976-1.194-2.577-2.668-3.374c-10.526-5.687-9.842-18.743-4.335-27.689C43.153,33.581,41.43,32.582,40.759,33.673
		L40.759,33.673z"/>
	<g>
		<path fill="#D99457" d="M66.513,46.539l-0.062-0.012c-0.369-0.059-0.666-0.169-1.033-0.23c-0.502-0.018-0.982,0.22-1.39,0.407
			c-1.031,0.526-1.681,1.43-2.22,2.414c-0.445,0.811-0.84,1.692-1.113,2.594c-0.13,0.42-0.199,0.85-0.269,1.279
			c-0.06,0.369-0.201,0.851-0.2,1.229c0.584-0.096,1.094-0.517,1.676-0.611c0.521-0.105,1.095-0.138,1.604-0.183
			c1.096-0.138,2.138-0.348,3.23-0.485c1.022-0.088,2.106-0.164,3.181-0.18c0.88,0.016,1.83-0.019,2.682,0.181
			c0.365-0.696-0.028-1.77-0.299-2.443c-0.414-0.948-1.184-1.641-1.964-2.271c-0.729-0.56-1.375-0.853-2.215-1.115
			c-0.359-0.12-0.646-0.293-0.996-0.475c-0.297-0.112-0.664-0.171-1.033-0.23l0.061,0.009"/>
		<path fill="#231815" d="M66.777,45.579c-5.004-0.888-7.031,4.488-7.545,8.642c-0.08,0.639,0.694,1.14,1.26,0.96
			c3.613-1.151,8.039-1.851,11.844-1.277c0.525,0.078,1.082-0.124,1.225-0.697c1.021-4.102-3.737-7.15-7.203-7.758
			c-0.177,0.64-0.354,1.279-0.53,1.92c0.021,0.002,0.042,0.006,0.063,0.01c1.255,0.195,1.795-1.723,0.53-1.921
			c-0.022-0.003-0.042-0.006-0.063-0.009c-1.25-0.196-1.802,1.696-0.53,1.92c2.272,0.398,6.542,2.385,5.813,5.311
			c0.407-0.231,0.817-0.465,1.224-0.695c-4.185-0.632-8.912,0.006-12.901,1.277c0.421,0.32,0.84,0.64,1.261,0.96
			c0.325-2.628,1.603-7.329,5.024-6.721C67.503,47.722,68.039,45.802,66.777,45.579L66.777,45.579z"/>
	</g>
	<g>
		<path fill="#C4854F" d="M62.397,54.444c0.737,0.12,1.354,0.598,1.99,0.952c0.852,0.58,1.865,0.933,2.939,0.917
			c1.063,0.046,1.901-0.449,2.86-0.925c0.491-0.299,0.969-0.535,1.183-1.069c0.12-0.357,0.241-0.717,0.238-1.096
			c-0.063-0.009-0.122-0.02-0.122-0.02c0.01-0.061,0.01-0.061,0.019-0.122"/>
		<path fill="#231815" d="M62.133,55.406c1.132,0.316,1.974,1.173,3.084,1.528c1.204,0.386,2.332,0.462,3.564,0.171
			c2.095-0.494,3.545-1.779,3.824-3.882c0.052-0.396-0.34-0.896-0.731-0.96c-0.042-0.007-0.083-0.013-0.124-0.019
			c0.232,0.408,0.465,0.817,0.696,1.224c0.006-0.041,0.014-0.081,0.02-0.122c0.2-1.256-1.72-1.795-1.921-0.528
			c-0.006,0.039-0.013,0.081-0.019,0.122c-0.077,0.485,0.118,1.132,0.696,1.225c0.04,0.006,0.08,0.013,0.121,0.019
			c-0.244-0.32-0.488-0.64-0.73-0.96c-0.301,2.26-3.757,2.291-5.194,1.633c-0.959-0.438-1.723-1.081-2.757-1.371
			C61.423,53.138,60.897,55.06,62.133,55.406L62.133,55.406z"/>
	</g>
	<path fill="#E4937B" d="M45.56,48.261c0,0,9.583,2.117,13.067,0c0,0-2.24,1.619-4.355,2.614
		C52.901,51.123,48.796,49.879,45.56,48.261z"/>
	<path fill="#E4937B" d="M87.406,46.939c0,0-9.582,2.115-13.065,0c0,0,2.239,1.618,4.354,2.613
		C80.063,49.801,84.172,48.557,87.406,46.939z"/>
	<path fill="#231815" d="M60.161,90.932c1.284,0,1.284-1.991,0-1.991C58.878,88.94,58.878,90.932,60.161,90.932L60.161,90.932z"/>
	<path fill="#231815" d="M61.121,90.201c0.009-0.032,0.018-0.066,0.026-0.098c-0.086,0.146-0.171,0.292-0.256,0.439
		c0.179-0.21,0.324-0.398,0.397-0.674c-0.652-0.088-1.304-0.177-1.955-0.265c-0.001,0.604-0.111,1.155-0.179,1.749
		c-0.019,0.171-0.04,0.344-0.06,0.515c-0.003,0.023-0.046,0.354-0.013,0.113c-0.021,0.146-0.111,0.33,0.058-0.011
		c0.606,0.079,1.214,0.16,1.819,0.237c0.012,0.074,0.021,0.146,0.032,0.218c-0.043-1.28-2.034-1.284-1.991,0
		c0.004,0.105,0.01,0.212,0.04,0.313c0.231,0.78,1.418,1.039,1.82,0.237c0.222-0.445,0.214-0.998,0.27-1.484
		c0.031-0.274,0.048-0.191,0.101-0.521c0.073-0.453,0.092-0.906,0.094-1.367c0.001-1.124-1.667-1.356-1.956-0.265
		c-0.01,0.034-0.019,0.066-0.027,0.099c0.087-0.146,0.171-0.294,0.257-0.439c-0.179,0.211-0.324,0.4-0.398,0.673
		C58.872,90.914,60.792,91.441,61.121,90.201L61.121,90.201z"/>
	<path fill="#231815" d="M56.682,94.944c2.213-1.351,5.359-0.755,7.457,0.497c0.65,0.39,1.499-0.108,1.499-0.858
		c0-0.056,0-0.111,0-0.166c0-1.284-1.991-1.284-1.991,0c0,0.055,0,0.11,0,0.166c0.5-0.287,0.998-0.572,1.498-0.859
		c-2.71-1.618-6.646-2.221-9.468-0.497C54.582,93.893,55.582,95.616,56.682,94.944L56.682,94.944z"/>
	<path fill="#231815" d="M79.215,88.448c0.482,0.994,0.8,2.061,1.227,3.079c0.188,0.447,0.679,0.927,1.225,0.697
		c0.614-0.26,0.872-0.626,0.896-1.293c0.049-1.283-1.941-1.279-1.991,0c-0.004,0.007-0.009,0.013-0.014,0.019
		c0.232-0.232,0.464-0.464,0.696-0.695c-0.039,0.016-0.078,0.032-0.116,0.05c0.408,0.231,0.816,0.463,1.224,0.694
		c-0.495-1.178-0.869-2.404-1.428-3.557C80.374,86.287,78.657,87.298,79.215,88.448L79.215,88.448z"/>
	<path fill="#231815" d="M78.786,93.794c0.728-0.814,2.601-1.334,3.611-1.368c1.027-0.036,2.433-0.078,3.36,0.506
		c0-0.573,0-1.146,0-1.719c-0.016,0.007-0.03,0.014-0.046,0.022c-1.157,0.555-0.147,2.27,1.006,1.718
		c0.015-0.006,0.03-0.013,0.044-0.021c0.707-0.339,0.586-1.349,0-1.719c-1.35-0.85-3.281-0.815-4.791-0.764
		c-1.425,0.049-3.624,0.853-4.592,1.937C76.526,93.341,77.93,94.754,78.786,93.794L78.786,93.794z"/>
	<path fill="#231815" d="M48.712,41.54c1.971,0.02,3.938,0.151,5.91,0.162c1.241,0.007,3.582,0.3,4.408-0.904
		c0.728-1.063-0.999-2.057-1.721-1.005c0.296-0.43,0.443-0.288-0.031-0.191c-0.375,0.076-0.78,0.07-1.162,0.087
		c-0.902,0.041-1.809,0.024-2.711,0.009c-1.565-0.026-3.128-0.133-4.693-0.149C47.427,39.535,47.429,41.527,48.712,41.54
		L48.712,41.54z"/>
	<path fill="#231815" d="M84.793,39.441c-1.426,0.05-2.852,0.174-4.277,0.244c-0.922,0.046-1.845,0.074-2.769,0.08
		c-0.429,0.002-0.858-0.013-1.287-0.04c-0.541-0.032-0.637-0.32-0.268,0.191c-0.742-1.031-2.472-0.039-1.72,1.005
		c0.868,1.204,3.149,0.847,4.417,0.818c1.972-0.045,3.935-0.237,5.903-0.307C86.073,41.388,86.077,39.396,84.793,39.441
		L84.793,39.441z"/>
	<g>
		<path fill="#FFFFFF" d="M8.443,61.429c0,0-2.969,3.893-2.385,5.99c0.789,2.14,1.354,1.823,2.088,1.823
			c0.733,0,1.231-0.827,1.48-2.019C9.875,66.033,12.32,61.222,8.443,61.429z"/>
		<path fill="#FFFFFF" d="M2.275,63.46c0,0-1.983-0.164-1.196,2.573c0.789,2.738,2.272,6.178,3.148,5.162
			c0.876-1.015,1.996-1.389,1.996-1.389S3.522,63.687,2.275,63.46z"/>
		<path fill="#FFFFFF" d="M15.517,72.339c0,0-3.213-3.698-6.638-3.097c-1.867,0.151-4.537,0.611-5.482,3.428
			c-1.072,2.033-2.333,3.672-1.404,7.438c1.079,2.975,4.447,9.597,14.98,8.442C15.291,87.038,8.796,80.346,15.517,72.339z"/>
		<path fill="#FFFFFF" d="M22.07,71.343c0,0-8.047-6.035-8.628,10.278c0.083,2.499,0.854,5.378,4.016,7.236
			c2.29,1.485,7.02,3.616,11.354,0c-1.349-0.423-11.221-3.367-9.064-11.706C20.951,73.376,22.07,71.343,22.07,71.343z"/>
		<path fill="#FFFFFF" d="M28.614,69.33c0,0-10.244-1.846-8.784,11.34c2.054,4.403,4.635,9.302,17.158,10.306
			c2.629-0.489,6.419-2.762,6.453-5.234c-3.078-1.353-4.823-1.602-4.823-1.602c-1.116,0.623-6.779,2.207-10.885-3.47
			C26.613,77.855,25.763,72.317,28.614,69.33z"/>
		<path fill="#D5D6D5" d="M25.817,78.652c0,0,3.08,7.19,8.253,7.999c3.806,0.188,7.419,2.511,7.884,2.032
			c0.464-0.478-1.286-3.947-1.963-3.962c-0.677-0.015-2.8,0.063-3.36,0.25C36.071,85.158,34.23,87.827,25.817,78.652z"/>
		<path fill="#D5D6D5" d="M20.134,82.589c0,0,0.448,6.436,5.393,7.645c1.086-0.284,2.953-1.279,2.207-1.716
			C25.68,87.833,20.812,84.252,20.134,82.589z"/>
		<path fill="#D5D6D5" d="M12.906,81.621c0,0,0.057,6.807,1.693,7.063c2.059,0.046,2.374-0.229,2.374-0.229
			S13.138,84.764,12.906,81.621z"/>
		<g>
			<path fill="#231815" d="M39.328,82.834c0,0-2.044,2.076,0.808,3.415c2.641,1.002,3.579,1.22,5.519,0.622
				c1.941-0.598,2.63-0.637,2.835-1.517c0.206-0.881,1.493-2.796-1.954-3.454C43.089,81.243,40.07,81.824,39.328,82.834z"/>
			<path fill="#FFFFFF" d="M35.458,61.189c0,0-14.356,9.887-7.253,20.794c2.786,1.718,4.583,2.799,5.266,3.013
				c0.771,0.211,3.15,0.479,4.982-1.022c1.928-1.412,3.813-2.419,6.671-1.53c2.879,0.822,5.377,1.951,6.623,2.597
				c1.351-0.27,2.467-1.628,3.318-1.795c0.852-0.162,5.876-1.965,4.372-7.903c-1.505-5.937-4.326-15.381-16.188-16.942
				C40.86,58.148,35.837,60.913,35.458,61.189z"/>
			<path fill="#D5D6D5" d="M51.321,62.13c0,0,10.493,14.813,3.75,20.4c0,0,6.634-2.395,4.054-8.914
				C57.238,68.551,55.242,63.31,51.321,62.13z"/>
			<path fill="#231815" d="M31.303,83.168c-6.412-3.122-4.563-10.28-1.536-15.301c2.769-4.588,7.899-8.401,13.331-8.718
				c5.672-0.326,10.615,4.83,13.339,9.231c1.629,2.634,2.33,5.754,2.611,8.802c0.316,3.432-2.299,4.858-5.026,5.779
				c-0.75,0.252-0.427,1.443,0.327,1.188c2.67-0.9,4.204-1.324,5.393-4.03c1.267-2.883,0.164-6.562-0.818-9.372
				c-2.187-6.25-8.199-12.009-14.881-12.803c-11.369-1.353-26.641,19.82-13.362,26.287C31.391,84.579,32.017,83.517,31.303,83.168
				L31.303,83.168z"/>
			<path fill="#231815" d="M37.162,84.298c-0.944,0.138-1.815,0.216-2.763,0.205c-2.951-0.034-3.412-3.268-2.363-5.446
				c1.137-2.358,3.506-4.218,5.693-5.51c5.698-3.366,11.694-0.71,15.335,4.11c0.568,0.753,0.703,1.783,0.939,2.67
				c0.667,2.498-2.005,4.556-4.193,2.999c-1.42-1.009-3.412-1.431-5.091-1.674c-1.602-0.231-3.308-0.146-4.813,0.459
				c-1.144,0.459-1.869,1.604-2.892,2.248c-0.671,0.422-0.052,1.49,0.622,1.065c1.184-0.748,1.966-1.871,3.328-2.418
				c2.108-0.848,4.948,0.03,6.964,0.758c1.573,0.565,4,3.183,5.809,1.314c4.454-4.598-1.078-11.27-5.499-13.275
				c-6.267-2.846-13.14,0.697-16.819,5.887c-1.179,1.662-2.112,4.531-0.596,6.304c1.754,2.054,4.197,1.855,6.666,1.492
				C38.273,85.371,37.939,84.182,37.162,84.298z"/>
			<path fill="#231815" d="M38.126,85.037c0.46,2.089,4.061,2.926,5.834,2.868c1.807-0.059,5.738-1.233,5.329-3.594
				c-0.135-0.783-1.323-0.451-1.188,0.327c0.248,1.437-3.969,2.028-4.738,2.054c-0.973,0.031-3.791-0.812-4.049-1.985
				C39.143,83.931,37.955,84.26,38.126,85.037L38.126,85.037z"/>
		</g>
		<path fill="#231815" d="M34.345,71.074c-0.476-0.763-0.187-1.767-0.194-2.649c0.057-0.474-0.005-1.005,0.286-1.478
			c0.292-0.415,0.881-0.595,1.352-0.597c1.061-0.065,2.303,0.456,3.132,1.04c0.415,0.352,0.771,0.82,0.598,1.354
			c-0.23,0.65-0.936,1.007-1.524,1.306c-1.117,0.537-2.294,0.959-3.532,1.083c0.059,0,0.119-0.059,0.177-0.059"/>
		<path fill="#231815" d="M46.124,69.008c0.052-1.238,0.874-1.774,1.992-2.192c0.823-0.301,2.058-0.898,2.887-0.313
			c0.887,0.524,0.662,2.236,0.431,3.063c-0.345,1.3-1.525,1.188-2.53,0.723c-0.59-0.231-1.123-0.464-1.713-0.696
			c-0.354-0.114-0.71-0.23-1.007-0.525"/>
		<path fill="#231815" d="M27.391,68.602c-4.076-0.445-6.613,2.567-7.882,6.068c-1.609,4.437-0.36,8.518,2.998,11.664
			c1.589,1.49,3.539,2.315,5.5,3.167c2.207,0.958,5.04,1.716,7.388,2.193c3.08,0.625,6.875-1.638,8-4.438
			c0.298-0.738-0.895-1.056-1.188-0.327c-1.526,3.789-6.197,3.902-9.389,2.709c-2.777-1.04-5.523-1.511-8.09-3.135
			c-3.494-2.211-5.142-5.72-4.487-9.766c0.588-3.639,3.031-7.354,7.149-6.904C28.181,69.92,28.172,68.688,27.391,68.602
			L27.391,68.602z"/>
		<path fill="#231815" d="M21.846,70.534c-6.889-3.193-10,6.563-9.195,11.735c1.109,7.118,9.336,11.53,15.667,7.821
			c0.529-0.31,0.303-1.149-0.313-1.149c-0.05,0-0.102,0-0.153,0c-0.795,0-0.795,1.233,0,1.233c0.052,0,0.104,0,0.153,0
			c-0.103-0.384-0.207-0.765-0.311-1.147c-4.426,2.592-9.929,0.65-12.717-3.479c-2.604-3.855-0.93-17.276,6.246-13.949
			C21.939,71.931,22.567,70.868,21.846,70.534L21.846,70.534z"/>
		<path fill="#231815" d="M14.766,72.229c0,0.051,0,0.104,0,0.153c0.204-0.205,0.41-0.411,0.615-0.615
			c0.019,0-1.881-1.753-1.925-1.783c-0.832-0.582-1.61-0.987-2.544-1.36c-1.38-0.553-3.037-0.257-4.382,0.204
			c-3.208,1.098-5.02,4.885-5.533,7.972c-1.333,8.006,8.526,13.417,15.299,12.606c0.779-0.094,0.789-1.328,0-1.233
			c-6.235,0.746-13.86-3.423-14.148-10.279c-0.142-3.387,2.281-7.046,5.456-8.132c2.132-0.729,5.046,0.985,6.582,2.356
			C14.716,72.59,14.712,73,15.381,73c0.337,0,0.617-0.282,0.617-0.618c0-0.05,0-0.103,0-0.153
			C15.998,71.434,14.766,71.434,14.766,72.229L14.766,72.229z"/>
		<path fill="#231815" d="M40.952,89.405c0.003,1.511,0.287,4.201-1.482,4.891c-1.706,0.664-1.297-2.13-0.759-2.886
			c0.461-0.649-0.609-1.264-1.065-0.621c-0.957,1.344-1.1,4.679,1.171,4.823c3.288,0.206,3.375-3.959,3.368-6.207
			C42.183,88.61,40.95,88.61,40.952,89.405L40.952,89.405z"/>
		<path fill="#231815" d="M33.092,91.87c0.052,0,0.103,0,0.154,0c-0.198-0.151-0.396-0.302-0.594-0.453
			c0.083,0.611-0.195,1.359-0.451,1.899c-0.441,0.924-1.062,0.508-1.437-0.23c-0.674-1.327,0.036-2.905-0.935-4.116
			c-0.497-0.622-1.363,0.256-0.871,0.87c0.405,0.508,0.217,1.474,0.25,2.078c0.028,0.493,0.168,0.976,0.339,1.432
			c0.297,0.795,0.933,1.747,1.879,1.783c1.883,0.071,2.618-2.528,2.414-4.043c-0.035-0.267-0.347-0.451-0.594-0.451
			c-0.051,0-0.102,0-0.154,0C32.297,90.639,32.297,91.87,33.092,91.87L33.092,91.87z"/>
		<path fill="#231815" d="M23.693,91.1c-0.015,0.704-0.168,1.396-0.648,1.934c-0.24,0.271-1.035,0.835-1.327,0.398
			c-0.518-0.771-0.34-2.066-0.336-2.949c0.003-0.796-1.23-0.795-1.232,0c-0.005,1.289-0.222,3.629,1.263,4.236
			c0.86,0.35,1.898-0.226,2.505-0.814c0.738-0.714,0.988-1.814,1.01-2.805C24.941,90.305,23.708,90.306,23.693,91.1L23.693,91.1z"/>
		<path fill="#231815" d="M11.295,88.63c-0.015,0.705-0.168,1.396-0.649,1.934c-0.239,0.271-1.034,0.836-1.326,0.398
			c-0.518-0.771-0.34-2.066-0.337-2.947c0.003-0.796-1.23-0.796-1.233,0c-0.005,1.288-0.222,3.628,1.264,4.234
			c0.86,0.35,1.898-0.226,2.504-0.813c0.738-0.716,0.988-1.815,1.009-2.806C12.542,87.835,11.31,87.837,11.295,88.63L11.295,88.63z"
			/>
		<path fill="#231815" d="M12.906,89.56c0.011,1.844,0.62,5.271,3.252,4.61c1.904-0.477,1.795-3.162,2.283-4.686
			c0.244-0.759-0.947-1.081-1.188-0.325c-0.417,1.294-0.131,2.514-1.067,3.566c-0.588,0.66-1.31,0.024-1.627-0.569
			c-0.408-0.76-0.416-1.756-0.421-2.597C14.133,88.764,12.901,88.764,12.906,89.56L12.906,89.56z"/>
		<path fill="#231815" d="M3.066,70.748c-0.009,0.041-0.018,0.081-0.026,0.12c0.301-0.122,0.603-0.245,0.906-0.369
			c-0.791-0.35-1.404-1.762-1.788-2.49C1.671,67.08,1.151,65.78,1.382,64.71c0.308-1.432,1.631-0.026,1.855,0.3
			c0.258,0.375,0.435,0.815,0.616,1.231c0.528,1.203,1.095,2.391,1.601,3.602c0.3,0.724,1.494,0.405,1.188-0.328
			c-0.585-1.399-2.908-8.807-5.81-6.114c-1.056,0.981-0.76,2.39-0.395,3.625c0.409,1.389,1.452,3.902,2.884,4.539
			c0.341,0.151,0.816,0.056,0.906-0.369c0.009-0.038,0.017-0.079,0.025-0.118C4.419,70.301,3.231,69.972,3.066,70.748L3.066,70.748z
			"/>
		<path fill="#231815" d="M5.866,67.996c-0.033,0.024-0.063,0.05-0.095,0.075c0.322,0.043,0.645,0.085,0.968,0.125
			c-0.347-0.671,0.064-2.242,0.192-2.896c0.1-0.517,0.273-1.014,0.447-1.509c0.12-0.35,0.275-0.683,0.464-0.997
			c0.37-0.78,0.973-0.777,1.805,0.01c0.223,0.7-0.151,1.646-0.339,2.325c-0.339,1.219-0.615,2.453-0.965,3.669
			c-0.22,0.766,0.97,1.091,1.188,0.329c0.537-1.865,1.242-3.879,1.385-5.824c0.102-1.395-0.854-2.38-2.188-2.504
			c-1.543-0.145-2.329,2.066-2.71,3.155c-0.444,1.269-1.005,3.583-0.342,4.865c0.198,0.383,0.678,0.361,0.969,0.125
			c0.032-0.026,0.063-0.052,0.095-0.078C7.354,68.366,6.477,67.498,5.866,67.996L5.866,67.996z"/>
		<path fill="#231815" d="M2.664,65.188c-0.026,0-0.052,0-0.077,0c0.089,0.154,0.177,0.309,0.266,0.463
			c0.602-0.893,2.153-1.371,3.143-1.398c0.73-0.02,1.441,0.088,2.168,0.088c0.397,0,0.397-0.615,0-0.615c-0.009,0-0.02,0-0.028,0
			c-0.398,0-0.398,0.615,0,0.615c0.008,0,0.019,0,0.028,0c0.397,0,0.397-0.615,0-0.615c-2.012,0-4.515-0.355-5.842,1.616
			c-0.134,0.197,0.043,0.463,0.266,0.463c0.025,0,0.051,0,0.077,0C3.062,65.805,3.062,65.188,2.664,65.188L2.664,65.188z"/>
		<path fill="#231815" d="M2.896,66.036c-0.026,0-0.051,0-0.078,0c0.052,0.19,0.103,0.382,0.155,0.574
			c1.635-0.944,3.235-1.471,5.079-0.816c0.191,0.067,0.39-0.108,0.39-0.297c0-0.026,0-0.053,0-0.077c0-0.397-0.617-0.397-0.617,0
			c0,0.024,0,0.051,0,0.077c0.13-0.101,0.26-0.198,0.391-0.298c-1.998-0.708-3.783-0.145-5.554,0.879
			c-0.267,0.153-0.151,0.575,0.155,0.575c0.026,0,0.051,0,0.078,0C3.292,66.653,3.292,66.036,2.896,66.036L2.896,66.036z"/>
	</g>
	<path fill="#231815" d="M53.488,44.539c-0.081,0.13-0.188,0.224-0.32,0.283c-0.006,0.002,0.297-0.047,0.165-0.033
		c0.215-0.023,0.433-0.023,0.648-0.026c0.338-0.003,0.676,0.017,1.011,0.02c0-0.663,0-1.327,0-1.991
		c-0.665,0.042-1.223,0.464-1.865,0.498c-1.274,0.069-1.292,1.992,0,1.991c1.007,0,2.14-0.023,2.991-0.634
		c1.033-0.74,0.04-2.468-1.006-1.719c-0.568,0.408-1.317,0.362-1.985,0.362c0,0.664,0,1.328,0,1.991
		c0.382-0.021,0.737-0.086,1.095-0.223c0.244-0.092,0.507-0.257,0.771-0.275c1.271-0.081,1.294-1.977,0-1.991
		c-0.972-0.011-2.654-0.286-3.224,0.742C51.146,44.658,52.865,45.662,53.488,44.539L53.488,44.539z"/>
	<path fill="#231815" d="M77.881,44.23c0.046-0.022,0.091-0.044,0.137-0.068c-0.168,0.045-0.335,0.09-0.502,0.136
		c0.696-0.073,1.439-0.063,2.135,0.03c0-0.664,0-1.328,0-1.992c-0.75-0.091-1.504,0.007-2.254-0.083
		c-0.434-0.053-0.854,0.343-0.96,0.731c-0.147,0.537,0.177,1.063,0.696,1.225c0.805,0.251,1.563,0.328,2.393,0.151
		c1.255-0.269,0.724-2.188-0.529-1.921c-0.472,0.101-0.883-0.01-1.335-0.15c-0.089,0.652-0.177,1.304-0.265,1.955
		c0.75,0.091,1.504-0.007,2.254,0.084c0.54,0.065,0.995-0.503,0.995-0.996c0-0.597-0.457-0.924-0.995-0.996
		c-0.841-0.112-2.003-0.211-2.773,0.175C75.729,43.086,76.736,44.804,77.881,44.23L77.881,44.23z"/>
	<path fill="#BBAC6A" d="M76.207,70.004c0,0-1.246,0.664-1.453,1.769c-0.207,1.105-0.166,4.133,0,5.005
		c0.166,0.87,0.425,2.155,1.687,2.488c1.26,0.333,3.001-0.581,3.374-0.372c0.375,0.207,2.324,0.041,3.236-1.079
		c0.913-1.12-3.483,0.248-3.567-1.369c-0.954,0.416-1.443,1.458-1.95,1.078C77.027,77.146,77.133,69.252,76.207,70.004z"/>
	<path fill="#231815" d="M77.768,70.337c0-0.109,0-0.221,0-0.333c-0.651,0.089-1.304,0.178-1.956,0.267
		c0.179,1.313-0.29,2.729-0.367,4.049c-0.072,1.205,0.559,2.459,0.663,3.65c0.049,0.573,0.417,0.953,0.995,0.996
		c1.544,0.113,2.652-0.929,3.69-1.951c-0.555-0.146-1.11-0.292-1.663-0.439c0.198,0.811,0.609,2.555,1.816,2.465
		c1.138-0.086,1.713-0.975,2.632-1.536c-0.401-0.054-0.803-0.105-1.206-0.158c2.674,2.515,4.609-0.279,6.851-1.835
		c1.046-0.726,0.052-2.453-1.007-1.719c-1.166,0.809-3.015,3.482-4.436,2.146c-0.323-0.302-0.817-0.394-1.206-0.155
		c-0.324,0.199-0.595,0.403-0.893,0.638c-0.92,0.727-0.35,0.773-0.633-0.376c-0.181-0.736-1.142-0.951-1.664-0.438
		c-0.597,0.588-1.326,1.438-2.282,1.368c0.332,0.333,0.664,0.663,0.996,0.995c-0.148-1.692-0.793-3.23-0.54-4.946
		c0.173-1.16,0.332-2.115,0.174-3.283c-0.154-1.135-1.956-0.826-1.956,0.264c0,0.112,0,0.224,0,0.333
		C75.776,71.622,77.768,71.622,77.768,70.337L77.768,70.337z"/>
	<g>
		<path fill="#231815" d="M12.481,28.952c2.803,0,2.803-4.345,0-4.345C9.679,24.607,9.679,28.952,12.481,28.952L12.481,28.952z"/>
	</g>
	<g>
		<path fill="#FFFFFF" d="M12.481,29.572c-1.787,0-2.722-1.405-2.722-2.792c0-0.718,0.24-1.392,0.675-1.899
			c0.503-0.585,1.211-0.895,2.046-0.895c1.787,0,2.722,1.405,2.722,2.793c0,0.717-0.24,1.391-0.675,1.897
			C14.025,29.263,13.317,29.572,12.481,29.572z"/>
		<path fill="#231815" d="M12.481,28.952c2.803,0,2.803-4.345,0-4.345C9.679,24.607,9.679,28.952,12.481,28.952L12.481,28.952z"/>
	</g>
	<g>
		<path fill="#231815" d="M20.571,28.952c2.802,0,2.802-4.345,0-4.345C17.769,24.607,17.769,28.952,20.571,28.952L20.571,28.952z"/>
	</g>
	<g>
		<path fill="#FFFFFF" d="M20.571,29.572c-1.787,0-2.722-1.405-2.722-2.792c0-0.718,0.24-1.392,0.675-1.899
			c0.504-0.585,1.211-0.895,2.047-0.895c1.788,0,2.722,1.405,2.722,2.793c0,0.717-0.24,1.391-0.675,1.897
			C22.114,29.263,21.407,29.572,20.571,29.572z"/>
		<path fill="#231815" d="M20.571,28.952c2.802,0,2.802-4.345,0-4.345C17.769,24.607,17.769,28.952,20.571,28.952L20.571,28.952z"/>
	</g>
	<g>
		<path fill="#231815" d="M28.66,28.952c2.802,0,2.802-4.345,0-4.345C25.858,24.607,25.858,28.952,28.66,28.952L28.66,28.952z"/>
	</g>
	<g>
		<path fill="#FFFFFF" d="M28.66,29.572c-1.787,0-2.722-1.405-2.722-2.792c0-0.718,0.24-1.392,0.676-1.899
			c0.502-0.585,1.21-0.895,2.046-0.895c1.787,0,2.722,1.405,2.722,2.793c0,0.717-0.24,1.391-0.675,1.897
			C30.203,29.263,29.496,29.572,28.66,29.572z"/>
		<path fill="#231815" d="M28.66,28.952c2.802,0,2.802-4.345,0-4.345C25.858,24.607,25.858,28.952,28.66,28.952L28.66,28.952z"/>
	</g>
	<path fill="#231815" d="M8.634,87.473c0,0-0.983,3.96,0.951,3.962c1.742-0.513,2.53-2.006,2.364-2.876
		C11.783,87.687,8.634,87.473,8.634,87.473z"/>
	<path fill="#231815" d="M21.121,90.233c0,0-0.983,3.96,0.951,3.961c1.742-0.511,2.53-2.004,2.365-2.875
		C24.271,90.448,21.121,90.233,21.121,90.233z"/>
	<path fill="#231815" d="M30.284,89.842c0,0-0.983,4.74,0.951,4.743c1.742-0.612,2.531-2.399,2.365-3.442
		C33.434,90.102,30.284,89.842,30.284,89.842z"/>
	<path fill="#231815" d="M38.619,90.456c0,0-1.243,4.269,0.691,4.271c1.743-0.612,2.553-3.291,2.387-4.333
		C41.53,89.352,38.619,90.456,38.619,90.456z"/>
	<path fill="#231815" d="M13.909,88.918c0,0,0.027,5.079,1.924,4.698c1.579-0.978,1.978-2.977,1.597-4.019
		C17.05,88.558,13.909,88.918,13.909,88.918z"/>
</g>
</svg>
