<?xml version="1.0" encoding="utf-8"?>
<!-- Generator: Adobe Illustrator 16.0.0, SVG Export Plug-In . SVG Version: 6.00 Build 0)  -->
<!DOCTYPE svg PUBLIC "-//W3C//DTD SVG 1.1//EN" "http://www.w3.org/Graphics/SVG/1.1/DTD/svg11.dtd">
<svg version="1.1" id="圖層_1" xmlns="http://www.w3.org/2000/svg" xmlns:xlink="http://www.w3.org/1999/xlink" x="0px" y="0px"
	 width="100px" height="100px" viewBox="0 0 100 100" enable-background="new 0 0 100 100" xml:space="preserve">
<g>
	<g>
		<path fill="#A8D5DB" d="M0.917,82.618c0.865-3.086,12.102-11.492,15.066-11.74c2.593-0.244,5.186-0.492,7.779-0.615
			c5.558-0.123,10.743-0.369,16.177-1.48c5.433-0.99,10.374-0.99,16.054-1.113c7.904-0.369,16.054-0.988,23.834,0.617
			c5.063,0.988,12.868,9.334,16.943,12.668"/>
		<path fill="#231815" d="M1.631,82.813c0.876-2.354,3.675-4.291,5.545-5.814c2.457-2.002,5.272-4.143,8.278-5.242
			c3.967-1.447,9.584-0.742,13.764-0.945c5.419-0.26,10.654-1.471,16.036-1.988c4.957-0.479,9.972-0.375,14.944-0.619
			c6.038-0.293,12.064-0.406,18.056,0.537c7.285,1.145,12.618,8.24,17.994,12.736c0.728,0.609,1.781-0.434,1.048-1.047
			c-5.68-4.752-11.027-11.676-18.648-13.119c-5.591-1.059-11.384-0.885-17.042-0.654c-6.319,0.26-12.698,0.221-18.983,0.965
			c-5.871,0.697-11.542,1.684-17.477,1.867c-3.803,0.115-8.207-0.156-11.712,1.537c-2.88,1.393-5.491,3.447-7.96,5.459
			c-1.941,1.582-4.365,3.504-5.271,5.936C-0.131,83.319,1.302,83.704,1.631,82.813L1.631,82.813z"/>
	</g>
	<g>
		<g>
			<path fill="#ECD67D" d="M78.814,70.653l0.057-0.166c1.893-2.305,4.008-4.445,5.792-6.974c1.729-2.64,3.732-4.726,5.955-6.919
				c0.557-0.549,1.165-0.988,1.611-1.479c0.499-0.384,1.111-0.821,1.556-1.317c0.707,1.442,1.192,3.267,2.123,4.601
				c0.93,1.33,2.635,2.559,3.119,4.105c-0.22,0.109-1.051,0.381-1.384,0.543c-0.887,0.438-1.716,0.707-2.604,1.145
				c-1.329,0.652-2.771,1.361-4.264,1.959c-1.387,0.543-2.938,1.303-4.323,2.125c-0.776,0.381-1.443,0.984-2.274,1.531
				c-0.609,0.438-1.442,0.709-2.107,1.311c-0.722,0.492-1.443,0.984-2.222,1.641c-0.389,0.33-1.276,1.041-1.497,1.15"/>
		</g>
		<path fill="#BBAC6A" d="M90.894,57.05c0.754-2.235-1.446,2.307-7.457,7.263c-1.597,1.434-0.73,3.452-0.736,3.731
			c-0.007,0.646-0.117,3.049,1.133,2.369c1.246-0.684,4.858-2.641,5.616-3.336c0.76-0.695,2.927-1.881,2.927-1.881
			S90.149,62.792,90.894,57.05z"/>
		<path fill="#231815" d="M79.53,70.851c0.429-1.238,2.363-2.738,3.225-3.732c1.195-1.379,2.271-2.828,3.306-4.33
			c2.263-3.283,5.355-5.788,8.247-8.466c-0.386-0.05-0.774-0.1-1.162-0.149c0.697,1.566,1.242,3.127,2.123,4.601
			c0.898,1.501,2.354,2.482,3.119,4.105c0.148-0.363,0.295-0.727,0.442-1.089c-3.956,1.539-7.914,3.302-11.687,5.244
			c-3.309,1.707-6.116,4.146-9.165,6.236c-0.783,0.535-0.043,1.82,0.747,1.279c2.723-1.863,5.255-3.947,8.102-5.633
			c3.804-2.258,8.27-4.093,12.397-5.697c0.471-0.184,0.661-0.625,0.442-1.09c-0.651-1.379-1.571-2.352-2.601-3.465
			c-1.337-1.448-1.854-3.474-2.642-5.241c-0.203-0.455-0.846-0.445-1.164-0.149c-2.677,2.479-5.467,4.789-7.69,7.723
			c-1.547,2.045-3.027,4.109-4.71,6.051c-0.873,1.006-2.315,2.127-2.759,3.41C77.786,71.362,79.22,71.747,79.53,70.851L79.53,70.851
			z"/>
		<path fill="#231815" d="M89.771,60.935c-0.411,0.592-1.497,0.965-2.051,1.513c-0.955,0.944-1.972,1.813-2.892,2.796
			c-1.639,1.75-3.389,3.557-4.846,5.455c-0.29,0.379,0.354,0.75,0.641,0.375c1.551-2.021,3.444-3.934,5.187-5.796
			c0.764-0.813,1.614-1.55,2.435-2.307c0.695-0.642,1.639-0.905,2.165-1.662C90.684,60.915,90.042,60.544,89.771,60.935
			L89.771,60.935z"/>
		<path fill="#231815" d="M89.828,63.728c-1.665,0.857-3.197,1.922-4.604,3.16c-0.764,0.67-1.602,1.244-2.353,1.932
			c-0.749,0.689-1.434,1.563-2.223,2.195c-0.373,0.297,0.154,0.818,0.523,0.523c1.263-1.01,2.297-2.33,3.598-3.352
			c1.767-1.387,3.426-2.786,5.434-3.818C90.627,64.149,90.253,63.509,89.828,63.728L89.828,63.728z"/>
	</g>
	<path id="身-上色_70_" fill="#ECD67D" d="M49.258,36.368c0,0-2.825,4.781-3.408,6.775c-0.584,1.995-1.638,7.81-0.843,9.99
		c0.793,2.182,6.403,7.303,6.18,7.748c-0.223,0.445-1.865,4.49-1.92,5.137s-2.378,9.465,3.681,11.465
		c6.061,1.998,11.175,1.963,12.098,2.043c0.923,0.076,11.291-0.537,12.915-1.051c1.623-0.514,7.147-3.209,7.242-4.316
		c0.094-1.105,1.916-9.504-3.172-13.094c0,0,6.719-4.73,7.214-7.292c0.494-2.561,1.076-7.265-2.364-12.752
		c-4.425-4.829-5.318-4.161-10.562-5.904c-5.245-1.744-20.365-3.204-23.258-1.961C50.166,34.399,49.258,36.368,49.258,36.368z"/>
	<path fill="#BBAC6A" d="M81.351,40.637c0,0,7.793,8.994-0.008,17.724c-1.271,1.845-1.496,3.406-0.366,4.338
		s4.216,12.059-1.016,14.967c0,0,10.002-2.498,4.938-14.078c-2.143-2.971-2.28-2.734-2.28-2.734s13.282-9.028,4.105-19.629
		C83.637,41.08,81.351,40.637,81.351,40.637z"/>
	<g id="頭_293_">
		<path fill="#86B02E" d="M87.63,41.084c0.039-0.462,0.163-0.822,0.202-1.284c0.748-4.492,0.102-8.915-1.964-13.085
			c-2.135-4.456-5.839-7.927-10.751-9.179c-2.186-0.556-4.483-0.843-6.707-0.936c-2.315-0.104-4.738-0.03-6.999,0.338
			c-5.193,0.957-9.449,4.036-12.155,8.548c-1.186,1.945-2.119,4.189-2.406,6.49c-0.333,1.738-0.21,3.607-0.081,5.384l8.49,0.715
			l1.842-2.013l1.273,2.556l6.152,0.519l1.636-2.497l1.38,2.751l8.736,0.736l2.133-2.515l1.005,2.78L87.63,41.084z"/>
	</g>
	<path fill="#75942F" d="M72.289,18.193c3.558,0.944,6.556,2.99,9.187,5.57c2.175,2.132,2.934,5.007,3.631,7.862
		c0.734,3.002,0.255,5.626,0.35,8.642c0.343-0.29,0.685-0.578,1.027-0.869c-0.038-0.003-0.079-0.007-0.118-0.01
		c-1.224-0.103-1.384,1.794-0.16,1.898c0.039,0.002,0.079,0.006,0.119,0.01c0.472,0.039,1.044-0.349,1.027-0.87
		c-0.101-3.222,0.433-5.955-0.375-9.15c-0.712-2.832-1.453-5.327-3.169-7.745c-2.45-3.449-6.851-6.062-10.86-7.125
		C71.771,16.093,71.104,17.877,72.289,18.193L72.289,18.193z"/>
	<path fill="#75942F" d="M69.395,17.281c3.402,1.121,6.239,2.537,9.042,4.854c2.625,2.167,4.456,5.104,5.146,8.448
		c0.328,1.608,0.803,3.106,0.807,4.769c0.002,1.609-0.332,3.185-0.281,4.8c0.257-0.215,0.512-0.433,0.771-0.649
		c-0.041-0.003-0.079-0.008-0.118-0.01c-0.918-0.077-1.039,1.345-0.121,1.421c0.039,0.002,0.079,0.007,0.119,0.01
		c0.354,0.031,0.782-0.26,0.771-0.651c-0.05-1.612,0.186-3.194,0.281-4.801c0.104-1.746-0.431-3.469-0.827-5.149
		c-0.687-2.906-1.963-5.58-4.014-7.783c-3.072-3.296-6.922-4.975-11.108-6.351C68.986,15.899,68.52,16.995,69.395,17.281
		L69.395,17.281z"/>
	<path fill="#231815" d="M88.346,41.281c1.91-12.149-4.184-23.955-17.244-25.211c-6.231-0.601-13.085-0.348-18.084,3.936
		c-5.286,4.527-7.439,10.498-6.991,17.355c0.029,0.431,0.319,0.707,0.743,0.741c2.295,0.193,4.592,0.387,6.889,0.581
		c2.233,0.188,2.394-0.375,3.969-2.095c-0.388-0.051-0.776-0.1-1.164-0.15c0.43,0.863,0.86,2.834,2.015,2.932
		c2.017,0.17,4.033,0.34,6.05,0.509c0.264,0.023,0.504-0.16,0.639-0.367c0.546-0.832,1.092-1.665,1.636-2.497
		c-0.425,0-0.853,0-1.279,0c0.4,0.799,0.844,2.547,1.646,3.017c0.962,0.564,2.956,0.319,4.019,0.409
		c1.697,0.143,3.395,0.286,5.093,0.429c0.923,0.079,2.148-2.134,2.655-2.732c-0.412-0.108-0.825-0.218-1.237-0.327
		c0.335,0.927,0.67,1.854,1.004,2.78c0.122,0.335,0.362,0.515,0.716,0.544c2.737,0.231,5.476,0.461,8.213,0.692
		c0.953,0.081,0.944-1.402,0-1.482c-1.954-0.164-3.911-0.329-5.865-0.494c-0.755-0.063-1.512-0.126-2.266-0.19
		c0.853,0.072,0.533,0.265,0.13-0.853c-0.168-0.463-0.336-0.927-0.504-1.39c-0.172-0.478-0.849-0.787-1.238-0.327
		c-0.28,0.33-0.559,0.66-0.839,0.99c-0.382,0.452-1.456,1.25-0.849,1.301c-1.428-0.121-2.857-0.241-4.288-0.362
		c-1.356-0.114-2.714-0.229-4.069-0.343c-0.392-0.057-0.305,0.006,0.264,0.189c-0.155-0.31-0.311-0.621-0.466-0.931
		c-0.28-0.556-0.559-1.112-0.838-1.668c-0.263-0.525-0.994-0.435-1.279,0c-0.515,0.787-1.029,1.573-1.544,2.357
		c0.299-0.456,0.606-0.223-0.283-0.298c-0.631-0.054-1.26-0.106-1.89-0.16c-1.109-0.093-2.218-0.187-3.328-0.28
		c0.824,0.069-0.356-1.437-0.735-2.197c-0.209-0.419-0.854-0.487-1.163-0.15c-1.731,1.89-1.056,1.818-3.521,1.611
		c-2.097-0.177-4.194-0.354-6.289-0.53c0.247,0.248,0.493,0.494,0.739,0.741c-0.375-5.747,1.021-10.559,4.955-14.85
		c4.161-4.536,10.12-5.333,15.946-5.169c6.106,0.173,11.504,2.029,15.233,7.031c3.573,4.796,4.172,10.795,3.271,16.515
		C86.769,41.822,88.197,42.223,88.346,41.281z"/>
	<path fill="#231815" d="M47.756,37.402c-4.638,6.276-6.216,15.585,0.06,21.369c0.623,0.574,1.188,0.98,1.868,1.482
		c1.042,0.771,0.795,0.912,0.347,1.852c-0.832,1.746-1.764,3.799-2.02,5.715c-0.56,4.211,0.708,8.039,4.446,10.275
		c3.697,2.213,9.601,2.652,13.796,2.439c4.89-0.244,9.611,0.072,14.081-2.23c4.139-2.127,5.948-3.033,6.11-7.859
		c0.122-3.582-0.598-7.957-3.979-9.992c0,0.426,0,0.854,0,1.28c2.574-1.977,5.297-3.61,6.92-6.676
		c1.816-3.429,1.702-6.428,0.355-9.901c-0.483-1.249-1.527-4.419-3.161-4.707c-2.221-0.39-4.444-0.782-6.666-1.173
		c-0.933-0.164-1.333,1.264-0.394,1.43c2.1,0.369,6.391,0.27,7.277,2.045c1.829,3.66,4.22,8.435,0.758,12.118
		c-1.922,2.045-3.62,3.881-5.839,5.584c-0.43,0.33-0.521,0.967,0,1.28c3.254,1.957,4.928,9.845,2.215,12.853
		c-2.707,2.998-8.334,4.158-12.111,4.225c-6.984,0.121-19.093,1.771-22.159-6.389c-0.841-2.236-0.163-4.607,0.529-6.755
		c0.446-1.384,1.833-2.738,2.081-4.048c0.278-1.49-0.639-1.858-1.84-2.645c-7.479-4.894-6.018-14.568-1.397-20.824
		C49.604,37.38,48.316,36.643,47.756,37.402L47.756,37.402z"/>
	<g>
		<g>
			<path fill="#D99457" d="M60.429,49.876l-0.045-0.011c-0.27-0.068-0.483-0.168-0.753-0.236c-0.37-0.044-0.741,0.102-1.056,0.214
				c-0.798,0.326-1.336,0.957-1.796,1.651c-0.383,0.574-0.729,1.204-0.986,1.855c-0.124,0.303-0.203,0.617-0.281,0.933
				c-0.067,0.269-0.202,0.617-0.225,0.898c0.438-0.035,0.842-0.314,1.279-0.349c0.394-0.046,0.821-0.035,1.203-0.035
				c0.821-0.033,1.605-0.124,2.426-0.159c0.764,0,1.572,0.012,2.371,0.066c0.649,0.066,1.357,0.1,1.977,0.303
				c0.313-0.494,0.09-1.314-0.07-1.831c-0.247-0.729-0.774-1.291-1.313-1.808c-0.507-0.459-0.967-0.717-1.572-0.965
				c-0.259-0.111-0.462-0.258-0.709-0.416c-0.214-0.101-0.482-0.167-0.753-0.235l0.046,0.012"/>
			<path fill="#231815" d="M60.625,49.163c-3.548-0.931-5.427,2.851-6.053,5.821c-0.117,0.563,0.342,1.041,0.912,0.912
				c2.746-0.629,6.082-0.838,8.861-0.174c0.412,0.098,0.778-0.126,0.912-0.518c1.012-2.979-2.444-5.505-4.937-6.166
				c-0.13,0.476-0.263,0.952-0.394,1.429c0.017,0.004,0.03,0.007,0.047,0.011c0.926,0.236,1.319-1.194,0.393-1.429
				c-0.016-0.005-0.03-0.008-0.046-0.012c-0.927-0.235-1.317,1.184-0.394,1.429c1.696,0.449,4.63,2.2,3.902,4.342
				c0.303-0.172,0.606-0.345,0.911-0.517c-3.068-0.734-6.612-0.521-9.651,0.173c0.304,0.305,0.607,0.608,0.911,0.912
				c0.418-1.981,1.602-5.476,4.23-4.786C61.156,50.834,61.549,49.405,60.625,49.163L60.625,49.163z"/>
		</g>
		<g>
			<path fill="#D99457" d="M56.882,55.483c0.54,0.135,0.967,0.526,1.417,0.828c0.594,0.484,1.325,0.81,2.123,0.865
				c0.785,0.102,1.438-0.215,2.178-0.506c0.384-0.192,0.753-0.338,0.943-0.721c0.113-0.258,0.224-0.516,0.247-0.797
				c-0.047-0.012-0.09-0.021-0.09-0.021c0.011-0.045,0.011-0.045,0.022-0.091"/>
			<path fill="#231815" d="M56.685,56.198c1.566,0.584,2.521,1.984,4.392,1.706c1.589-0.235,3.063-0.895,3.43-2.554
				c0.083-0.385-0.111-0.813-0.52-0.912c-0.029-0.007-0.059-0.014-0.09-0.021c0.173,0.305,0.346,0.607,0.519,0.911
				c0.007-0.029,0.014-0.06,0.021-0.089c0.232-0.928-1.196-1.321-1.428-0.395c-0.007,0.029-0.016,0.061-0.023,0.09
				c-0.097,0.382,0.118,0.814,0.518,0.912c0.029,0.006,0.06,0.014,0.091,0.021c-0.173-0.305-0.346-0.608-0.519-0.912
				c-0.295,1.34-2.075,1.643-3.229,1.365c-1.021-0.246-1.777-1.184-2.767-1.553C56.183,54.434,55.799,55.866,56.685,56.198
				L56.685,56.198z"/>
		</g>
		<path fill="#E4937B" d="M46.932,47.916c0,0,6.974,2.168,9.691,0.818c0,0-1.763,1.06-3.395,1.666
			C52.198,50.498,49.23,49.318,46.932,47.916z"/>
		<path fill="#E4937B" d="M73.1,50.073c0,0-7.283,0.555-9.629-1.369c0,0,1.48,1.427,2.937,2.381
			C67.39,51.411,70.546,50.925,73.1,50.073z"/>
		<g>
			<path fill="#231815" d="M55.339,46.691c-0.822,0.329-1.625,0.61-2.581,0.482c-0.921-0.122-1.164-0.549-1.154-1.425
				c0.007-0.545,0.062-1.301,0.396-1.76c0.39-0.533,1.086-0.698,1.639-0.534c0.564,0.051,1.106,0.327,1.659,0.492
				c0.555,0.164,1.118,0.214,1.662,0.491c0.526,0.268,0.709,1.056,0.313,1.486c-0.287,0.311-0.716,0.291-1.093,0.433
				C55.895,46.463,55.614,46.58,55.339,46.691z"/>
		</g>
		<g>
			<path fill="#231815" d="M64.624,47.451c0.75,0.469,1.492,0.887,2.454,0.932c0.928,0.043,1.242-0.334,1.388-1.198
				c0.091-0.538,0.172-1.291-0.076-1.802c-0.289-0.593-0.946-0.878-1.519-0.816c-0.563-0.049-1.146,0.126-1.722,0.19
				c-0.571,0.062-1.137,0.013-1.719,0.188c-0.567,0.171-0.887,0.915-0.574,1.407c0.227,0.359,0.654,0.414,0.999,0.621
				C64.118,47.129,64.371,47.294,64.624,47.451z"/>
		</g>
	</g>
	<g>
		<path fill="#ECD67D" d="M57.69,81.7c-1.611-0.061-2.916-0.246-3.505-1.984c-0.419-1.137-0.449-5.986,1.609-4.271
			c1.025,0.896,1.729,2.131,2.352-0.02c0.654,1.816,1.41,0.703,2.545,0.285c1.363-0.471,1.427,0.486,1.693,1.686
			c0.466,2.316,0.071,3.531-2.402,4.131c-0.675,0.164-1.496,0.314-2.22,0.18"/>
		<path fill="#231815" d="M57.69,80.958c-1.605-0.078-2.773-0.549-2.955-2.287c-0.093-0.891-0.125-2.01,0.309-2.818
			c-0.071,0.135,1.782,1.5,2.182,1.498c1.011-0.012,1.351-0.895,1.635-1.729c-0.452,0.059-0.902,0.117-1.354,0.176
			c0.242,0.563,0.719,1.453,1.492,1.373c0.371-0.037,2.29-0.963,2.417-0.652c0.359,0.883,0.623,2.318,0.23,3.213
			c-0.531,1.211-2.843,1.33-3.884,1.232c-0.95-0.088-0.942,1.396,0,1.482c2.876,0.268,5.762-1.049,5.496-4.23
			c-0.083-0.994-0.237-2.615-1.208-3.184c-0.488-0.285-1.046-0.168-1.557-0.037c-0.727,0.191-1.283,1.039-1.708,0.055
			c-0.278-0.639-1.17-0.361-1.354,0.176c-0.301,0.883-1.073-0.279-1.501-0.594c-0.385-0.287-0.882-0.328-1.333-0.225
			c-1.027,0.236-1.229,1.689-1.336,2.527c-0.138,1.104-0.114,2.596,0.462,3.592c0.885,1.533,2.302,1.834,3.967,1.916
			C58.646,82.489,58.642,81.005,57.69,80.958L57.69,80.958z"/>
	</g>
	<g>
		<path fill="#ECD67D" d="M72.854,80.954c-1.427,0.002-2.867-1.297-3.316-2.574c-0.547-1.594,0.301-2.822,1.092-4.119
			c0.717,0.307,1.275,1.035,1.988,1.408c0.093-0.367,0.241-0.664,0.334-1.029c0.779,0.314,1.106,0.838,1.825,0.402
			c0.717-0.436,1.114-1.455,1.776-1.957c1.505,2.73,2.441,6.324-0.995,7.395C75.235,80.628,72.854,80.954,72.854,80.954z"/>
		<path fill="#231815" d="M72.854,80.212c-1.149-0.098-1.96-0.865-2.512-1.822c-0.74-1.283,0.279-2.699,0.927-3.756
			c-0.338,0.088-0.677,0.176-1.014,0.266c0.714,0.396,1.296,0.973,1.986,1.406c0.424,0.266,0.946-0.002,1.09-0.441
			c0.111-0.342,0.223-0.686,0.335-1.027c-0.363,0.148-0.728,0.297-1.089,0.443c0.85,0.412,1.451,0.852,2.396,0.477
			c0.933-0.369,1.406-1.5,2.103-2.146c-0.387-0.051-0.774-0.1-1.162-0.15c0.806,1.504,1.989,3.951,0.731,5.529
			c-0.843,1.059-2.761,1.08-3.989,1.25c-0.941,0.129-0.539,1.559,0.396,1.428c1.714-0.236,3.944-0.385,4.962-2.037
			c1.346-2.186,0.277-4.865-0.822-6.92c-0.231-0.434-0.825-0.461-1.163-0.148c-0.925,0.857-1.214,2.164-2.703,1.441
			c-0.442-0.215-0.932-0.037-1.09,0.441c-0.111,0.342-0.223,0.684-0.333,1.025c0.361-0.148,0.726-0.295,1.087-0.441
			c-0.695-0.439-1.267-1.01-1.986-1.408c-0.36-0.201-0.8-0.084-1.014,0.266c-0.897,1.467-1.838,3.123-1.091,4.869
			c0.707,1.652,2.157,2.783,3.955,2.939C73.807,81.776,73.798,80.294,72.854,80.212z"/>
	</g>
	<g>
		<path fill="#ECD67D" d="M68.211,50.913c-0.928-0.016-1.919,1.449-2.237,2.29c-0.479,1.262-0.111,2.78,0.795,3.785
			c0.457,0.473,1.088,1.084,1.764,1.141"/>
		<path fill="#231815" d="M68.211,50.172c-1.693,0.228-3.073,2.148-3.166,3.813c-0.116,2.082,1.164,4.35,3.29,4.858
			c0.93,0.223,1.323-1.207,0.395-1.429c-1.354-0.324-2.151-1.722-2.226-3.027c-0.047-0.834,0.741-2.604,1.707-2.733
			C69.145,51.528,69.156,50.045,68.211,50.172L68.211,50.172z"/>
	</g>
	<path fill="#FFFFFF" d="M57.763,60.938c0,0-2.316,0.741-0.673,1.343c1.645,0.603,1.112,0.881,3.033,0.718
		c1.922-0.162,5.164-0.486,5.257-1.25s0.37-1.689,0-1.76C65.009,59.92,57.763,60.938,57.763,60.938z"/>
	<path fill="#FFFFFF" d="M61.343,63.25c-1.961,0.319-3.858-0.219-5.323-1.33c-0.978,1.427-1.434,3.212-1.135,5.05
		c0.617,3.801,4.196,6.383,7.997,5.768c3.801-0.617,6.381-4.199,5.766-7.998c-0.3-1.841-1.296-3.391-2.674-4.435
		C64.933,61.823,63.304,62.933,61.343,63.25z"/>
	<path fill="#C2C0BF" d="M57.856,70.896c0,0,2.954,1.221,4.699,0.416c1.774-0.77,3.908-1.822,3.968-3.783
		c-0.124-1.371,0.374-4.512-1.11-6.014c0.583-0.854,1.482-0.9,1.734-0.33c0.253,0.57,1.164,5.189,1.164,5.867
		c0,0.68-0.206,3.426-1.06,3.844c-0.853,0.416-4.694,2.387-5.629,2.189C60.688,72.886,57.856,70.896,57.856,70.896z"/>
	<path fill="#231815" d="M61.758,73.569c-3.797,0-6.996-2.725-7.605-6.48c-0.317-1.957,0.128-3.941,1.256-5.587
		c0.113-0.167,0.292-0.28,0.492-0.313c0.2-0.029,0.405,0.02,0.566,0.141c1.362,1.035,3.072,1.463,4.757,1.189
		c1.694-0.273,3.164-1.209,4.139-2.631c0.115-0.168,0.293-0.281,0.492-0.314c0.2-0.029,0.405,0.019,0.566,0.142
		c1.589,1.204,2.639,2.946,2.957,4.905c0.329,2.033-0.152,4.074-1.356,5.744c-1.203,1.672-2.988,2.773-5.021,3.104
		C62.589,73.534,62.17,73.569,61.758,73.569z M56.25,62.97c-0.626,1.191-0.851,2.544-0.634,3.883
		c0.493,3.033,3.074,5.234,6.142,5.234c0.334,0,0.672-0.029,1.006-0.082c1.642-0.266,3.082-1.156,4.057-2.506
		c0.973-1.352,1.361-2.998,1.095-4.642c-0.218-1.338-0.857-2.551-1.827-3.482c-1.184,1.396-2.801,2.312-4.627,2.606
		C59.671,64.272,57.802,63.904,56.25,62.97z"/>
	<g>
		<path fill="#ECD67D" d="M70.998,61.185c-1.376,0.875-5.477,3.535-5.985,5.164c0.486,0.105,0.918,0.14,1.354,0.115
			c0.092,0.381-0.129,0.795,0.157,1.064c0.174,0.139,0.574-0.197,0.688-0.064c0.118,0.074,0.225,0.268,0.344,0.34
			c0.349,0.277,0.082,0.502,0.626,0.672c0.968,0.268,4.677-0.73,5.456-1.16"/>
		<path fill="#231815" d="M70.624,60.545c-2.175,1.389-5.322,3.091-6.326,5.608c-0.14,0.35,0.15,0.848,0.519,0.912
			c0.523,0.09,1.015,0.145,1.55,0.141c-0.247-0.248-0.494-0.494-0.741-0.742c0.028,0.574,0.014,0.922,0.259,1.439
			c0.114,0.24,0.392,0.352,0.64,0.367c0.11,0.006,0.57,0.119,0.336-0.113c0.236,0.234,0.328,0.602,0.62,0.77
			c0.595,0.344,1.086,0.355,1.765,0.293c1.586-0.15,3.33-0.563,4.767-1.264c0.859-0.418,0.107-1.697-0.748-1.279
			c-1.292,0.629-2.923,0.959-4.346,1.092c-0.586,0.055-0.807-0.457-1.182-0.828c-0.378-0.373-0.774-0.123-1.212-0.152
			c0.212,0.123,0.427,0.246,0.64,0.367c-0.036-0.23-0.055-0.459-0.056-0.691c-0.02-0.398-0.324-0.745-0.741-0.74
			c-0.389,0.024-0.775-0.007-1.156-0.088c0.172,0.305,0.345,0.607,0.518,0.912c0.822-2.064,3.86-3.584,5.644-4.724
			C72.176,61.312,71.433,60.029,70.624,60.545L70.624,60.545z"/>
	</g>
	<g>
		<path fill="#ECD67D" d="M53.325,62.964c0.788,0.936,3.871,2.324,3.09,3.498c-0.148,0.299-0.847,0.486-0.878,0.854
			c-0.035,0.432,0.641,0.49,0.801,0.813c0.193,0.635-0.674,1.367-1.145,1.822c-1.217,1.199-3.392,0.521-5.12,0.438"/>
		<path fill="#231815" d="M52.802,63.489c0.693,0.731,1.607,1.227,2.381,1.861c0.482,0.397,0.75,0.58,0.226,0.988
			c-0.304,0.236-0.612,0.559-0.612,0.977c0,0.381,0.179,0.652,0.438,0.904c0.113,0.096,0.235,0.178,0.369,0.248
			c0.017,0.01-0.842,0.869-0.936,0.959c-1.069,1.018-3.301,0.311-4.595,0.219c-0.954-0.066-0.947,1.416,0,1.482
			c1.762,0.125,3.567,0.625,5.195-0.293c1.063-0.598,2.461-2.248,1.446-3.398c-0.372-0.42-0.343,0.02-0.119-0.129
			c0.251-0.17,0.426-0.4,0.557-0.67c0.196-0.409,0.158-0.97-0.082-1.358c-0.779-1.265-2.228-1.79-3.222-2.839
			C53.19,61.747,52.145,62.796,52.802,63.489L52.802,63.489z"/>
	</g>
	<path fill="#231815" d="M56.711,62.216c0.921-1.168,1.612-0.676,2.787-0.629c1.061,0.043,1.889-0.126,2.884-0.488
		c0.582-0.213,1.149-0.505,1.623-0.909c0.51-0.436,1.593,0.799,1.985,1.181c0.687,0.666,1.735-0.382,1.049-1.048
		c-1.426-1.382-2.568-2.263-4.34-1.007c-1.705,1.206-3.188,0.442-4.983,0.442c-0.933,0-1.529,0.745-2.053,1.409
		C55.079,61.909,56.119,62.966,56.711,62.216L56.711,62.216z"/>
	<path fill="#231815" d="M82.059,60.375c0.016,0.017,0.03,0.03,0.047,0.046c0.169,0.17,0.431-0.092,0.261-0.262
		c-0.016-0.015-0.03-0.029-0.046-0.046C82.151,59.944,81.889,60.206,82.059,60.375L82.059,60.375z"/>
	<g>
		<g>
			<g>
				<path fill="#FFFFFF" d="M17.546,82.308c-2.949-0.426-4.892-1.566-5.796-3.391c-1.648-3.314,0.703-7.65,0.804-7.832
					c0.243-0.313,0.995-0.699,4.883-0.699c5.75,0,15.188,0.852,18.742,1.17l0.581,0.051l0.041,0.035
					c1.951,1.584,2.97,3.143,3.03,4.641c0.074,1.814-1.274,3.102-2,3.795c-0.137,0.129-0.252,0.238-0.334,0.334
					c-0.932,1.031-12.357,1.902-19.04,1.902C18.457,82.313,17.843,82.313,17.546,82.308z"/>
				<path fill="#FFFFFF" d="M12.709,71.171c0,0-5.238,9.496,4.837,10.959c7.275,0.086,18.976-0.908,19.818-1.84
					c0.84-0.93,5.077-3.84-0.675-8.51C32.119,71.368,13.886,69.671,12.709,71.171z"/>
				<path fill="#D5D6D5" d="M19.852,75.056c-3.254,0-5.432-0.643-6.477-1.906c-0.768-0.932-0.601-1.85-0.592-1.887l0.043-0.223
					l0.206,0.094c1.541,0.713,4.31,1.074,8.232,1.074c3.403,0,6.819-0.271,8.655-0.418c0.675-0.055,1.135-0.09,1.301-0.09h0.001
					c0.333,0,1.019-0.074,1.813-0.156c1.113-0.119,2.499-0.266,3.378-0.266c0.708,0,0.896,0.098,0.986,0.189l0.053,0.055
					l0.025,0.148c-0.815,2.646-9.075,3.189-17.046,3.379C20.233,75.054,20.041,75.056,19.852,75.056z"/>
				<path fill="#D5D6D5" d="M12.957,71.296c0,0-0.731,3.76,7.469,3.578c7.729-0.186,16.105-0.742,16.873-3.211
					c0.024-0.572-5.09,0.227-6.069,0.215C30.252,71.87,17.399,73.349,12.957,71.296z"/>
				<path fill="#FFFFFF" d="M18.184,73.358c-0.851,0-1.605-0.014-2.223-0.043c-3.154-0.898-4.934-2.207-5.332-3.898
					c-0.558-2.373,1.811-4.574,1.912-4.667c0.157-0.536,2.838-0.843,7.923-0.843h0c5.347,0,12.777,0.41,15.457,1.072
					c2.324,1.379,3.397,2.738,3.237,4.057c-0.271,2.254-3.959,3.418-3.995,3.434C33.326,72.81,23.559,73.358,18.184,73.358
					L18.184,73.358z"/>
				<path fill="#FFFFFF" d="M12.662,64.883c0,0-6.084,5.563,3.307,8.255c4.659,0.219,17.144-0.469,19.141-0.84
					c1.045-0.324,7.71-2.992,0.769-7.147C31.409,64.048,13.108,63.56,12.662,64.883z"/>
				<path fill="#D5D6D5" d="M19.243,68.702c-3.254,0-5.435-0.643-6.478-1.91c-0.768-0.932-0.602-1.846-0.595-1.885l0.044-0.223
					l0.208,0.096c1.54,0.712,4.308,1.072,8.228,1.072c3.4,0,6.816-0.271,8.651-0.418c0.677-0.053,1.141-0.091,1.31-0.091h0
					c0.33,0,1.015-0.07,1.805-0.153c1.115-0.119,2.503-0.268,3.385-0.268c0.709,0,0.897,0.096,0.988,0.191l0.052,0.055l0.027,0.146
					c-0.818,2.646-9.076,3.189-17.047,3.381C19.622,68.698,19.431,68.702,19.243,68.702z"/>
				<path fill="#D5D6D5" d="M12.346,64.941c0,0-0.73,3.761,7.47,3.577c7.727-0.186,16.105-0.742,16.874-3.211
					c0.022-0.572-5.091,0.225-6.07,0.215C29.643,65.512,16.79,66.993,12.346,64.941z"/>
				<path fill="#FFFFFF" d="M23.906,66.938c-5.24,0-9.04-0.586-10.99-1.686c-2.129-1.201-1.666-3.216-1.417-4.297
					c0.034-0.153,0.067-0.292,0.087-0.412c0.175-0.966,0-3.453-0.001-3.479c-0.006-0.149,0.049-0.286,0.159-0.396
					c0.259-0.27,0.955-0.627,3.992-0.627c4.648,0,12.226,0.844,16.293,1.299c1.212,0.135,2.117,0.236,2.546,0.271
					c2.835,0.226,3.439,2.409,3.657,4.518c-0.181,3.41-4.017,3.889-9.327,4.549l-1.384,0.174
					C26.253,66.909,25.042,66.938,23.906,66.938L23.906,66.938z"/>
				<path fill="#FFFFFF" d="M11.763,57.054c0,0,0.18,2.523,0,3.521c-0.18,1-1.054,3.228,1.241,4.524
					c2.294,1.295,7.325,1.894,14.496,1.577c5.876-0.758,10.368-1.013,10.556-4.529c-0.224-2.18-0.863-4.149-3.491-4.359
					C31.934,57.578,11.685,54.896,11.763,57.054z"/>
				<path fill="#D5D6D5" d="M25.241,63.353c-1.765,0-3.324-0.274-3.5-0.343c-0.075-0.028-0.182-0.097-0.418-0.252
					c-0.737-0.485-2.461-1.618-4.208-1.741c-4.286-0.269-4.572-2.643-4.582-2.744l-0.013-0.124l0.116-0.054
					c4.441-2.064,8.79-3.111,12.927-3.111c6.706,0,10.803,2.839,10.94,3.781c0.031,0.299-0.067,0.572-0.291,0.82
					c-0.634,0.701-2.127,1.006-2.75,1.006l0,0c-0.179,0-0.307-0.022-0.392-0.064c-0.031-0.016-0.105-0.041-0.256-0.041
					c-0.593,0-1.634,0.389-2.478,1.133C29.453,63.044,27.075,63.353,25.241,63.353z"/>
				<path fill="#D5D6D5" d="M12.709,58.255c0,0,0.231,2.32,4.417,2.584c2.239,0.158,4.383,1.893,4.677,2.004
					c0.294,0.113,6.805,1.219,8.415-1.36c1.134-0.998,2.512-1.323,2.929-1.115s3.31-0.317,3.177-1.577
					C36.142,57.526,26.982,51.624,12.709,58.255z"/>
				<g>
					<path fill="#231815" d="M25.099,61.55c-1.024,0-1.997-0.305-3.794-0.986c-0.969-0.454-1.516-1.035-1.64-1.731
						c-0.193-1.081,0.712-2.015,0.75-2.054c0.569-0.78,2.366-1.297,4.56-1.297c0.972,0,1.974,0.098,2.978,0.29
						c1.235,0.234,2.004,0.644,2.352,1.247c0.407,0.705,0.128,1.498-0.074,2.076c-0.056,0.16-0.107,0.305-0.137,0.428
						c-0.199,0.854-0.81,1.031-2.146,1.421c-0.261,0.075-0.552,0.16-0.878,0.261C26.293,61.442,25.685,61.55,25.099,61.55
						L25.099,61.55z"/>
					<path fill="#231815" d="M20.542,56.903c0,0-2.094,2.123,0.826,3.494c2.703,1.025,3.663,1.248,5.649,0.637
						c1.988-0.612,2.692-0.652,2.903-1.553s1.529-2.863-2-3.537C24.393,55.271,21.303,55.866,20.542,56.903z"/>
					<path fill="#FFFFFF" d="M16.002,59.463c-0.8,0-1.353-0.136-1.503-0.179c-0.694-0.215-2.306-1.172-5.438-3.103
						c-7.339-11.237,7.27-21.483,7.417-21.585c0.46-0.334,5.198-2.905,7.748-2.905c0.121,0,0.237,0.006,0.349,0.018
						c12.721,1.675,15.426,12.349,16.727,17.48c0.54,2.132,0.33,3.976-0.625,5.476c-1.221,1.922-3.344,2.709-3.991,2.834
						c-0.348,0.068-0.785,0.381-1.247,0.713c-0.628,0.451-1.341,0.961-2.148,1.122l-0.061,0.012l-0.056-0.027
						c-1.494-0.776-4.051-1.878-6.746-2.646c-0.729-0.227-1.402-0.338-2.061-0.338c-1.708,0-3.081,0.752-4.616,1.878
						C18.492,59.245,17.017,59.463,16.002,59.463z"/>
					<path fill="#FFFFFF" d="M16.581,34.743c0,0-14.697,10.121-7.425,21.288c2.852,1.758,4.692,2.865,5.391,3.084
						c0.79,0.217,3.224,0.492,5.099-1.045c1.975-1.449,3.906-2.478,6.831-1.567c2.948,0.841,5.505,1.997,6.78,2.657
						c1.383-0.275,2.525-1.666,3.397-1.836c0.873-0.167,6.016-2.014,4.477-8.09c-1.542-6.08-4.432-15.748-16.572-17.346
						C22.11,31.63,16.969,34.46,16.581,34.743z"/>
					<path fill="#D5D6D5" d="M36.545,56.454c6.698-5.55-3.763-20.495-3.871-20.645l-0.299-0.421l0.496,0.149
						c4.152,1.247,6.252,6.889,8.105,11.867c0.793,2.004,0.826,3.838,0.1,5.451c-1.242,2.752-4.23,3.859-4.356,3.903L36.545,56.454z
						"/>
					<path fill="#D5D6D5" d="M32.82,35.708c0,0,10.742,15.162,3.839,20.884c0,0,6.791-2.454,4.15-9.127
						C38.878,42.278,36.835,36.914,32.82,35.708z"/>
					<path fill="#231815" d="M35.703,58.59c-0.417,0-0.762-0.32-0.838-0.778c-0.066-0.404,0.103-0.892,0.629-1.069
						c4.004-1.351,5.374-3.45,4.737-7.246c-0.375-2.224-0.892-4.571-2.116-6.671c-2.743-4.696-7.534-9.749-12.75-9.838l-0.218-0.001
						c-5.285,0-10.76,3.324-13.949,8.471c-1.538,2.48-3.953,7.217-2.85,11.072c0.532,1.852,1.825,3.298,3.846,4.295l0.281,0.156
						c0.326,0.16,0.479,0.448,0.406,0.768c-0.106,0.451-0.61,0.815-1.126,0.815l0,0c-0.17,0-0.332-0.038-0.484-0.112
						c-2.438-1.204-4.021-3.026-4.705-5.42c-0.938-3.278-0.04-7.588,2.401-11.525c4.017-6.481,9.926-10.353,15.803-10.353
						c0.583,0,1.173,0.038,1.754,0.112c6.734,0.851,13.071,8.088,14.765,14.312c0.811,2.977,1.82,6.681,0.003,9.635
						c-1.216,1.976-2.79,2.499-4.785,3.162l-0.496,0.165C35.907,58.572,35.803,58.59,35.703,58.59z"/>
					<path fill="#231815" d="M12.113,56.983c-6.634-3.276-4.229-10.525-1.068-15.622c3.004-4.849,8.537-8.651,14.322-8.553
						c5.563,0.096,10.346,5.554,12.9,9.926c1.21,2.072,1.745,4.398,2.138,6.731c0.705,4.191-1.149,6.195-4.854,7.445
						c-0.92,0.309-0.525,1.771,0.402,1.457c2.214-0.746,3.908-1.172,5.187-3.251c1.768-2.876,0.798-6.475-0.023-9.495
						c-1.68-6.167-7.978-13.342-14.616-14.182c-7.361-0.932-13.699,4.214-17.383,10.16C5.566,47.33,4.646,54.979,11.349,58.29
						c0.872,0.432,1.916-0.723,1.04-1.156L12.113,56.983z"/>
					<path fill="#231815" d="M16.118,60.145c-1.925,0-3.356-0.586-4.503-1.845c-1.983-2.177-0.27-5.53,0.928-7.336
						c2.707-4.083,7.284-6.521,12.246-6.521c1.602,0,3.181,0.258,4.697,0.766c3.044,1.021,5.872,3.778,7.035,6.857
						c0.625,1.659,1.069,4.16-0.378,6.656c-0.513,0.887-1.27,1.336-2.25,1.336c-0.879,0-1.921-0.363-3.097-1.082
						c-1.49-0.91-4.059-1.975-6.392-1.975c-0.784,0-1.488,0.121-2.088,0.362c-0.788,0.317-1.377,0.838-2.003,1.39
						c-0.34,0.297-0.69,0.605-1.072,0.875c-0.068,0.119-0.241,0.229-0.459,0.273c-0.075,0.035-0.186,0.058-0.296,0.058l-0.096-0.006
						C17.783,60.042,16.934,60.145,16.118,60.145L16.118,60.145z M15.942,58.315c0.746,0,1.497-0.065,2.233-0.197
						c0.487-0.326,0.968-0.672,1.416-0.991c1.457-1.042,2.607-1.865,4.724-1.865c0.343,0,0.713,0.021,1.101,0.065
						c1.726,0.193,3.314,0.611,5.15,1.354c0.235,0.093,0.529,0.277,0.868,0.487c0.71,0.439,1.595,0.986,2.337,0.986
						c0.747,0,1.225-0.583,1.462-1.783c0.249-2.105-0.331-4.02-1.728-5.673c-2.468-2.905-5.783-4.57-9.093-4.57
						c-1.625,0-3.207,0.4-4.7,1.191c-2.211,1.172-3.859,2.461-5.036,3.942c-0.842,1.058-2.845,4.174-2.024,5.872
						c0.376,0.781,1.333,1.178,2.843,1.178h0.11L15.942,58.315z"/>
					<path fill="#231815" d="M18.29,58.278c-0.888,0.164-1.784,0.234-2.686,0.21c-6.096,0.074-2.143-5.985-1.067-7.337
						c1.362-1.713,3.177-2.973,5.091-3.989c5.072-2.685,10.569-0.628,14.012,3.422c1.437,1.701,2.027,3.64,1.767,5.822
						c-0.75,3.793-3.772,0.899-4.909,0.44c-1.702-0.688-3.289-1.14-5.104-1.344c-3.58-0.403-4.58,1.15-7.286,2.852
						c-0.824,0.517-0.064,1.827,0.764,1.307c1.193-0.75,2.007-1.912,3.377-2.463c2.594-1.043,6.425,0.271,8.637,1.625
						c1.522,0.93,3.888,1.902,5.102-0.191c2.924-5.049-1.472-11.548-6.562-13.256c-6.146-2.062-13.084,0.179-16.736,5.687
						c-1.241,1.869-2.82,5.061-0.945,7.116c1.909,2.095,4.304,1.938,6.946,1.558C19.656,59.599,19.244,58.142,18.29,58.278z"/>
					<path fill="#231815" d="M25.102,62.399c-2.174,0-5.611-1.009-6.084-3.174c-0.064-0.289-0.002-0.565,0.174-0.785
						c0.187-0.232,0.493-0.375,0.798-0.375c0.421,0,0.742,0.26,0.833,0.683c0.221,1.001,2.838,1.8,3.798,1.8
						c0.749-0.021,3.786-0.493,4.482-1.346c0.106-0.133,0.146-0.258,0.123-0.391c-0.049-0.288,0.023-0.568,0.206-0.785
						c0.194-0.231,0.499-0.373,0.798-0.373c0.421,0,0.73,0.268,0.806,0.696c0.118,0.683-0.061,1.321-0.532,1.899
						c-1.141,1.402-3.736,2.1-5.214,2.146L25.102,62.399z"/>
					<path fill="#231815" d="M19.191,59.188c0.48,2.2,4.223,3.091,6.094,3.03c1.948-0.063,6.013-1.32,5.575-3.838
						c-0.166-0.961-1.623-0.553-1.458,0.402c0.229,1.318-4.02,1.921-4.728,1.943c-0.941,0.029-3.775-0.801-4.024-1.939
						C20.44,57.833,18.983,58.237,19.191,59.188L19.191,59.188z"/>
				</g>
				<path fill="#231815" d="M20.646,67.985c-3.632,0-6.477-0.646-8.455-1.92c-0.945-0.609-1.998-2.153-1.995-3.393
					c0.002-0.809,0.319-1.585,0.627-2.336c0.272-0.666,0.53-1.295,0.53-1.871c0-0.597,0.469-0.91,0.934-0.91
					c0.464,0,0.935,0.313,0.935,0.91c0,0.227-0.037,0.391-0.122,0.566c-0.73,1.479-0.715,3.077,0.04,4.381
					c0.788,1.36,2.234,2.203,3.972,2.316l1.178,0.08c1.239,0.086,2.519,0.178,3.765,0.178c0.437,0,0.872-0.01,1.302-0.037
					c1.153-0.072,2.319-0.234,3.447-0.393c1.271-0.178,2.585-0.361,3.895-0.415c0.249-0.009,0.511-0.017,0.781-0.021
					c1.117-0.022,2.386-0.049,3.345-0.439c1.637-1.129,2.482-2.221,2.477-3.225c-0.004-0.823-0.584-1.631-1.727-2.402
					c-0.36-0.223-0.515-0.621-0.396-1.035c0.121-0.42,0.479-0.715,0.874-0.715c0.164,0,0.324,0.051,0.482,0.145
					c2.594,1.613,3.315,4.258,1.88,6.906c-1.494,2.756-6.191,2.924-9.621,3.051c-1.056,0.037-1.968,0.072-2.673,0.168
					C24.154,67.847,22.312,67.985,20.646,67.985z"/>
				<path fill="#231815" d="M11.531,58.466c0,1.271-1.152,2.715-1.156,4.207c-0.003,1.145,0.976,2.64,1.913,3.241
					c3.676,2.368,9.655,2.056,13.808,1.485c3.074-0.424,10.28,0.344,12.163-3.127c1.395-2.576,0.651-5.137-1.82-6.669
					c-0.831-0.517-1.589,0.792-0.763,1.306c2.645,1.783,2.384,3.764-0.783,5.939c-1.222,0.495-2.875,0.42-4.187,0.472
					c-2.46,0.103-4.878,0.657-7.338,0.806c-2.053,0.127-4.216-0.09-6.266-0.221c-3.668-0.234-5.793-3.643-4.161-6.952
					c0.082-0.163,0.104-0.308,0.104-0.487C13.045,57.489,11.531,57.489,11.531,58.466L11.531,58.466z"/>
				<path fill="#231815" d="M18.477,74.14c-2.788,0-4.874-0.516-6.563-1.619c-1.09-0.711-1.767-1.748-1.96-2.998
					c-0.261-1.691,0.376-3.717,1.662-5.289c0.218-0.266,0.463-0.321,0.631-0.321c0.337,0,0.675,0.232,0.84,0.579
					c0.166,0.352,0.119,0.738-0.125,1.038c-1.203,1.47-1.547,2.776-1.024,3.88c0.863,1.822,3.931,2.773,6.515,2.773
					c0.21,0,0.415-0.008,0.611-0.02l0.67-0.045c1.563-0.109,3.177-0.221,4.779-0.254c0.613-0.016,1.226-0.023,1.841-0.031
					c1.88-0.027,3.825-0.057,5.719-0.211l0.386-0.027c1.293-0.086,4.326-0.293,5.204-1.641c0.303-0.461,0.329-1.01,0.088-1.682
					c-0.325-1.146-0.99-1.916-2.039-2.365c-0.388-0.201-0.559-0.573-0.46-0.976c0.093-0.381,0.445-0.767,0.929-0.767
					c0.151,0,0.303,0.039,0.448,0.117c1.447,0.76,2.526,2.066,2.887,3.494c0.314,1.238,0.089,2.475-0.647,3.574
					c-1.47,2.193-5.439,2.449-8.296,2.449c-0.936,0-1.842-0.031-2.659-0.057c-0.664-0.021-1.269-0.041-1.777-0.041l-0.33,0.002
					c-1.044,0.023-2.118,0.111-3.255,0.207C21.216,74.022,19.833,74.14,18.477,74.14z"/>
				<path fill="#231815" d="M11.753,64.347c-1.857,2.271-2.69,6.098,0.259,8.025c3.977,2.598,9.332,1.25,13.792,1.154
					c3.113-0.066,10.776,0.918,12.918-2.275c1.688-2.52,0.349-5.482-2.177-6.812c-0.863-0.454-1.627,0.852-0.764,1.306
					c1.089,0.465,1.803,1.287,2.137,2.467c1.214,3.359-4.362,3.467-5.83,3.588c-2.512,0.205-5.054,0.189-7.572,0.242
					c-1.822,0.037-3.624,0.176-5.44,0.297c-3.812,0.26-10.343-1.92-6.253-6.922C13.436,64.669,12.372,63.591,11.753,64.347
					L11.753,64.347z"/>
				<path fill="#231815" d="M20.929,83.171c-3.45,0-6.006-0.609-8.039-1.916c-3.447-2.211-2.48-6.084-1.703-9.193l0.094-0.377
					c0.104-0.418,0.429-0.676,0.85-0.676c0.311,0,0.616,0.146,0.799,0.381c0.17,0.217,0.226,0.496,0.155,0.783
					c-0.743,2.994-0.519,5.484,0.63,7.01c0.881,1.172,2.301,1.801,4.219,1.871l0.273,0.01c1.307,0.051,2.659,0.1,3.991,0.1
					c1.355,0,2.542-0.053,3.628-0.16c1.33-0.133,2.655-0.379,3.936-0.619c1.084-0.205,2.206-0.414,3.329-0.555l0.52-0.059
					c1.525-0.164,4.076-0.436,4.927-1.873c0.408-0.688,0.383-1.596-0.077-2.703c-0.448-1.045-1.12-1.916-1.997-2.59
					c-0.292-0.258-0.381-0.609-0.254-0.941c0.143-0.377,0.534-0.648,0.931-0.648c0.227,0,0.442,0.084,0.621,0.246
					c1.244,1.111,2.728,3.137,2.815,5.193c0.049,1.109-0.313,2.08-1.073,2.885c-1.185,1.252-2.449,1.881-4.227,2.096
					c-1.247,0.15-2.508,0.389-3.725,0.617c-1.407,0.264-2.86,0.537-4.31,0.684l-0.537,0.053
					C24.924,82.966,22.905,83.171,20.929,83.171z"/>
				<path fill="#231815" d="M11.454,71.728c-0.808,3.26-1.94,7.148,1.532,9.379c4.042,2.596,9.705,1.9,14.24,1.447
					c2.697-0.268,5.337-0.971,8.03-1.297c1.708-0.205,2.959-0.813,4.119-2.043c2.323-2.459,0.265-6.039-1.729-7.82
					c-0.727-0.648-1.799,0.418-1.072,1.07c0.907,0.695,1.59,1.584,2.055,2.662c1.844,4.451-3.53,4.635-5.515,4.879
					c-2.445,0.305-4.806,0.932-7.269,1.174c-2.623,0.262-5.29,0.15-7.916,0.053c-5.344-0.197-6.13-4.609-5.015-9.104
					C13.147,71.181,11.688,70.778,11.454,71.728L11.454,71.728z"/>
				<g>
					<path fill="#231815" d="M20.79,83.368c-2.209-0.084-1.495-3.365-0.179-4.672c1.819-1.775,4.074,1.885,2.861,3.854
						c-0.628,1.088-1.658,0.668-2.514,0.854L20.79,83.368z"/>
					<path fill="#231815" d="M20.79,82.628c-1.548-0.135-0.249-3.949,1.047-3.629c0.835,0.205,1.207,1.502,1.236,2.223
						c0.022,0.535-0.195,1.174-0.751,1.342c-0.281,0.082-0.635,0.037-0.924,0.047c-0.277,0.008-0.377,0.053-0.411,0.043
						c-0.932-0.193-1.33,1.236-0.394,1.43c1.827,0.379,3.748-0.453,3.938-2.461c0.154-1.623-0.75-3.67-2.455-4.09
						c-3.155-0.777-5.207,6.238-1.287,6.578C21.743,84.192,21.735,82.71,20.79,82.628z"/>
				</g>
				<g>
					<path fill="#231815" d="M30.631,82.595c-2.188,0.32-2.082-3.037-1.026-4.561c1.465-2.076,4.348,1.113,3.515,3.268
						c-0.419,1.184-1.509,0.959-2.316,1.297L30.631,82.595z"/>
					<path fill="#231815" d="M30.631,81.856c-1.848,0.182-0.986-3.924,0.216-3.754c0.927,0.131,1.49,1.266,1.66,2.068
						C32.751,81.317,31.615,81.872,30.631,81.856c-0.957-0.018-0.955,1.465,0,1.48c0.683,0.01,1.584-0.281,2.2-0.576
						c0.867-0.414,1.182-1.52,1.176-2.4c-0.01-1.574-1.286-3.477-2.92-3.707c-3.451-0.49-4.281,7.061-0.456,6.684
						C31.573,83.245,31.582,81.763,30.631,81.856z"/>
				</g>
				<g>
					<path fill="#231815" d="M19.565,73.597c-0.093,1.08,0.2,2.148,1.25,2.488c0.586,0.186,0.94,0.32,1.126-0.482
						c0.092-0.432,0.186-1.17,0.124-1.604c-0.093-0.771-1.297-0.588-1.915-0.588"/>
					<path fill="#231815" d="M18.824,73.597c-0.07,1.002,0.148,2.1,0.967,2.76c0.768,0.615,2.002,0.934,2.648,0.018
						c0.28-0.402,0.301-1.025,0.356-1.492c0.058-0.508,0.077-1.078-0.193-1.531c-0.492-0.83-1.639-0.689-2.451-0.68
						c-0.955,0.014-0.957,1.494,0,1.482c0.402-0.006,0.827-0.07,1.221,0.031c0.042,0.012-0.1-0.248-0.042-0.092
						c0.034,0.084,0.013,0.227,0.013,0.316c0,0.336-0.05,0.67-0.115,0.998c-0.06,0.291-0.146,0.182,0.104,0.094
						c0.202-0.07,0.071-0.016-0.083-0.057c-0.233-0.064-0.431-0.143-0.608-0.307c-0.39-0.373-0.369-1.053-0.335-1.541
						C20.372,72.644,18.89,72.649,18.824,73.597L18.824,73.597z"/>
				</g>
				<g>
					<path fill="#231815" d="M27.467,73.163c-0.339,0.742-1.081,2.039-0.062,2.533c1.049,0.557,1.915-0.186,2.47-1.02
						c0.278-0.461,0.494-0.926,0.525-1.42"/>
					<path fill="#231815" d="M26.828,72.79c-0.311,0.67-0.639,1.318-0.68,2.066c-0.049,0.895,0.659,1.445,1.423,1.699
						c1.891,0.625,3.4-1.738,3.571-3.299c0.104-0.949-1.379-0.939-1.482,0c-0.079,0.711-0.827,2.045-1.695,1.869
						c-0.743-0.15-0.043-1.188,0.142-1.586C28.508,72.679,27.23,71.925,26.828,72.79L26.828,72.79z"/>
				</g>
			</g>
			<g>
				<path fill="#231815" d="M21.1,43.641c-0.803,0.372-1.589,0.694-2.551,0.619c-0.927-0.074-1.191-0.487-1.229-1.361
					c-0.022-0.547-0.008-1.303,0.302-1.779c0.36-0.553,1.047-0.754,1.608-0.621c0.565,0.021,1.122,0.268,1.684,0.402
					c0.561,0.134,1.127,0.155,1.683,0.402c0.542,0.239,0.766,1.018,0.394,1.468c-0.271,0.325-0.701,0.328-1.069,0.491
					C21.642,43.384,21.37,43.515,21.1,43.641z"/>
			</g>
			<g>
				<path fill="#231815" d="M30.413,43.906c0.774,0.428,1.536,0.807,2.5,0.8c0.93-0.005,1.222-0.399,1.321-1.269
					c0.063-0.543,0.104-1.298-0.173-1.794c-0.319-0.579-0.989-0.828-1.558-0.735c-0.564-0.019-1.138,0.187-1.708,0.281
					c-0.57,0.092-1.134,0.072-1.708,0.279c-0.556,0.201-0.837,0.961-0.499,1.436c0.247,0.346,0.676,0.377,1.03,0.566
					C29.89,43.612,30.152,43.763,30.413,43.906z"/>
			</g>
		</g>
	</g>
	<g>
		<path fill="#FFFFFF" d="M31.309,64.106c0,0,1.874,0.421,0.616,0.926c-1.256,0.508-0.819,0.681-2.345,0.656
			c-1.526-0.026-4.101-0.103-4.224-0.645c-0.124-0.539-0.402-1.186-0.115-1.254C25.529,63.724,31.309,64.106,31.309,64.106z"/>
		<path fill="#FFFFFF" d="M28.54,65.917c1.57,0.042,2.993-0.521,4.009-1.445c0.93,0.916,1.498,2.137,1.479,3.469
			c-0.039,2.75-2.536,4.916-5.58,4.836c-3.046-0.074-5.485-2.367-5.448-5.115c0.018-1.332,0.616-2.523,1.57-3.393
			C25.562,65.245,26.967,65.876,28.54,65.917z"/>
		<path fill="#C2C0BF" d="M25.8,71.767c0,0,2.355,0.678,3.702-0.012c1.372-0.67,3.017-1.564,3.007-2.973
			c-0.136-0.977,0.166-3.262-1.043-4.242c0.434-0.648,1.139-0.742,1.354-0.35c0.215,0.395,1.063,3.645,1.082,4.131
			s-0.065,2.473-0.724,2.824c-0.657,0.357-3.618,2.023-4.357,1.943C28.082,73.009,25.8,71.767,25.8,71.767z"/>
		<path fill="#231815" d="M28.605,73.522l-0.176-0.002c-3.445-0.09-6.212-2.721-6.17-5.869c0.02-1.488,0.664-2.883,1.812-3.93
			c0.291-0.266,0.738-0.257,1.019,0.02c0.906,0.892,2.137,1.401,3.469,1.435l0.145,0.002c1.27,0,2.458-0.446,3.345-1.253
			c0.292-0.266,0.74-0.258,1.021,0.02c1.116,1.1,1.72,2.523,1.7,4.008C34.727,71.075,32.019,73.522,28.605,73.522z M24.619,65.294
			c-0.559,0.689-0.866,1.512-0.878,2.377c-0.032,2.342,2.088,4.299,4.726,4.367l0.139,0.002c2.594,0,4.651-1.805,4.681-4.107
			c0.012-0.869-0.277-1.719-0.826-2.443c-1.071,0.76-2.379,1.17-3.755,1.17c-0.001,0-0.001,0-0.001,0l-0.184-0.004
			C27.075,66.622,25.714,66.142,24.619,65.294z"/>
		<path fill="#231815" d="M32.913,63.802c-0.422-0.366-0.915-0.853-1.5-0.893c-1.294-0.089-2.282,0.617-3.671,0.343
			c-0.57-0.112-1.527-0.88-2.164-0.528c-0.878,0.486-1.253,0.712-1.889,1.454c-0.619,0.722,0.424,1.775,1.048,1.048
			c0.388-0.453,0.735-0.816,1.299-1.061c0.031-0.014,1.737,0.6,1.866,0.625c1.279,0.254,2.999-0.775,3.964,0.059
			C32.584,65.471,33.637,64.427,32.913,63.802L32.913,63.802z"/>
		<g>
			<path fill="#C2C0BF" d="M25.563,70.868c0.351-0.387,0.834-0.609,1.202-0.979c0.147-0.148,0.258-0.322,0.413-0.465
				c0.2-0.184,0.482-0.262,0.734-0.342c0.228-0.07,0.13-0.426-0.098-0.355c-0.455,0.139-0.82,0.318-1.134,0.684
				c-0.405,0.473-0.962,0.738-1.378,1.195C25.142,70.782,25.403,71.046,25.563,70.868L25.563,70.868z"/>
			<path fill="#C2C0BF" d="M28.845,69.632c0.215,0.297,0.066,0.744,0.021,1.074c-0.041,0.299-0.042,0.576,0.077,0.854
				c0.094,0.219,0.414,0.031,0.32-0.188c-0.262-0.609,0.326-1.346-0.098-1.928C29.025,69.253,28.703,69.438,28.845,69.632
				L28.845,69.632z"/>
			<path fill="#C2C0BF" d="M28.272,68.12c-0.226-0.307-0.526-0.502-0.861-0.674c-0.339-0.174-0.829-0.307-1.055-0.635
				c-0.134-0.195-0.456-0.012-0.32,0.186c0.456,0.664,1.438,0.662,1.916,1.309C28.092,68.495,28.414,68.312,28.272,68.12
				L28.272,68.12z"/>
			<path fill="#C2C0BF" d="M29.759,69.255c0.408,0.217,0.872,0.289,1.275,0.516c0.309,0.176,0.576,0.363,0.948,0.324
				c0.235-0.025,0.238-0.396,0-0.371c-0.372,0.039-0.657-0.229-0.973-0.385c-0.343-0.166-0.725-0.225-1.064-0.404
				C29.735,68.823,29.547,69.144,29.759,69.255L29.759,69.255z"/>
			<path fill="#C2C0BF" d="M29.752,68.341c0.283-0.506,0.799-0.641,1.305-0.834c0.445-0.166,0.82-0.51,1.156-0.834
				c0.172-0.168-0.09-0.428-0.263-0.262c-0.48,0.463-0.955,0.709-1.567,0.953c-0.407,0.162-0.736,0.404-0.951,0.787
				C29.316,68.36,29.636,68.548,29.752,68.341L29.752,68.341z"/>
			<path fill="#060001" d="M29.564,68.149c0.281-0.504,0.799-0.637,1.304-0.828c0.445-0.17,0.82-0.516,1.156-0.842
				c0.172-0.166-0.091-0.427-0.262-0.262c-0.479,0.467-0.954,0.715-1.567,0.957c-0.406,0.162-0.736,0.402-0.95,0.787
				C29.128,68.173,29.449,68.358,29.564,68.149L29.564,68.149z"/>
			<path fill="#060001" d="M28.442,67.952c-0.226-0.305-0.526-0.502-0.861-0.672c-0.339-0.174-0.83-0.307-1.056-0.635
				c-0.134-0.193-0.456-0.01-0.319,0.188c0.458,0.66,1.438,0.658,1.917,1.307C28.262,68.329,28.584,68.146,28.442,67.952
				L28.442,67.952z"/>
			<path fill="#060001" d="M28.175,68.712c-0.454,0.141-0.82,0.316-1.133,0.684c-0.407,0.473-0.964,0.74-1.379,1.197
				c-0.16,0.176,0.101,0.439,0.262,0.262c0.352-0.387,0.836-0.609,1.203-0.979c0.146-0.15,0.257-0.324,0.411-0.465
				c0.2-0.184,0.483-0.264,0.735-0.342C28.501,69.001,28.403,68.642,28.175,68.712L28.175,68.712z"/>
			<path fill="#060001" d="M28.99,69.517c0.215,0.297,0.066,0.744,0.021,1.078c-0.041,0.299-0.042,0.572,0.076,0.854
				c0.093,0.219,0.413,0.027,0.32-0.189c-0.261-0.609,0.326-1.344-0.097-1.928C29.171,69.14,28.85,69.323,28.99,69.517L28.99,69.517
				z"/>
			<path fill="#060001" d="M29.908,69.067c0.408,0.221,0.872,0.293,1.275,0.52c0.312,0.174,0.577,0.359,0.948,0.32
				c0.234-0.025,0.237-0.396,0-0.371c-0.372,0.041-0.656-0.225-0.971-0.381c-0.344-0.166-0.727-0.225-1.066-0.406
				C29.884,68.636,29.698,68.956,29.908,69.067L29.908,69.067z"/>
		</g>
	</g>
	<path fill="#231815" d="M34.809,65.974c0.051,0.105,0.104,0.215,0.157,0.32c0.089-0.337,0.176-0.676,0.266-1.015
		c-1.295,0.624-5.147,2.304-3.557,4.306c1.874,2.357,4.626-0.941,6.084-2.115c-0.387-0.049-0.775-0.1-1.163-0.148
		c0.07,0.096,0.14,0.188,0.211,0.285c0.038-0.301,0.076-0.6,0.114-0.9c-1.008,0.826-2.473,2.834-3.954,2.527
		c-1.53-0.316,0.742-1.881,1.096-2.094c0.566-0.338,1.168-0.613,1.76-0.9c0.859-0.42,0.106-1.697-0.748-1.28
		c-1.529,0.745-5.464,2.538-3.695,4.823c2.037,2.635,4.955-0.689,6.589-2.025c0.235-0.193,0.297-0.652,0.116-0.898
		c-0.07-0.096-0.14-0.189-0.209-0.287c-0.302-0.41-0.765-0.47-1.163-0.148c-0.665,0.533-2.851,3.156-3.802,2.352
		c-0.509-0.432,2.698-2.035,3.069-2.215c0.383-0.184,0.431-0.675,0.265-1.014c-0.051-0.107-0.104-0.215-0.156-0.321
		C35.668,64.366,34.39,65.117,34.809,65.974z"/>
	<path fill="#231815" d="M38.003,65.868l-0.132,0.227c-0.065,0.119-1.651,2.893-3.158,3.404c-0.768,0.26-1.452,0.371-1.926,0.316
		c-0.333-0.037-0.557-0.156-0.667-0.357c-0.111-0.197-0.093-0.451,0.048-0.752c0.49-1.039,2.097-2.734,2.947-2.941
		c0.573-0.139,1.707-0.039,2.329,0.033L38.003,65.868z"/>
	<g>
		<path fill="#231815" d="M23.211,67.073c0.741,0.986,2.469,1.729,1.729,2.963c-0.495,0.742-2.593,0.617-3.458,0.617
			c-1.358,0-6.421-2.594-3.705-3.705L23.211,67.073z"/>
		<path fill="#231815" d="M22.687,67.599c0.161,0.191,2.114,1.854,1.428,2.133c-0.783,0.32-1.805,0.189-2.634,0.18
			c-1.215-0.008-2.795-1.02-3.597-1.867c-0.344-0.361-0.02-0.352,0.321-0.344c0.622,0.014,1.245,0.027,1.868,0.043
			c1.045,0.025,2.091,0.047,3.137,0.072c0.956,0.021,0.954-1.463,0-1.482c-1.758-0.041-3.515-0.08-5.271-0.121
			c-0.63-0.014-1.528,0.523-1.641,1.199c-0.154,0.936,0.375,1.6,1.066,2.172c1.842,1.523,3.997,2.01,6.327,1.742
			c0.931-0.107,2.324-0.656,2.17-1.869c-0.174-1.357-1.306-1.932-2.127-2.906C23.119,65.817,22.076,66.872,22.687,67.599z"/>
	</g>
	<g>
		<path fill="#C2C0BF" d="M66.499,69.2c-0.615-0.561-1.406-0.83-1.986-1.438c-0.422-0.441-0.938-0.625-1.522-0.742
			c-0.234-0.045-0.333,0.313-0.098,0.359c0.719,0.143,1.131,0.43,1.648,0.939c0.488,0.48,1.187,0.68,1.696,1.143
			C66.413,69.624,66.676,69.362,66.499,69.2L66.499,69.2z"/>
		<path fill="#C2C0BF" d="M61.482,68.173c-0.422,0.904,0.466,1.811,0.259,2.73c-0.053,0.232,0.305,0.332,0.356,0.098
			c0.085-0.371,0.019-0.729-0.073-1.09c-0.119-0.459-0.439-1.084-0.223-1.553C61.902,68.144,61.583,67.956,61.482,68.173
			L61.482,68.173z"/>
		<path fill="#C2C0BF" d="M62.646,66.374c0.448-0.953,1.722-1.178,2.131-2.13c0.094-0.216-0.226-0.405-0.319-0.187
			c-0.198,0.457-0.691,0.725-1.077,1.006c-0.422,0.304-0.828,0.643-1.054,1.125C62.227,66.403,62.544,66.591,62.646,66.374
			L62.646,66.374z"/>
		<path fill="#C2C0BF" d="M60.357,67.663c-0.369,0.297-0.814,0.465-1.213,0.713c-0.388,0.242-0.657,0.715-1.157,0.717
			c-0.239,0-0.239,0.371,0,0.369c0.443-0.002,0.738-0.248,1.056-0.531c0.472-0.422,1.084-0.611,1.576-1.006
			C60.806,67.776,60.542,67.517,60.357,67.663L60.357,67.663z"/>
		<path fill="#C2C0BF" d="M60.797,66.481c-0.295-0.421-0.654-0.668-1.132-0.857c-0.301-0.121-0.629-0.174-0.942-0.258
			c-0.529-0.142-1.011-0.529-1.429-0.867c-0.184-0.148-0.446,0.112-0.261,0.262c0.423,0.344,0.871,0.699,1.388,0.889
			c0.755,0.277,1.55,0.299,2.057,1.02C60.614,66.862,60.935,66.679,60.797,66.481L60.797,66.481z"/>
		<path fill="#060001" d="M60.994,66.188c-0.296-0.422-0.656-0.668-1.133-0.859c-0.301-0.121-0.629-0.174-0.942-0.257
			c-0.528-0.143-1.011-0.53-1.427-0.868c-0.185-0.148-0.447,0.113-0.262,0.263c0.422,0.343,0.87,0.698,1.387,0.888
			c0.756,0.277,1.551,0.301,2.058,1.02C60.81,66.567,61.132,66.384,60.994,66.188L60.994,66.188z"/>
		<path fill="#060001" d="M62.398,66.174c0.447-0.956,1.722-1.179,2.13-2.131c0.094-0.217-0.225-0.405-0.319-0.187
			c-0.197,0.457-0.69,0.727-1.076,1.006c-0.422,0.305-0.828,0.645-1.054,1.125C61.978,66.202,62.297,66.391,62.398,66.174
			L62.398,66.174z"/>
		<path fill="#060001" d="M62.438,67.419c0.719,0.143,1.13,0.428,1.647,0.939c0.489,0.48,1.188,0.678,1.696,1.143
			c0.176,0.162,0.439-0.1,0.263-0.262c-0.615-0.559-1.406-0.828-1.987-1.439c-0.42-0.441-0.935-0.623-1.521-0.738
			C62.303,67.015,62.203,67.374,62.438,67.419L62.438,67.419z"/>
		<path fill="#060001" d="M61.275,68.04c-0.422,0.906,0.47,1.811,0.261,2.73c-0.054,0.232,0.305,0.33,0.357,0.098
			c0.084-0.373,0.019-0.725-0.075-1.09c-0.118-0.459-0.439-1.084-0.221-1.551C61.697,68.011,61.378,67.823,61.275,68.04
			L61.275,68.04z"/>
		<path fill="#060001" d="M60.131,67.433c-0.367,0.293-0.813,0.461-1.212,0.711c-0.387,0.244-0.658,0.713-1.156,0.715
			c-0.239,0.002-0.239,0.373,0,0.371c0.443,0,0.737-0.248,1.055-0.531c0.473-0.422,1.085-0.609,1.577-1.004
			C60.58,67.546,60.317,67.282,60.131,67.433L60.131,67.433z"/>
	</g>
</g>
</svg>
