<?xml version="1.0" encoding="utf-8"?>
<!-- Generator: Adobe Illustrator 16.0.0, SVG Export Plug-In . SVG Version: 6.00 Build 0)  -->
<!DOCTYPE svg PUBLIC "-//W3C//DTD SVG 1.1//EN" "http://www.w3.org/Graphics/SVG/1.1/DTD/svg11.dtd">
<svg version="1.1" id="圖層_1" xmlns="http://www.w3.org/2000/svg" xmlns:xlink="http://www.w3.org/1999/xlink" x="0px" y="0px"
	 width="100px" height="100px" viewBox="0 0 100 100" enable-background="new 0 0 100 100" xml:space="preserve">
<g>
	<g>
		<g>
			<path fill="#231815" d="M77.058,48.707c0,0,1.002-1.997,2.198-1.625c1.193,0.372,3.23,1.795,1.923,2.882
				c-1.307,1.087-3.682,1.01-4.297,0.602C76.266,50.158,77.058,48.707,77.058,48.707z"/>
			<path fill="#FFFFFF" d="M52.862,49.685c0,0-1.798,2.968-0.878,4.993c0.921,2.021,0.105,4.352,8.239,4.902
				c5.139-0.156,16.438-1.697,18.135-4.666c0.987-2.4,1.626-4.916-1.196-6.207C75.846,49.503,52.564,47.564,52.862,49.685z"/>
			<path fill="#D5D6D5" d="M66.826,51.92c0,0-3.306,0.982,0.477,1.363c2.494,0.127,10.908-1.117,10.54-4.184
				C76.961,48.688,70.455,49.739,66.826,51.92z"/>
			<path fill="#FFFFFF" d="M52.726,42.081c0,0-6.96,8.865,7.882,9.978c1.313,0,12.398,1.145,16.973-4.059
				c1.296-2.292,2.13-5.035-1.166-5.854C74.199,41.695,53.583,40.983,52.726,42.081z"/>
			<path fill="#D5D6D5" d="M64.918,44.479c0,0-0.037,0.93,1.561,1.065c4.278-0.19,9.905-1.237,10.486-3.394
				C76.08,41.741,68.546,42.299,64.918,44.479z"/>
			<path fill="#FFFFFF" d="M52.509,32.495c0,0-3.973,5.772-0.789,8.836c2.044,1.749,5.812,3.474,14.495,2.778
				c6.255-0.876,10.826-1.912,11.986-4.5c0.318-2.793,0.924-5.05-4.095-6.093C69.087,32.475,53.063,30.964,52.509,32.495z"/>
			<path fill="#D5D6D5" d="M64.526,38.703c0,0,0.11,0.922,1.709,0.806c4.194-0.855,9.591-2.769,9.825-4.989
				C75.125,34.252,67.77,35.983,64.526,38.703z"/>
			<g>
				<path fill="#FFFFFF" d="M56.718,11.229c0,0-14.604,9.647-7.684,20.734c2.765,1.779,4.548,2.9,5.229,3.126
					c0.77,0.229,3.152,0.543,5.02-0.929c1.965-1.383,3.877-2.356,6.729-1.407c2.875,0.88,5.36,2.06,6.599,2.735
					c1.361-0.246,2.508-1.587,3.367-1.737c0.857-0.149,5.937-1.861,4.541-7.851c-1.396-5.989-4.047-15.525-15.925-17.323
					C62.2,8.281,57.104,10.959,56.718,11.229z"/>
				<path fill="#D5D6D5" d="M72.627,12.481c0,0,10.246,15.073,3.369,20.552c0,0,6.705-2.276,4.242-8.871
					C78.443,19.04,76.54,13.741,72.627,12.481z"/>
				<path fill="#231815" d="M55.027,34.491c-1.38-0.678-2.746-1.368-4.078-2.135c-3.19-1.842-3.404-5.021-2.748-8.377
					c1.228-6.278,6.501-11.73,12.353-13.971c6.446-2.468,12.35,2.1,15.96,7.046c2.171,2.977,3.092,6.417,3.527,10.017
					c0.449,3.734-2.023,5.401-5.118,6.375c-0.759,0.241-0.436,1.434,0.328,1.194c2.689-0.848,4.423-1.286,5.548-4.096
					c1.249-3.115,0.188-7.462-1.151-10.402c-2.746-6.019-9.121-12.986-16.459-11.98c-7.603,1.041-13.694,7.432-15.938,14.535
					c-0.809,2.562-1.215,6.497,0.593,8.772c1.564,1.969,4.359,3.009,6.558,4.091C55.116,35.911,55.743,34.842,55.027,34.491
					L55.027,34.491z"/>
				<g>
					<path fill="#231815" d="M61.139,33.347c0,0-2.633,2.57,0.939,4.334c3.31,1.329,4.489,1.627,6.956,0.92
						c2.467-0.709,3.34-0.742,3.622-1.848c0.28-1.106,1.954-3.498-2.386-4.412C65.93,31.424,62.104,32.086,61.139,33.347z"/>
					<path fill="#FFFFFF" d="M64.043,22.788c0,0-13.852,3.68-9.041,12.47c2.025,0.899,5.481,0.596,6.204,0
						c2.165-1.577,4.083-3.043,8.489-1.459c3.322,1.429,6.851,3.796,7.346,0.449c0.422-3.619,1.089-5.994-2.563-8.466
						C72.013,23.857,68.943,21.54,64.043,22.788z"/>
					<path fill="#231815" d="M60.224,35.208c-2.579,0.333-6.776,0.659-5.822-3.91c0.561-2.683,3.476-4.985,5.606-6.379
						c2.709-1.771,5.919-2.13,9.033-1.522c3.203,0.626,5.307,2.969,7.13,5.48c1.508,2.079,0.932,8.754-2.786,6.062
						c-1.436-1.04-3.001-1.62-4.71-2.064c-3.688-0.959-5.99,0.185-8.712,2.427c-0.436,0.36-0.059,1.051,0.439,1.058
						c0.015,0,0.031,0,0.045,0c0.798,0.011,0.797-1.226,0-1.237c-0.014,0-0.03,0-0.045-0.001c0.146,0.352,0.292,0.705,0.438,1.057
						c1.862-1.535,3.226-2.356,5.715-2.328c2.178,0.025,4.471,0.875,6.205,2.159c1.308,0.967,3.504,1.401,4.53-0.294
						c2.909-4.809-1.207-11.081-6.015-12.885c-6.473-2.429-12.862,0.264-16.848,5.663c-1.221,1.654-2.194,4.503-0.705,6.315
						c1.673,2.042,4.072,1.954,6.501,1.637C61.005,36.345,61.014,35.104,60.224,35.208L60.224,35.208z"/>
					<path fill="#231815" d="M59.726,36.068c0.51,2.566,5.012,3.667,7.161,3.637c2.169-0.029,7.087-1.363,6.646-4.224
						c-0.119-0.787-1.313-0.452-1.191,0.329c0.306,1.997-5.142,2.652-6.211,2.667c-1.354,0.018-4.904-1.19-5.211-2.738
						C60.764,34.957,59.571,35.288,59.726,36.068L59.726,36.068z"/>
				</g>
			</g>
			<g>
				<path fill="#231815" d="M60.169,22.165c-0.463-0.776-0.155-1.778-0.144-2.665c0.065-0.474,0.014-1.007,0.315-1.476
					c0.302-0.412,0.896-0.58,1.371-0.575c1.063-0.045,2.302,0.503,3.122,1.105c0.41,0.362,0.759,0.84,0.574,1.37
					c-0.244,0.648-0.961,0.994-1.556,1.283c-1.134,0.518-2.321,0.916-3.566,1.019c0.058,0.001,0.119-0.056,0.179-0.056"/>
			</g>
			<g>
				<path fill="#231815" d="M69.125,20.541c0.075-1.242,0.911-1.763,2.042-2.163c0.832-0.286,2.083-0.862,2.904-0.258
					c0.88,0.543,0.622,2.257,0.374,3.083c-0.373,1.297-1.555,1.163-2.555,0.676c-0.59-0.244-1.119-0.488-1.708-0.731
					c-0.353-0.123-0.708-0.247-0.999-0.547"/>
			</g>
			<path fill="#231815" d="M51.098,33.651c-1.556,2.958-2.033,6.867,1.167,9.012c3.572,2.395,9.615,2.729,13.735,2.095
				c3.439-0.53,10.068-0.437,12.099-3.983c1.169-2.036,2.005-5.679-0.877-6.446c-0.773-0.207-1.1,0.989-0.328,1.194
				c0.777,0.208,0.692,0.116,0.932,0.907c0.854,2.813-1.566,4.961-3.887,5.715c-2.243,0.726-4.882,0.817-7.205,1.254
				c-5.877,1.108-19.383,0.03-14.567-9.124C52.537,33.57,51.47,32.945,51.098,33.651L51.098,33.651z"/>
			<path fill="#231815" d="M75.875,42.514c4.262,0.903,1.634,5.313-0.64,6.611c-2.537,1.449-5.88,2.066-8.74,2.351
				c-5.094,0.51-18.673-0.367-13.552-8.665c0.421-0.681-0.65-1.301-1.07-0.625c-6.1,9.881,9.414,11.268,15.819,10.403
				c3.374-0.455,9.741-1.545,11.193-5.305c1.007-2.607,0.258-5.341-2.682-5.964C75.425,41.156,75.094,42.351,75.875,42.514
				L75.875,42.514z"/>
			<path fill="#231815" d="M76.971,49.13c4.819,3.241-1.048,7.456-4.213,8.225c-2.162,0.525-4.434,0.727-6.62,1.146
				c-2.536,0.486-5.012,0.342-7.567,0.17c-4.097-0.273-8.649-4.09-5.197-8.445c0.49-0.619-0.38-1.501-0.876-0.877
				c-2.143,2.705-1.753,6.128,0.564,8.628c2.568,2.764,8.873,2.359,12.146,1.93c4.186-0.555,9.702-0.818,12.855-3.941
				c2.659-2.635,2.585-5.852-0.467-7.906C76.934,47.613,76.314,48.687,76.971,49.13L76.971,49.13z"/>
			<path fill="#231815" d="M78.319,47.75c0.364-0.015,0.734-0.056,1.1-0.046c0.681,0.023,1.188,0.711,1.491,1.246
				c0.245,0.432-0.187,0.613-0.555,0.734c-0.202,0.066-0.403,0.089-0.616,0.094c-0.104,0.004-0.188-0.008-0.291-0.03
				c-0.154-0.036-0.103-0.075-0.051,0.006c-0.429-0.669-1.501-0.05-1.068,0.625c0.886,1.373,3.45,0.474,3.893-0.852
				c0.307-0.918-0.741-1.979-1.339-2.517c-0.721-0.644-1.68-0.535-2.563-0.497C77.524,46.547,77.521,47.788,78.319,47.75
				L78.319,47.75z"/>
			<g>
				<path fill="#231815" d="M78.921,33.741c2.747-0.326,5.037,1.521,4.496,4.404c-0.06,0.317-0.327,0.546-0.172,0.698
					c-0.149-0.145-0.263-0.351-0.381-0.521c-0.208-0.299-0.447-0.673-0.769-0.861c-0.577-0.339-2.191-0.298-2.169-1.09
					c0.025-0.798-1.215-0.796-1.237,0c-0.019,0.666,0.208,1.144,0.758,1.519c0.591,0.404,1.526,0.199,2.045,0.679
					c0.475,0.439,0.686,1.063,1.236,1.438c0.578,0.393,1.153-0.111,1.47-0.557c1.018-1.424,0.571-3.859-0.414-5.163
					c-1.077-1.43-3.149-1.986-4.863-1.785C78.139,32.596,78.129,33.834,78.921,33.741L78.921,33.741z"/>
				<path fill="#231815" d="M78.552,32.658c0,0-1.437,0.679-0.997,1.834c0.49,1.234,1.064,2.091,1.912,2.514s1.904,0.552,2.42,1.299
					c0.517,0.748,1.398,1.577,1.73,0.904c0.331-0.671,1.235-3.612-0.905-4.927C80.86,33.228,78.552,32.658,78.552,32.658z"/>
			</g>
			<path fill="#231815" d="M59.874,60.064c0,0.031,0,0.063,0,0.092c0.205-0.207,0.412-0.412,0.62-0.621c-0.031,0-0.061,0-0.092,0
				c-0.368,0-0.578,0.283-0.62,0.621c-0.227,1.842,0.688,4.324,2.979,3.963c1.885-0.301,2.305-2.57,2.412-4.145
				c0.055-0.76-0.968-0.752-1.215-0.162c-0.007-0.002-0.013-0.002-0.022-0.002c-0.537,0.584,0.338,1.463,0.875,0.871
				c0.163-0.174,0.251-0.322,0.342-0.543c-0.405-0.055-0.811-0.107-1.217-0.164c-0.062,0.887-0.194,2.498-1.176,2.881
				c-1.59,0.619-1.858-1.727-1.739-2.699c-0.206,0.207-0.413,0.41-0.618,0.615c0.031,0,0.061,0,0.092,0
				c0.336,0,0.617-0.279,0.617-0.615c0-0.029,0-0.061,0-0.092C61.111,59.266,59.874,59.266,59.874,60.064L59.874,60.064z"/>
			<path fill="#231815" d="M60.33,59.494c0,0,0.086,4.457,1.797,3.826c1.736-1.027,2.623-1.84,2.374-3.826
				C63.322,59.736,60.33,59.494,60.33,59.494z"/>
			<path fill="#231815" d="M74.563,57.75c0.01,0.029,0.019,0.057,0.03,0.084c0.102,0.303,0.429,0.549,0.76,0.434
				c0.029-0.012,0.057-0.021,0.085-0.031c-0.233-0.096-0.466-0.189-0.698-0.283c0.476,0.977,0.778,2.955-0.846,3.002
				c-1.046,0.033-1.746-1.684-2.073-2.453c-0.323,0.25-0.646,0.498-0.971,0.75c0.117,0.133,0.227,0.209,0.382,0.297
				c0.701,0.381,1.326-0.688,0.626-1.072c-0.044-0.033-0.088-0.066-0.135-0.1c-0.508-0.574-1.221,0.158-0.971,0.748
				c0.657,1.553,1.885,3.484,3.847,2.969c2.168-0.572,1.97-3.199,1.21-4.768c-0.115-0.234-0.454-0.367-0.7-0.283
				c-0.027,0.012-0.055,0.02-0.084,0.029c0.254,0.145,0.508,0.289,0.761,0.434c-0.009-0.029-0.021-0.057-0.03-0.088
				C75.502,56.668,74.306,56.992,74.563,57.75L74.563,57.75z"/>
			<path fill="#231815" d="M75.129,56.99c0,0,1.36,4.242-0.461,4.207c-1.977-0.416-3.078-0.896-3.486-2.855
				C72.377,58.188,75.129,56.99,75.129,56.99z"/>
		</g>
		<path fill="#231815" d="M60.113,15.95c1.604,0.241,5.559,3.079,6.822,1.036c0.315-0.51-0.488-0.976-0.802-0.468
			c-0.663,1.072-4.79-1.316-5.771-1.463C59.776,14.966,59.524,15.861,60.113,15.95L60.113,15.95z"/>
		<path fill="#231815" d="M68.564,17.713c1.551,0.699,3.432-0.635,4.751-1.341c0.528-0.282,0.059-1.083-0.468-0.801
			c-0.57,0.304-1.133,0.619-1.715,0.896c-0.547,0.26-1.483,0.721-2.099,0.444C68.493,16.669,68.022,17.468,68.564,17.713
			L68.564,17.713z"/>
		<path fill="#231815" d="M54.794,36.021c0.656,0.405,1.348,0.748,1.998,1.16c0.421,0.266,0.849,0.601,1.023,1.083
			c0.308,0.849-0.992,1.269-1.541,1.342c-1.772,0.232-3.591-0.413-5.319-0.713c-0.585-0.103-0.835,0.792-0.246,0.894
			c2.192,0.38,5.363,1.627,7.342,0.075c2.468-1.933-1.524-3.859-2.788-4.642C54.752,34.904,54.286,35.706,54.794,36.021
			L54.794,36.021z"/>
		<path fill="#231815" d="M50.484,38.973c0,0,3.08,1.137,4.564,1.1c1.487-0.039,4.412-0.614,2.729-2.7
			c-1.706-1.157-5.586-3.408-5.586-3.408S50.518,36.236,50.484,38.973z"/>
		<g>
			<path fill="#231815" d="M63.704,52.635c1.157,1.008,3.237,4.27,0.293,4.834c-2.602,0.496-5.878-3.293-6.584-5.377
				C57.413,52.092,61.888,51.971,63.704,52.635z"/>
		</g>
		<path fill="#231815" d="M83.649,42.146c1.255,0.707,2.291,1.765,3.244,2.833c0.973,1.091,2.537,2.951,2.304,4.548
			c-0.115,0.781,1.078,1.117,1.191,0.328c0.496-3.365-3.45-7.276-6.114-8.778C83.577,40.685,82.952,41.754,83.649,42.146
			L83.649,42.146z"/>
		<path fill="#231815" d="M85.984,40.762c1.598,0.938,2.817,2.693,3.863,4.172c0.95,1.345,2.592,3.539,2.354,5.297
			c-0.107,0.783,1.084,1.117,1.191,0.329c0.283-2.081-1.118-4.185-2.199-5.844c-1.184-1.816-2.679-3.903-4.584-5.023
			C85.919,39.287,85.299,40.357,85.984,40.762L85.984,40.762z"/>
		<g>
			<path fill="#469237" d="M87.548,54.553c0,0-1.666,3.703,0.946,4.85c1.595,0.408,7.311-1.33,8.831-2.236
				c-0.068-0.797-0.798-0.77-1.074-0.965c-0.278-0.195-2.127-4.018-2.125-4.242C94.127,51.736,87.548,54.553,87.548,54.553z"/>
			<path fill="#DDDE62" d="M94.82,51.225c0,0-1.063,2.945,1.199,4.48c1.354,0.645,2.187,0.936,2.594,0.375
				c0.403-0.561,0.508-0.824,0.599-1.547c0.088-0.725-1.519-3.113-2.786-3.309C95.158,51.031,94.82,51.225,94.82,51.225z"/>
			<path fill="#231815" d="M94.8,53.002c-0.285-0.68,0.139-1.232,0.797-1.48c0.55-0.209,1.14,0.09,1.59,0.381
				c0.734,0.477,1.3,1.488,1.595,2.285c0.527,1.426-0.806,2.184-2.007,1.602c-1.077-0.52-1.567-1.857-2.019-2.879
				c-0.32-0.73-1.388-0.1-1.069,0.623c0.714,1.623,1.679,3.502,3.662,3.715c2.003,0.213,3.148-1.578,2.625-3.391
				c-0.453-1.572-1.787-3.161-3.399-3.569c-1.708-0.433-3.709,1.271-2.968,3.044C93.91,54.057,95.106,53.738,94.8,53.002
				L94.8,53.002z"/>
			<path fill="#231815" d="M94.156,51.01c-2.311,1.32-5.328,1.527-7.362,3.324c-0.599,0.529,0.279,1.402,0.875,0.875
				c1.913-1.689,4.918-1.877,7.113-3.129C95.474,51.686,94.852,50.614,94.156,51.01L94.156,51.01z"/>
			<path fill="#231815" d="M97.651,56.242c-2.349,1.508-5.203,1.885-7.675,3.141c-0.712,0.363-0.086,1.432,0.624,1.068
				c2.475-1.258,5.316-1.627,7.678-3.139C98.945,56.883,98.326,55.811,97.651,56.242L97.651,56.242z"/>
			<path fill="#231815" d="M86.636,54.609c-1.063,2.754,0.417,5.615,3.453,5.818c0.798,0.055,0.792-1.184,0-1.236
				c-2.29-0.156-3.004-2.32-2.261-4.254C88.116,54.189,86.919,53.871,86.636,54.609L86.636,54.609z"/>
		</g>
		<path fill="#231815" d="M85.044,11.855c-0.504,0.481-1.249,1.071-1.99,1.053c-0.243-0.006-0.485-0.025-0.725-0.046
			c-0.096-0.008-0.189-0.021-0.283-0.04c-0.295-0.05-0.204-0.167-0.03,0.109c0.021,0.159,0.041,0.318,0.063,0.477
			c-0.035,0.058-0.07,0.116-0.104,0.173c0.534-0.59-0.339-1.468-0.874-0.875c-0.905,1,0.714,1.346,1.387,1.408
			c1.34,0.123,2.476-0.468,3.433-1.383C86.498,12.177,85.621,11.303,85.044,11.855L85.044,11.855z"/>
		<path fill="#231815" d="M87.675,12.241c-1.043,1.109-1.735,3.511-0.029,4.377c0.71,0.359,1.338-0.708,0.624-1.069
			c-0.904-0.458-0.219-1.901,0.28-2.432C89.096,12.536,88.223,11.659,87.675,12.241L87.675,12.241z"/>
		<path fill="#231815" d="M80.23,16.062c1.105-0.421,1.863,1.065,1.177,1.905c-0.499,0.613,0.371,1.494,0.876,0.875
			c0.706-0.866,0.788-1.931,0.281-2.921c-0.493-0.97-1.646-1.441-2.663-1.054C79.164,15.148,79.483,16.346,80.23,16.062
			L80.23,16.062z"/>
		<path fill="#231815" d="M87.262,17.94c-0.063-0.574-0.319-1.169-0.959-1.271c-0.655-0.104-1.226,0.242-1.714,0.638
			c-1.032,0.835-1.745,2.434-0.957,3.653c0.433,0.667,1.505,0.047,1.068-0.625c-0.417-0.644,0.021-1.393,0.48-1.888
			c0.201-0.217,0.464-0.437,0.733-0.533c0.157-0.056,0.111-0.043,0.171-0.027c-0.148-0.04-0.079-0.103-0.063,0.053
			C86.107,18.726,87.348,18.733,87.262,17.94L87.262,17.94z"/>
	</g>
	<g>
		<g>
			<g>
				<path fill="#ECD67D" d="M41.04,80.93l0.053-0.18c1.911-2.604,4.073-5.033,5.857-7.869c1.715-2.949,3.76-5.318,6.038-7.816
					c0.568-0.625,1.203-1.131,1.655-1.689c0.518-0.445,1.153-0.949,1.604-1.512c0.848,1.518,1.478,3.459,2.559,4.848
					c1.08,1.383,2.992,2.613,3.604,4.256c-0.231,0.133-1.112,0.473-1.464,0.668c-0.933,0.523-1.813,0.861-2.745,1.383
					c-1.4,0.783-2.916,1.631-4.496,2.361c-1.468,0.666-3.098,1.58-4.55,2.547c-0.815,0.451-1.501,1.141-2.369,1.783
					c-0.634,0.506-1.518,0.848-2.199,1.533c-0.754,0.578-1.505,1.148-2.308,1.904c-0.4,0.377-1.32,1.195-1.551,1.326"/>
			</g>
			<path fill="#BBAC6A" d="M53.309,65.543c0.688-2.459-1.43,2.572-7.64,8.271c-1.643,1.643-0.59,3.771-0.582,4.074
				c0.028,0.695,0.049,3.303,1.359,2.49c1.308-0.805,5.098-3.129,5.878-3.926c0.78-0.791,3.052-2.195,3.052-2.195
				S52.835,71.789,53.309,65.543z"/>
			<path fill="#231815" d="M41.812,81.143c0.365-1.252,2.523-3.254,3.377-4.391c1.148-1.521,2.21-3.07,3.208-4.695
				c2.263-3.689,5.439-6.564,8.416-9.625c-0.419-0.057-0.84-0.109-1.259-0.166c0.838,1.639,1.529,3.32,2.559,4.85
				c1.074,1.594,2.662,2.508,3.604,4.256c0.095-0.365,0.191-0.729,0.286-1.096c-4.112,1.854-8.244,3.973-12.136,6.246
				c-3.487,2.035-6.368,4.824-9.545,7.26c-0.809,0.621-0.013,2.016,0.809,1.387c2.826-2.166,5.455-4.568,8.428-6.553
				c4.066-2.715,8.792-4.947,13.255-6.955c0.408-0.186,0.478-0.744,0.288-1.096c-0.774-1.436-1.833-2.467-3.001-3.604
				c-1.528-1.49-2.214-3.645-3.162-5.502c-0.235-0.461-0.912-0.52-1.258-0.162c-2.766,2.842-5.508,5.568-7.875,8.779
				c-1.647,2.232-3.022,4.607-4.735,6.811c-0.806,1.035-2.426,2.527-2.804,3.832C39.978,81.711,41.525,82.133,41.812,81.143
				L41.812,81.143z"/>
			<path fill="#231815" d="M52.329,69.783c-0.363,0.584-1.622,1.203-2.123,1.756c-0.978,1.074-2.027,2.07-2.964,3.186
				c-1.673,1.986-3.459,4.029-4.925,6.168c-0.293,0.428,0.401,0.83,0.691,0.404c1.559-2.271,3.493-4.451,5.268-6.561
				c0.777-0.924,1.655-1.768,2.497-2.633c0.694-0.711,1.739-1.09,2.249-1.918C53.293,69.746,52.602,69.346,52.329,69.783
				L52.329,69.783z"/>
			<path fill="#231815" d="M52.561,72.807c-1.979,1.152-3.614,2.598-5.304,4.127c-1.479,1.334-2.736,2.959-4.201,4.264
				c-0.386,0.344,0.183,0.91,0.567,0.564c1.309-1.164,2.347-2.645,3.694-3.822c1.825-1.596,3.539-3.211,5.646-4.443
				C53.412,73.236,53.009,72.545,52.561,72.807L52.561,72.807z"/>
		</g>
		<g>
			<path id="身-上色_94_" fill="#ECD67D" d="M6.248,46.767c0,0-2.61,5.413-3.059,7.616c-0.45,2.205-1.056,8.568,0,10.846
				c1.054,2.281,7.567,7.291,7.367,7.789c-0.201,0.504-1.604,5.01-1.604,5.715c0,0.701-3.288,10.639,5.01,12.021
				c6.713,1.605,12.225,1.107,13.227,1.107c1.002,0,14.299-2.141,16.001-2.846c1.704-0.699,5.242-3.568,5.242-4.773
				c0-1.203,1.203-10.422-4.609-13.828c0,0,6.813-5.709,7.114-8.518c0.3-2.805,0.501-7.928-3.708-13.532
				c-5.211-4.805-6.112-4.002-11.924-5.404c-5.812-1.404-22.245-1.605-25.251,0C7.049,44.562,6.248,46.767,6.248,46.767z"/>
			<path fill="#BBAC6A" d="M43.188,70.713c1.137-0.926,2.727-1.543,3.609-2.711c1.831-2.412,3.958-4.912,4.477-7.846
				c0.417-2.365-0.838-4.119-1.781-6.291c-0.969-2.227-0.678-4.647-2.646-6.147c-1.208-0.92-2.356,1.344-1.167,2.248l0.993,1.305
				c1.753,2.357,2.739,5.752,2.332,8.262c-0.562,3.453-3.76,6.957-6.116,9.586C42.889,69.119,41.042,71.148,43.188,70.713z"/>
			<path fill="#BBAC6A" d="M42.207,72.117c2.723,2.326,4.705,6.545,4.207,10.236c0.033,2.861-1.551,5.469-1.571,5.717
				c-0.068,0.879,3.754-2.094,3.582-6.236c-0.18-4.336-1.24-8.549-4.554-11.379C42.994,67.91,41.05,71.133,42.207,72.117
				L42.207,72.117z"/>
			<g id="頭_391_">
				<path fill="#86B02E" d="M48.074,48.365c0-0.502,0.099-0.902,0.099-1.402c0.401-4.912-0.701-9.62-3.307-13.93
					c-2.706-4.609-7.014-8.015-12.424-8.918c-2.405-0.401-4.91-0.501-7.315-0.401c-2.505,0.1-5.11,0.401-7.516,1.003
					c-5.511,1.504-9.819,5.208-12.324,10.322c-1.102,2.202-1.904,4.707-2.005,7.211c-0.199,1.904,0.101,3.91,0.401,5.813h9.218
					l1.805-2.336l1.602,2.639h6.681l1.535-2.84l1.738,2.84h9.486l2.07-2.906l1.336,2.906H48.074z"/>
			</g>
			<path fill="#75942F" d="M29.454,25.079c3.921,0.694,7.338,2.629,10.409,5.17c2.539,2.101,3.618,5.131,4.63,8.146
				c1.063,3.169,0.784,6.042,1.161,9.285c0.342-0.342,0.686-0.686,1.029-1.031c-0.042,0-0.086,0-0.128,0
				c-1.329,0-1.329,2.063,0,2.063c0.042,0,0.086,0,0.128,0c0.512,0,1.093-0.473,1.03-1.031c-0.402-3.465-0.077-6.46-1.236-9.833
				c-1.026-2.988-2.052-5.609-4.123-8.061c-2.954-3.495-7.935-5.91-12.352-6.692C28.702,22.862,28.149,24.848,29.454,25.079
				L29.454,25.079z"/>
			<path fill="#75942F" d="M26.25,24.359c3.769,0.9,6.956,2.171,10.189,4.414c3.026,2.099,5.269,5.098,6.313,8.64
				c0.501,1.703,1.149,3.274,1.305,5.064c0.147,1.736-0.07,3.465,0.132,5.203c0.257-0.256,0.514-0.514,0.771-0.771
				c-0.042,0-0.085,0-0.129,0c-0.995,0-0.995,1.543,0,1.543c0.044,0,0.086,0,0.129,0c0.386,0,0.822-0.352,0.773-0.771
				c-0.201-1.732-0.09-3.459-0.132-5.203c-0.048-1.89-0.781-3.698-1.361-5.473c-1.004-3.072-2.622-5.839-5.035-8.03
				c-3.611-3.271-7.916-4.732-12.553-5.836C25.684,22.908,25.28,24.133,26.25,24.359L26.25,24.359z"/>
			<path fill="#231815" d="M48.875,48.365c0.498-6.968-1.023-13.136-5.396-18.682c-4.502-5.712-11.488-6.939-18.352-6.77
				C10.772,23.261,0.714,33.701,2.911,48.275c0.051,0.35,0.449,0.592,0.773,0.592c2.685,0,5.371,0,8.056,0
				c2.068,0,2.38-1.08,3.659-2.738c-0.462,0-0.924,0-1.385,0c0.5,0.824,1.22,3.035,2.409,3.035c2.188,0,4.379,0,6.568,0
				c0.275,0,0.558-0.148,0.692-0.395c0.512-0.947,1.023-1.895,1.537-2.84c-0.462,0-0.923,0-1.385,0
				c0.483,0.787,1.234,2.938,2.216,3.209c1.453,0.396,3.467,0.025,4.957,0.025c1.491,0,3.503,0.371,4.957-0.025
				c1.038-0.289,1.97-2.463,2.549-3.277c-0.46,0-0.923,0-1.384,0c0.445,0.971,0.891,1.939,1.336,2.908
				c0.115,0.248,0.431,0.395,0.692,0.395c2.972,0,5.945,0,8.919,0c1.034,0,1.034-1.602,0-1.602c-2.124,0-4.247,0-6.37,0
				c-0.82,0-1.639,0-2.46,0c0.842,0,0.336-0.188-0.064-1.057c-0.224-0.484-0.445-0.969-0.669-1.451
				c-0.275-0.598-1.071-0.439-1.384,0c-0.271,0.381-0.542,0.762-0.815,1.141c-0.576,0.811-1.511,1.367-0.648,1.367
				c-1.552,0-3.105,0-4.658,0c-1.473,0-2.945,0-4.418,0c-0.421-0.035-0.33,0.045,0.271,0.238c-0.195-0.318-0.391-0.637-0.586-0.959
				c-0.351-0.574-0.702-1.15-1.053-1.721c-0.305-0.5-1.091-0.545-1.385,0c-0.483,0.893-0.967,1.785-1.451,2.68
				c0.242-0.447,0.741-0.238-0.295-0.238c-0.685,0-1.368,0-2.053,0c-1.204,0-2.409,0-3.612,0c0.773,0,0.254-0.139-0.223-0.924
				c-0.266-0.438-0.534-0.879-0.801-1.316c-0.342-0.564-1.025-0.469-1.385,0c-0.444,0.576-0.89,1.152-1.335,1.73
				c-0.641,0.83,0.642,0.209-0.459,0.209c-2.049,0-4.097,0-6.145,0c-0.692,0-1.384,0-2.075,0c-0.212,0,0.252-6.569,0.375-7.29
				c0.69-4.038,3.184-7.762,6.104-10.524c6.191-5.859,18.401-6.51,25.915-3.282c8.526,3.657,11.481,13.745,10.879,22.2
				C47.198,49.396,48.801,49.39,48.875,48.365z"/>
			<path fill="#231815" d="M46.073,88.635c3.298-3.148,3.431-5.336,3.38-9.727c-0.038-3.354-2.026-7.635-5.127-9.162
				c0.054,0.416,0.108,0.838,0.162,1.258c2.843-2.59,5.547-4.934,7.128-8.639c1.479-3.469,0.587-6.773-0.955-9.932
				c-0.702-1.438-2.025-4.502-3.925-4.674c-2.431-0.221-4.861-0.439-7.292-0.658c-1.03-0.094-1.021,1.512,0,1.604
				c1.404,0.125,2.81,0.254,4.214,0.379c2.061,0.188,2.916-0.08,3.632,1.094c2.329,3.819,5.481,8.618,2,13.004
				c-0.733,0.924-1.353,1.904-1.951,2.924c-1.082,1.836-2.518,2.426-3.986,3.764c-0.365,0.336-0.29,1.035,0.163,1.26
				c3.228,1.59,4.313,5.881,4.348,9.064c0.039,3.283-0.468,4.965-2.924,7.305C44.19,88.213,45.326,89.346,46.073,88.635
				L46.073,88.635z"/>
			<path fill="#231815" d="M4.783,47.96c-3.47,5.627-5.591,14.764-0.821,20.411c1.417,1.676,3.026,2.928,4.884,4.076
				c1.713,1.053,0.305,2.619-0.105,4.236C7.705,80.77,6.567,85.277,8.88,89.125c0.532,0.885,1.919,0.076,1.385-0.814
				c-1.996-3.313-1.415-10.508,1.016-13.656c1.169-1.514,0.47-2.443-1-3.254c-8.72-4.803-8.89-14.879-4.114-22.631
				C6.711,47.884,5.323,47.08,4.783,47.96L4.783,47.96z"/>
			<path fill="#E4937B" d="M5.983,61.568c0,0,8.565,1.279,11.504-0.793c0,0-1.873,1.561-3.674,2.564
				C12.622,63.643,8.929,62.797,5.983,61.568z"/>
			<path fill="#E4937B" d="M39.636,61.758c0,0-8.548,1.391-11.514-0.645c0,0,1.893,1.533,3.709,2.516
				C33.024,63.918,36.705,63.023,39.636,61.758z"/>
			<g>
				<path fill="#D99457" d="M15.758,67.418c1.093-2.996,3.903-6.475,7.549-5.547c1.677,0.43,4.343,1.229,4.59,2.971
					c0.335,1.684,0.482,4.047-0.944,4.977c-1.812,1.307-5.885,1.199-7.346,0.123c1.092-0.076,2.561-0.859,3.483-1.588
					c1.042-0.932,0.167-1.885-0.862-2.104c-1.146-0.393-2.647-0.557-3.86-0.275c-0.977,0.254-1.571,0.994-2.522,1.488"/>
				<path fill="#231815" d="M16.416,67.602c0.738-1.863,1.843-3.479,3.534-4.584c1.919-1.254,4.572-0.309,6.365,0.736
					c1.078,0.629,1.056,1.887,1.123,2.922c0.106,1.641-0.563,2.627-2.093,3.135c-1.625,0.537-3.92,0.445-5.393-0.461
					c-0.054,0.418-0.108,0.834-0.162,1.248c1.851-0.301,5.408-1.754,4.076-4.123c-0.504-0.9-2.27-1.184-3.141-1.256
					c-2.252-0.186-3.368,0.516-5.221,1.652c-0.749,0.457-0.064,1.639,0.687,1.178c1.8-1.105,2.901-1.754,5.133-1.348
					c1.139,0.205,1.302,1.193,0.355,1.783c-0.691,0.428-1.455,0.67-2.251,0.799c-0.615,0.1-0.621,0.961-0.162,1.244
					c2.203,1.354,5.329,1.168,7.612,0.137c2.127-0.959,2.582-4.822,1.466-6.662c-1.236-2.039-4.852-3.428-7.172-2.877
					c-3.068,0.725-4.956,3.309-6.069,6.111C14.775,68.055,16.094,68.406,16.416,67.602L16.416,67.602z"/>
			</g>
			<path fill="#BBAC6A" d="M16.073,85.559c0,0,6.061,2.758,9.745,1.895c3.431,0.863,9.359,1.914,12.433-0.094
				c3.074-2.068,4.936-5.832,4.843-7.145c0,0-4.088,7.834-14.653,6.322c-2.197-0.711-4.717-0.689-5.43-0.602
				C22.298,86.021,16.073,85.559,16.073,85.559z"/>
		</g>
		<path fill="#231815" d="M14.414,52.766c1.047,0.588,1.94,1.379,3.071,1.814c1.281,0.49,2.492-0.189,3.317-1.141
			c0.672-0.779-0.457-1.92-1.134-1.137c-0.73,0.846-1.328,0.998-2.302,0.467c-0.748-0.4-1.399-0.971-2.141-1.387
			C14.322,50.873,13.514,52.26,14.414,52.766L14.414,52.766z"/>
		<path fill="#231815" d="M24.339,54.365c2.193,1.502,4.658-1.43,6.321-2.506c0.864-0.561,0.063-1.95-0.809-1.383
			c-1.012,0.653-3.422,3.379-4.702,2.506C24.293,52.395,23.492,53.783,24.339,54.365L24.339,54.365z"/>
		<g>
			<path fill="#FFFFFF" d="M18.458,57.328c0.966-1.006-5.428-1.59-6.897-1.188C11.561,56.141,13.975,61.998,18.458,57.328z"/>
			<path fill="#231815" d="M19.149,57.734c1.872-2.432-6.73-2.619-7.802-2.367c-0.384,0.09-0.726,0.596-0.56,0.988
				c0.484,1.148,1.228,2.135,2.223,2.887c2.056,1.557,4.455,0.211,6.015-1.346c0.733-0.73-0.401-1.865-1.134-1.135
				c-1.185,1.182-2.743,2.219-4.243,0.957c-0.392-0.33-0.698-0.742-0.969-1.172c-0.084-0.137-0.489-0.957-0.345-0.617
				c-0.187,0.328-0.373,0.654-0.56,0.984c0.958-0.225,2.042-0.1,3.012-0.025c0.662,0.049,1.318,0.139,1.969,0.266
				c0.225,0.043,0.445,0.102,0.664,0.162c0.109,0.029,0.217,0.063,0.323,0.105c0.267,0.18,0.275,0.014,0.024-0.494
				C17.135,57.746,18.529,58.543,19.149,57.734z"/>
		</g>
		<g>
			<path fill="#FFFFFF" d="M33.482,56.412c0.891-1.236-5.732,0.377-7.096,0.664C26.386,57.076,28.993,62.627,33.482,56.412z"/>
			<path fill="#231815" d="M34.176,56.814c0.999-1.678-1.527-1.693-2.463-1.582c-1.87,0.219-3.703,0.676-5.539,1.072
				c-0.54,0.115-0.691,0.734-0.479,1.178c0.492,1.023,1.38,1.971,2.433,2.408C30.658,60.949,32.806,58.643,34.176,56.814
				c0.62-0.83-0.773-1.627-1.385-0.809c-0.964,1.289-2.612,3.277-4.392,2.232c-0.576-0.34-1.034-0.973-1.32-1.566
				c-0.16,0.395-0.319,0.785-0.479,1.176c1.038-0.221,2.073-0.461,3.116-0.668c0.662-0.135,1.328-0.256,1.998-0.346
				c0.302-0.037,0.604-0.063,0.908-0.076c0.971-0.051-0.369,0.15,0.17-0.752C32.261,56.896,33.646,57.703,34.176,56.814z"/>
		</g>
		<g>
			<g>
				<path fill="#ABD6D8" d="M5.808,76.061c0.646-0.479,1.719-1.256,2.476-1.979c0.862-0.781,1.808-2.855,2.968-2.828
					c-0.013,0.553-0.339,1.039-0.403,1.529c1.014-0.408,2.541-2.533,3.486-2.266c-0.347,1.348,0.177,1.547,0.992,0.637
					c0.702-0.783,1.216-2.436,2.277-2.658c1.117-0.283,0.724,0.695,0.181,1.361c-0.653,0.848-0.765,2.148-1.573,2.748
					c-1.988,1.498-3.978,2.996-5.763,4.865c-1.462,1.506-2.665,3.387-4.227,4.771c-1.352,1.326-3.533,3.42-5.39,3.688
					c0.238-1.162,0.783-1.955,1.488-2.736c0.544-0.67,1.88-1.441,2.114-2.355c0.113-0.371-0.198-0.686-0.03-1.111
					c0.17-0.49,0.652-0.787,0.975-1.027c0.27-0.301,1.129-0.896,0.558-1.342c-0.314-0.256-0.751,0.537-1.06,0.1
					C4.878,77.457,5.483,76.598,5.808,76.061z"/>
			</g>
			<g>
				<path fill="#231815" d="M19.012,68.268c-0.089-0.188-0.371-0.621-1.065-0.621c-0.166,0-0.342,0.025-0.507,0.068
					c-0.649,0.133-1.143,0.58-1.529,1.098c-0.227,0.301-0.376,0.699-0.607,0.982c-0.174,0.211-0.327,0.143-0.558,0.057
					c-0.569-0.209-1.354-0.074-1.839,0.303c-0.293,0.23-0.391,0.975-0.886,0.826c-0.297-0.09-0.015-0.262-0.167-0.471
					c-0.147-0.205-0.728-0.08-0.931-0.033c-0.355,0.088-0.685,0.252-0.977,0.469c-0.575,0.424-1.002,1.018-1.421,1.584
					C8.24,72.918,7.971,73.283,7.729,73.5c-0.764,0.695-1.637,1.25-2.41,1.926c-0.26,0.227-0.378,0.555-0.531,0.863
					c-0.103,0.207-0.258,0.387-0.36,0.586c-0.107,0.217-0.213,0.598-0.225,0.838c-0.013,0.248,0.17,0.43,0.406,0.557
					c-0.343,0.258-0.764,0.623-0.949,1.16c-0.185,0.467-0.087,0.863-0.031,1.104c0.012,0.045,0.026,0.088,0.03,0.104
					c-0.091,0.357-0.648,0.836-1.094,1.219C2.24,82.137,1.932,82.4,1.724,82.654c-0.607,0.744-1.164,1.457-1.479,2.381
					c-0.063,0.189-0.175,0.463-0.224,0.73c-0.039,0.205-0.041,0.406,0.042,0.555c0.285,0.51,1.188,0.365,1.653,0.217
					c0.688-0.221,1.332-0.602,1.925-1.01c1.134-0.775,2.135-1.725,3.111-2.684C7.705,82,8.521,80.994,9.31,80.021
					c0.577-0.713,1.122-1.381,1.718-1.998c1.74-1.822,3.732-3.324,5.663-4.773c0.645-0.479,0.94-1.209,1.203-1.854
					c0.162-0.4,0.316-0.775,0.513-1.033C18.784,69.9,19.366,69.01,19.012,68.268z M17.785,69.857
					c-0.653,0.848-0.765,2.148-1.573,2.748c-1.988,1.498-3.978,2.996-5.763,4.865c-1.462,1.506-2.665,3.387-4.227,4.771
					c-1.352,1.326-3.533,3.42-5.39,3.688c0.238-1.162,0.783-1.955,1.488-2.736c0.544-0.67,1.88-1.441,2.114-2.355
					c0.113-0.371-0.198-0.686-0.03-1.111c0.17-0.49,0.652-0.787,0.975-1.027c0.27-0.301,1.129-0.896,0.558-1.342
					c-0.314-0.256-0.751,0.537-1.06,0.1c0,0,0.604-0.859,0.93-1.396c0.646-0.479,1.719-1.256,2.476-1.979
					c0.862-0.781,1.808-2.855,2.968-2.828c-0.013,0.553-0.339,1.039-0.403,1.529c1.014-0.408,2.541-2.533,3.486-2.266
					c-0.347,1.348,0.177,1.547,0.992,0.637c0.702-0.783,1.216-2.436,2.277-2.658C18.72,68.213,18.328,69.191,17.785,69.857z"/>
			</g>
		</g>
		<g>
			<g>
				<path fill="#ABD6D8" d="M8.333,69.553c-0.554,0.406-3.425,3.855-4.235,2.207c-0.545-1.145,2.674-2.875,3.51-2.641L8.333,69.553z
					"/>
			</g>
			<g>
				<g>
					<path fill="#231815" d="M9.042,68.723c-0.343-0.26-0.815-0.262-1.218-0.377c-0.121-0.035-0.255-0.051-0.396-0.051
						c-1.084,0-3.167,1.08-3.891,2.229c-0.454,0.723-0.297,1.301-0.159,1.588c0.278,0.57,0.781,0.896,1.378,0.896
						c0.409,0,0.805-0.15,1.162-0.346c0.814-0.441,1.499-1.107,2.155-1.75c0.295-0.289,0.559-0.564,0.796-0.895
						c0.149-0.207,0.394-0.371,0.459-0.631C9.382,69.18,9.211,68.848,9.042,68.723z M4.099,71.76
						c-0.545-1.145,2.674-2.875,3.51-2.641l0.725,0.434C7.78,69.959,4.908,73.408,4.099,71.76z"/>
				</g>
			</g>
		</g>
		<g>
			<g>
				<path fill="#ABD6D8" d="M13.224,67.781c-0.359,0.039-2.571,0.85-2.504-0.113c0.053-0.664,1.97-0.602,2.29-0.277L13.224,67.781z"
					/>
			</g>
			<g>
				<g>
					<path fill="#231815" d="M13.92,67.307c-0.053-0.086-0.121-0.152-0.175-0.24c-0.03-0.047-0.049-0.119-0.087-0.156
						c0-0.004-0.076-0.078-0.076-0.078c-0.406-0.416-1.203-0.479-1.64-0.479c-1.783,0-2,0.959-2.023,1.26
						c-0.024,0.348,0.085,0.672,0.306,0.908c0.259,0.277,0.643,0.416,1.143,0.416c0.445,0,0.886-0.092,1.316-0.199
						c0.176-0.041,0.314-0.107,0.477-0.18c0.199-0.09,0.427-0.119,0.632-0.197c0.185-0.07,0.281-0.229,0.306-0.42
						C14.126,67.725,14.027,67.488,13.92,67.307z M10.719,67.668c0.053-0.664,1.97-0.602,2.29-0.277l0.215,0.391
						C12.864,67.82,10.653,68.631,10.719,67.668z"/>
				</g>
			</g>
		</g>
		<path fill="#231815" d="M18.824,77.492c1.865,1.297,3.721,1.498,5.925,1.115c2.85-0.498,5.979-2.76,8.754-0.928
			c0.864,0.574,1.667-0.814,0.809-1.383c-4.768-3.15-9.896,3.141-14.678-0.188C18.783,75.518,17.983,76.908,18.824,77.492
			L18.824,77.492z"/>
		<path fill="#231815" d="M10.245,82.432c2.959,2.289,6.694,4.316,10.485,4.434c1.389,0.041,3.88,0.139,5.193-0.391
			c1.607-0.643,3.103-3.77,4.917-3.287c1,0.271,1.425-1.275,0.426-1.543c-3.729-0.998-3.394,2.979-6.468,3.375
			c-4.907,0.633-9.496-0.688-13.418-3.719C10.572,80.676,9.429,81.801,10.245,82.432L10.245,82.432z"/>
		<path fill="#231815" d="M35.271,75.287c-1.92,2.098-2.624,5.01-4.742,6.955c-0.763,0.701,0.374,1.83,1.134,1.137
			c2.137-1.967,2.821-4.857,4.74-6.961C37.1,75.656,35.97,74.52,35.271,75.287L35.271,75.287z"/>
		<path fill="#231815" d="M42.293,77.074c-0.17,7.605-9.639,10.477-15.838,7.977c-0.958-0.387-1.372,1.166-0.425,1.547
			c7.329,2.959,17.674-0.854,17.866-9.523C43.918,76.037,42.315,76.041,42.293,77.074L42.293,77.074z"/>
		<path fill="#231815" d="M26.994,76.006c-0.988-0.951-2.212-1.42-3.587-1.262c-1.407,0.162-2.224,1.066-3.258,1.895
			c-0.808,0.648,0.334,1.773,1.134,1.135c0.675-0.541,1.149-1.105,2.009-1.387c0.935-0.301,1.898,0.109,2.569,0.752
			C26.606,77.855,27.742,76.721,26.994,76.006L26.994,76.006z"/>
	</g>
</g>
</svg>
