<?xml version="1.0" encoding="utf-8"?>
<!-- Generator: Adobe Illustrator 16.0.0, SVG Export Plug-In . SVG Version: 6.00 Build 0)  -->
<!DOCTYPE svg PUBLIC "-//W3C//DTD SVG 1.1//EN" "http://www.w3.org/Graphics/SVG/1.1/DTD/svg11.dtd">
<svg version="1.1" id="圖層_1" xmlns="http://www.w3.org/2000/svg" xmlns:xlink="http://www.w3.org/1999/xlink" x="0px" y="0px"
	 width="300px" height="300px" viewBox="0 0 300 300" enable-background="new 0 0 300 300" xml:space="preserve">
<path fill="#F08922" d="M-0.774,123.141h11.438v33.037c0,0-0.451,3.059,4.955,3.059h9.27v4.955H7.867c0,0-8.642-0.264-8.642-8.192
	V123.141z"/>
<path fill="#F08922" d="M29.665,146.729v-4.189h21.158c6.934,0,11.438-0.984,11.438-10.077c0-9.092-7.563-9.27-7.563-9.27H26.784
	c-9.249,0-8.453,8.819-8.453,8.819s0,6.756,0,14.58c0,7.825,9.019,8.38,9.019,8.38h33.34v-4.735H35.3
	C29.769,150.238,29.665,146.729,29.665,146.729z M30.114,131.332c0-3.509,4.599-3.425,4.599-3.425h9.427
	c0.932,0,6.662-0.565,6.662,4.504c0,5.07-3.781,5.311-3.781,5.311H30.094v-6.39H30.114z"/>
<path fill="#F08922" d="M111.753,146.132v-13.983c0-9.877-8.997-8.997-8.997-8.997H76.485c-8.841,0-8.568,7.332-8.568,7.332v15.607
	c0,9.228,8.83,8.83,8.83,8.83h25.736C112.339,154.931,111.753,146.132,111.753,146.132z M99.854,145.294
	c0,1.55,0.157,4.693-4.818,4.693H83.598c0,0-4.431-0.335-4.431-4.431v-13.512c0,0-0.398-4.116,4.19-4.116h12.475
	c2.273,0.017,4.103,1.874,4.085,4.147c0,0.13-0.008,0.259-0.021,0.388v12.831H99.854z"/>
<path fill="#F08922" d="M250.728,146.132v-13.983c0-9.877-8.997-8.997-8.997-8.997h-26.27c-8.841,0-8.568,7.332-8.568,7.332v15.607
	c0,9.228,8.84,8.83,8.84,8.83h25.736C251.325,154.931,250.728,146.132,250.728,146.132z M238.83,145.294
	c0,1.55,0.156,4.693-4.819,4.693h-11.438c0,0-4.431-0.335-4.431-4.431v-13.512c0,0-0.398-4.116,4.189-4.116h12.476
	c2.272,0.023,4.098,1.884,4.073,4.157c0,0.126-0.008,0.252-0.02,0.378v12.831H238.83z"/>
<path fill="#F08922" d="M117.503,154.92v-24.479c0,0,0.534-7.332,8.726-7.332h28.28c3.771,0.052,6.788,3.144,6.747,6.913v24.897
	h-11.334v-24.217c0-1.98-2.095-2.797-3.959-2.797h-12.747c-1.802,0-4.263,0.493-4.263,2.933v24.091h-11.522L117.503,154.92z"/>
<path fill="#F08922" d="M256.278,154.92v-24.479c0,0,0.534-7.332,8.737-7.332h28.281c3.769,0.052,6.786,3.144,6.745,6.913v24.897
	h-11.334v-24.217c0-1.98-2.095-2.797-3.959-2.797h-12.737c-1.802,0-4.263,0.493-4.263,2.933v24.091h-11.521L256.278,154.92z"/>
<path fill="#F08922" d="M168.115,123.141h11.313v4.326h15.335v4.944h-15.219v13.617c0,0-0.617,4.189,4.189,4.189h16.34v4.692
	h-23.421c0,0-8.295-0.063-8.295-8.295S168.115,123.141,168.115,123.141z"/>
<polygon fill="#F08922" points="-0.292,172.853 1.278,172.853 5.039,176.132 8.463,172.853 10.517,172.853 5.866,177.367 
	5.793,180.677 4.023,180.677 4.023,177.441 -0.774,172.853 "/>
<path fill="#F08922" d="M22.091,179.702v-4.188c-0.001-0.671-0.507-1.235-1.173-1.31h-7.332c-0.623,0.043-1.093,0.584-1.05,1.207
	c0,0.01,0.001,0.02,0.002,0.029v4.262c0,0.902,1.373,0.964,1.373,0.964l7.122,0.063c0.517,0.065,0.989-0.299,1.055-0.815
	C22.097,179.844,22.098,179.773,22.091,179.702z M20.509,179.566h-6.369v-4.337h6.369V179.566z"/>
<path fill="#F08922" d="M26.679,174.204h1.298v5.362h5.677v-5.362h1.373v5.362c0,0.579-0.469,1.047-1.048,1.047h-6.054
	c-0.658,0.051-1.23-0.444-1.279-1.101c-0.005-0.065-0.005-0.132,0.001-0.197C26.626,178.467,26.679,174.204,26.679,174.204z"/>
<path fill="#F08922" d="M45.303,178.216h1.173c0.462,0.106,0.923-0.182,1.03-0.644c0.007-0.032,0.013-0.066,0.017-0.1v-2.243
	c0.015-0.489-0.311-0.925-0.786-1.047h-6.85v6.463h1.236v-2.409h2.535l3.069,2.493h1.592L45.303,178.216z M41.187,177.398v-2.283
	h5.07v2.283H41.187z"/>
<path fill="#F08922" d="M68.095,172.853H60.5v7.824h1.53v-2.881h6.714c0.728-0.037,1.304-0.623,1.331-1.351v-2.241
	C70.075,174.204,70.19,172.853,68.095,172.853z M68.43,174.822v0.941c-0.038,0.42-0.367,0.754-0.785,0.797h-5.625v-2.356h5.332
	c1.31,0,1.09,0.618,1.09,0.618H68.43z"/>
<path fill="#F08922" d="M77.218,174.204h-1.047l-4.641,6.536l1.833-0.063l1.131-1.444h4.986l0.837,1.392h1.728L77.218,174.204z
	 M75.05,178.132l1.707-2.524l1.74,2.524h-3.499H75.05z"/>
<polygon fill="#F08922" points="96.344,174.204 96.344,175.377 99.843,175.377 99.843,180.677 101.467,180.677 101.467,175.377 
	104.923,175.377 104.923,174.204 "/>
<polygon fill="#F08922" points="207.154,174.204 207.154,175.377 210.653,175.377 210.653,180.677 212.286,180.677 212.286,175.377 
	215.732,175.377 215.732,174.204 "/>
<polygon fill="#F08922" points="108.17,174.204 108.17,180.677 109.647,180.677 109.647,176.017 115.66,180.677 117.042,180.677 
	117.042,174.204 115.66,174.204 115.702,179.064 109.595,174.204 "/>
<polygon fill="#F08922" points="277.386,174.204 277.386,180.677 278.861,180.677 278.861,176.236 284.885,180.677 286.257,180.677 
	286.257,174.204 284.885,174.204 284.885,178.739 278.81,174.204 "/>
<polygon fill="#F08922" points="121.672,174.204 121.672,180.677 129.518,180.677 129.518,179.83 123.159,179.777 123.159,178.038 
	126.804,178.038 126.804,177.053 123.107,177.053 123.107,175.324 129.518,175.324 129.518,174.204 "/>
<polygon fill="#F08922" points="197.067,174.204 197.067,180.677 204.902,180.677 204.902,179.83 198.543,179.777 198.543,178.038 
	202.2,178.038 202.2,177.053 198.503,177.053 198.503,175.324 204.902,175.324 204.902,174.204 "/>
<rect x="153.274" y="174.204" fill="#F08922" width="1.424" height="6.473"/>
<path fill="#F08922" d="M242.998,179.671v-4.188c-0.001-0.668-0.501-1.23-1.162-1.311h-7.332c-0.625,0.044-1.095,0.584-1.052,1.208
	c0.002,0.009,0.003,0.02,0.003,0.028v4.263c0,0.902,1.373,0.975,1.373,0.975s5.992,0.063,7.111,0.063
	c0.517,0.066,0.989-0.297,1.055-0.813C243.005,179.82,243.006,179.745,242.998,179.671z M241.427,179.535h-6.369v-4.337h6.369
	V179.535z"/>
<polygon fill="#F08922" points="217.702,174.172 219.336,174.172 221.357,178.592 223.766,174.172 224.804,174.172 226.982,178.592 
	229.245,174.172 230.711,174.204 227.662,180.677 226.29,180.708 224.207,176.771 222.237,180.677 220.708,180.677 "/>
<polygon fill="#F08922" points="259.505,174.172 259.505,180.677 260.982,180.677 260.982,178.185 265.812,180.677 268.481,180.677 
	262.563,177.441 267.989,174.204 265.926,174.204 261.035,176.802 261.035,174.172 "/>
<polygon fill="#F08922" points="271.688,174.172 272.818,174.172 272.871,180.677 271.729,180.677 "/>
<path fill="#F08922" d="M290.96,175.356c-0.019-0.619,0.469-1.136,1.087-1.154c0.031-0.001,0.064-0.001,0.098,0.002h6.556
	c0.856,0.093,1.476,0.864,1.383,1.722c-0.004,0.023-0.007,0.046-0.011,0.069h-1.425v-0.587h-6.357v4.263h6.357v-1.486h-3.142v-1.049
	h4.557v2.525c0.068,0.504-0.282,0.97-0.786,1.039c-0.031,0.004-0.063,0.007-0.094,0.008h-7.332
	c-0.448-0.061-0.809-0.402-0.891-0.848V175.356z"/>
<polygon fill="#F08922" points="158.804,174.235 158.804,180.708 160.281,180.708 160.281,176.057 166.294,180.708 167.675,180.708 
	167.675,174.235 166.294,174.235 166.335,179.106 160.229,174.235 "/>
<polygon fill="#F08922" points="181.23,172.895 181.23,180.708 183.011,180.708 183.011,175.084 190.28,180.708 191.956,180.708 
	191.956,172.895 190.28,172.895 190.333,178.75 182.959,172.895 "/>
<path fill="#F08922" d="M138.923,178.216h1.173c0.456,0.111,0.915-0.166,1.027-0.621c0.01-0.041,0.017-0.081,0.021-0.122v-2.243
	c0.015-0.489-0.311-0.925-0.786-1.047h-6.85v6.463h1.225v-2.409h2.545l3.058,2.493h1.592L138.923,178.216z M134.796,177.398v-2.283
	h5.081v2.283H134.796z"/>
<path fill="#F08922" d="M90.845,178.216h1.173c0.462,0.106,0.924-0.182,1.031-0.644c0.008-0.032,0.013-0.066,0.017-0.1v-2.243
	c0.015-0.489-0.311-0.925-0.785-1.047H85.42v6.463h1.226v-2.409h2.545l3.07,2.493h1.592L90.845,178.216z M86.729,177.398v-2.283
	h5.08v2.283H86.729z"/>
<path fill="#F08922" d="M252.604,178.174h1.172c0.463,0.107,0.925-0.179,1.032-0.643c0.007-0.03,0.013-0.061,0.017-0.09v-2.243
	c0.016-0.489-0.313-0.925-0.786-1.047h-6.902v6.441h1.226v-2.388h2.535l3.068,2.503h1.592L252.604,178.174z M248.486,177.367v-2.294
	h5.08v2.294H248.486z"/>
</svg>
