<?xml version="1.0" encoding="utf-8"?>
<!-- Generator: Adobe Illustrator 16.0.0, SVG Export Plug-In . SVG Version: 6.00 Build 0)  -->
<!DOCTYPE svg PUBLIC "-//W3C//DTD SVG 1.1//EN" "http://www.w3.org/Graphics/SVG/1.1/DTD/svg11.dtd">
<svg version="1.1" id="圖層_1" xmlns="http://www.w3.org/2000/svg" xmlns:xlink="http://www.w3.org/1999/xlink" x="0px" y="0px"
	 width="68.27px" height="68.268px" viewBox="0 0 68.27 68.268" enable-background="new 0 0 68.27 68.268" xml:space="preserve">
<g>
	<path fill="#004B8F" d="M30.987,48.107c0.385-1.518,0.852-2.935,1.093-4.389c0.605-3.649-1.044-7.03-4.352-8.647
		c-1.447-0.705-3.072-1.137-4.664-1.433c-1.793-0.334-3.259,0.88-3.428,2.549c-0.149,1.476,1.074,2.83,2.771,3.09
		c1.677,0.256,3.537,0.451,3.998,2.439c0.502,2.167-0.426,4.059-2.019,5.506c-1.701,1.548-3.848,2.24-6.078,2.634
		c-3.654,0.646-7.22,0.446-10.545-1.362c-4.185-2.277-6.259-6.071-7.227-10.535c-1.063-4.903-0.403-9.515,2.938-13.463
		c2.737-3.239,6.363-4.996,10.456-5.808c1.673-0.332,3.392-0.454,5.096-0.595c0.333-0.027,0.832,0.203,1.021,0.477
		c2.894,4.147,6.978,6.78,11.375,9.02c2.557,1.302,5.14,2.551,7.674,3.891c2.499,1.32,4.726,2.993,6.428,5.298
		c4.377,5.93-0.003,12.2-5.744,12.954C36.237,50.198,34.171,49.793,30.987,48.107z"/>
	<path fill="#004B8F" d="M50.186,50.32c0.848-1.962,1.934-3.788,2.431-5.764c1.064-4.218-0.182-8.021-2.756-11.435
		c-2.515-3.335-5.912-5.533-9.556-7.416c-3.243-1.678-6.51-3.312-9.704-5.075c-2.308-1.273-4.289-2.989-5.804-5.175
		c-1.339-1.933-2.113-4.053-1.565-6.428c0.588-2.549,2.413-4.049,4.682-5.059c5.914-2.631,12.659-0.003,14.569,5.772
		c0.398,1.209,0.372,2.635,0.229,3.927c-0.154,1.421-1.056,2.479-2.351,3.214c-1.583,0.899-2.027,2.453-1.23,3.896
		c0.794,1.438,2.425,1.98,3.931,0.998c1.313-0.857,2.44-2.026,3.553-3.155c0.449-0.456,0.756-0.848,1.485-0.932
		c9.024-1.038,17.482,3.819,19.573,13.146c1.218,5.427,0.464,10.51-3.861,14.479c-2.429,2.229-5.573,3.098-8.676,3.927
		C53.455,49.694,51.733,49.99,50.186,50.32z"/>
</g>
<g>
	<path fill-rule="evenodd" clip-rule="evenodd" fill="#004B8F" d="M12.167,66.355c-1.116,0.309-2.165,0.796-3.237,0.857
		c-2.687,0.155-4.5-1.654-4.433-4.344c0.047-1.865,0.651-3.569,2.02-4.911c1.612-1.582,3.547-1.89,5.641-1.258
		c1.174,0.354,1.865,1.241,2.052,2.448c0.041,0.259-0.215,0.8-0.342,0.803c-0.375,0.005-0.959-0.078-1.097-0.329
		c-1.247-2.267-3.982-2.578-5.449-0.41c-0.692,1.023-1.143,2.389-1.204,3.625c-0.129,2.532,2.132,3.844,4.444,2.765
		c1.079-0.504,1.701-1.367,1.884-2.727c-0.969,0-1.926,0-2.898,0c-0.279-1.047-0.035-1.475,0.993-1.422
		c1.149,0.06,2.304,0.014,3.62,0.014c-0.256,1.825-0.475,3.499-0.752,5.163c-0.027,0.163-0.511,0.427-0.624,0.363
		C12.498,66.829,12.304,66.508,12.167,66.355z"/>
	<path fill-rule="evenodd" clip-rule="evenodd" fill="#004B8F" d="M18.467,59.421c-0.373,2.503-0.746,5.006-1.125,7.551
		c-0.474,0-0.861,0-1.43,0c0.176-1.362,0.336-2.712,0.529-4.057c0.257-1.794,0.521-3.59,0.832-5.376
		c0.055-0.315,0.31-0.777,0.556-0.838c0.539-0.135,1.114-0.158,1.455,0.56c1.018,2.127,2.099,4.227,3.16,6.334
		c0.128,0.253,0.284,0.491,0.577,0.99c0.298-1.994,0.557-3.725,0.816-5.454c0.07-0.467,0.205-0.936,0.197-1.4
		c-0.02-1.157,0.609-1.223,1.604-0.947c-0.229,1.675-0.454,3.348-0.689,5.018c-0.186,1.33-0.342,2.667-0.603,3.981
		c-0.087,0.443-0.366,1.056-0.716,1.196c-0.632,0.254-1.186-0.007-1.542-0.758c-1.086-2.294-2.264-4.542-3.407-6.808
		C18.61,59.417,18.539,59.418,18.467,59.421z"/>
	<path fill-rule="evenodd" clip-rule="evenodd" fill="#004B8F" d="M68.207,59.765c-0.466,0-0.85,0-1.226,0
		c-0.67-1.865-1.323-2.263-3.163-1.911c-0.868,0.166-1.464,0.645-1.537,1.577c-0.072,0.933,0.684,1.109,1.332,1.311
		c0.866,0.265,1.77,0.408,2.62,0.705c1.944,0.68,2.461,2.525,1.215,4.187c-1.356,1.805-5.05,2.299-6.707,0.773
		c-0.533-0.488-0.778-1.343-1.002-2.077c-0.063-0.202,0.379-0.751,0.655-0.807c0.235-0.046,0.775,0.354,0.82,0.615
		c0.178,1.078,0.811,1.602,1.816,1.709c1.204,0.13,2.449,0.219,3.225-0.999c0.519-0.816,0.222-1.67-0.719-2.006
		c-0.953-0.34-1.955-0.531-2.921-0.834c-2.099-0.654-2.623-2.574-1.174-4.227c1.244-1.417,4.033-1.854,5.63-0.867
		C68.094,57.543,68.385,58.494,68.207,59.765z"/>
	<path fill-rule="evenodd" clip-rule="evenodd" fill="#004B8F" d="M58.674,56.808c-0.392,2.495-0.627,4.995-1.206,7.416
		c-0.685,2.86-4.776,4.11-7.146,2.338c-0.844-0.634-1.167-1.548-1.063-2.497c0.263-2.443,0.656-4.873,1.002-7.35
		c0.53,0,0.95,0,1.531,0c-0.221,1.644-0.434,3.241-0.646,4.837c-0.063,0.467-0.123,0.935-0.195,1.4
		c-0.268,1.699,0.144,2.598,1.328,2.878c1.793,0.423,3.229-0.229,3.658-1.824c0.329-1.217,0.445-2.492,0.646-3.742
		c0.132-0.823,0.322-1.646,0.352-2.476C56.978,56.653,57.537,56.457,58.674,56.808z"/>
	<path fill-rule="evenodd" clip-rule="evenodd" fill="#004B8F" d="M25.74,66.882c0.748-1.415,1.454-2.755,2.165-4.091
		c0.971-1.826,1.984-3.632,2.899-5.487c0.372-0.755,0.969-0.75,1.539-0.604c0.297,0.076,0.615,0.543,0.703,0.889
		c0.784,3.084,1.519,6.181,2.269,9.273c-1.552,0.36-1.6,0.33-1.91-1.049c-0.103-0.46-0.22-0.915-0.338-1.372
		c-0.034-0.135-0.094-0.264-0.167-0.467c-1.2,0-2.396-0.029-3.587,0.024c-0.254,0.011-0.572,0.266-0.726,0.5
		c-0.318,0.482-0.597,1.004-0.797,1.545C27.443,66.972,26.836,67.243,25.74,66.882z M31.839,58.64
		c-0.09-0.009-0.18-0.018-0.27-0.025c-0.639,1.273-1.278,2.548-1.952,3.89c1.073,0,1.988,0,3.028,0
		C32.361,61.141,32.099,59.89,31.839,58.64z"/>
	<path fill-rule="evenodd" clip-rule="evenodd" fill="#004B8F" d="M39.399,66.955c-0.546,0-0.996,0-1.541,0
		c0.423-2.977,0.834-5.869,1.269-8.932c-1.105,0-2.137,0-3.21,0c-0.021-0.669-0.326-1.341,0.568-1.353
		c2.535-0.036,5.071-0.014,7.638-0.014c0.22,0.928,0.008,1.349-0.962,1.37c-2.572,0.058-2.539,0.09-2.857,2.691
		C40.051,62.795,39.707,64.861,39.399,66.955z"/>
	<path fill-rule="evenodd" clip-rule="evenodd" fill="#004B8F" d="M0.011,66.909c0.344-2.414,0.676-4.771,1.014-7.127
		c0.098-0.68,0.221-1.355,0.317-2.035c0.17-1.212,0.185-1.226,1.661-0.935c-0.241,1.769-0.473,3.55-0.727,5.326
		c-0.178,1.252-0.489,2.493-0.55,3.751C1.669,67.075,1.103,67.182,0.011,66.909z"/>
	<path fill-rule="evenodd" clip-rule="evenodd" fill="#004B8F" d="M47.512,56.789c-0.456,3.24-0.896,6.423-1.359,9.602
		c-0.144,0.979-0.888,0.563-1.629,0.622c0.175-1.352,0.327-2.623,0.51-3.889c0.257-1.79,0.619-3.566,0.776-5.362
		C45.914,56.581,46.469,56.5,47.512,56.789z"/>
</g>
</svg>
