<svg width="86" height="37" viewBox="0 0 86 37" fill="none" xmlns="http://www.w3.org/2000/svg">
<path d="M75.6052 7.91455C68.4069 7.91455 66.2493 9.80511 66.2493 18.6014C66.2493 27.3667 68.6558 29.2573 75.6052 29.2573C82.4985 29.2573 85.0013 27.2687 85.0013 18.61C85.0066 9.91167 82.4985 7.91455 75.6052 7.91455ZM75.6052 25.6652C71.1674 25.6652 70.5346 24.1613 70.5346 18.6014C70.5346 13.0122 71.1674 11.498 75.6052 11.498C80.043 11.498 80.6757 13.0122 80.6757 18.6014C80.6757 24.1613 80.043 25.6652 75.6052 25.6652V25.6652Z" fill="#005AA3"/>
<path d="M36.9918 0C35.2917 0 34.3627 0.859346 34.3627 2.43195C34.3627 4.00455 35.2987 4.86218 36.9918 4.86218C38.6849 4.86218 39.5892 4.02174 39.5892 2.43195C39.5892 0.842159 38.6919 0 36.9918 0Z" fill="#005AA3"/>
<path d="M38.8145 8.10876H35.1304C34.9639 8.10876 34.8289 8.24112 34.8289 8.40438V28.7589C34.8289 28.9221 34.9639 29.0545 35.1304 29.0545H38.8145C38.981 29.0545 39.116 28.9221 39.116 28.7589V8.40438C39.116 8.24112 38.981 8.10876 38.8145 8.10876Z" fill="#005AA3"/>
<path d="M61.2997 8.59348C59.009 8.16037 55.9908 7.90601 52.9937 7.90601C45.2574 7.90601 43.4802 9.86703 43.4802 18.3986C43.4802 27.1141 45.2136 29.2401 52.3225 29.2401C54.0026 29.2665 55.682 29.1515 57.3422 28.8964L57.6296 28.8517V29.3312C57.6296 32.6139 56.4746 33.5644 52.4802 33.5644H46.132C46.052 33.5644 45.9753 33.5955 45.9188 33.6509C45.8623 33.7064 45.8305 33.7816 45.8305 33.86V36.1905C45.8305 36.3727 45.8919 36.5085 46.1811 36.5738C48.3605 36.8633 50.5577 37.0057 52.7571 37C60.5461 37 61.8711 34.7657 61.9167 28.0628V9.34455C61.9226 9.16766 61.8636 8.99457 61.7503 8.85673C61.6371 8.7189 61.4772 8.62549 61.2997 8.59348V8.59348ZM57.6296 25.361L57.4175 25.392C55.9764 25.5671 54.5247 25.6452 53.0726 25.6257C48.463 25.6257 47.8058 24.1219 47.8058 18.5619C47.8058 13.3302 48.2177 11.4981 52.836 11.4981H57.6296V25.361Z" fill="#005AA3"/>
<path d="M30.463 28.7623L28.0951 0.524172C28.0873 0.444828 28.0499 0.371104 27.99 0.31717C27.9302 0.263237 27.8521 0.232901 27.7708 0.231995H23.8133C22.8581 0.231995 22.5408 1.11884 22.5408 1.11884L15.2321 19.1531L7.92342 1.11884C7.92342 1.11884 7.60619 0.231995 6.66149 0.231995H2.69341C2.61213 0.232901 2.53406 0.263237 2.4742 0.31717C2.41435 0.371104 2.37694 0.444828 2.36916 0.524172L0.0012828 28.7623C-0.00244936 28.7998 0.00198461 28.8377 0.0142916 28.8734C0.0265985 28.9091 0.046498 28.9419 0.0726744 28.9695C0.0988508 28.9971 0.130708 29.019 0.166139 29.0336C0.20157 29.0483 0.239768 29.0554 0.278207 29.0545H4.23402C4.3153 29.0536 4.39337 29.0232 4.45322 28.9693C4.51308 28.9153 4.55049 28.8416 4.55827 28.7623L6.07259 8.70686L12.8783 25.2269C12.9036 25.3279 12.9636 25.4171 13.0482 25.4797C13.1328 25.5424 13.2368 25.5745 13.3427 25.5707H17.1215C17.2274 25.5745 17.3315 25.5424 17.416 25.4797C17.5006 25.4171 17.5607 25.3279 17.586 25.2269L24.3917 8.70686L25.906 28.7623C25.9138 28.8416 25.9512 28.9153 26.011 28.9693C26.0709 29.0232 26.1489 29.0536 26.2302 29.0545H30.1843C30.2228 29.0553 30.2611 29.0482 30.2966 29.0336C30.3321 29.019 30.364 28.9971 30.3903 28.9696C30.4167 28.942 30.4367 28.9092 30.4492 28.8735C30.4618 28.8378 30.4664 28.7999 30.463 28.7623V28.7623Z" fill="#005AA3"/>
</svg>
