<?xml version="1.0" encoding="utf-8"?>
<!-- Generator: Adobe Illustrator 16.0.0, SVG Export Plug-In . SVG Version: 6.00 Build 0)  -->
<!DOCTYPE svg PUBLIC "-//W3C//DTD SVG 1.1//EN" "http://www.w3.org/Graphics/SVG/1.1/DTD/svg11.dtd">
<svg version="1.1" id="圖層_1" xmlns="http://www.w3.org/2000/svg" xmlns:xlink="http://www.w3.org/1999/xlink" x="0px" y="0px"
	 width="68.27px" height="68.268px" viewBox="0 0 68.27 68.268" enable-background="new 0 0 68.27 68.268" xml:space="preserve">
<g id="Ctech-Logo-02-Copy">
	
		<linearGradient id="Oval_1_" gradientUnits="userSpaceOnUse" x1="-396.8298" y1="-238.1677" x2="-396.2709" y2="-238.7411" gradientTransform="matrix(0.8698 -68.2622 68.2622 0.8698 16656.5176 -26834.6855)">
		<stop  offset="0" style="stop-color:#055697"/>
		<stop  offset="1" style="stop-color:#2096D5"/>
	</linearGradient>
	<circle id="Oval" fill="url(#Oval_1_)" cx="34.134" cy="27.333" r="27.333"/>
	<path id="Path" fill="#FFFFFF" d="M52.572,20.263c3.373,8.796,0.065,18.75-7.904,23.777c-7.967,5.025-18.376,3.721-24.861-3.113
		c-6.483-6.834-7.236-17.298-1.799-24.991c5.438-7.692,15.554-10.472,24.161-6.64c3.31,1.476,1.102,6.455-2.214,4.979
		c-6.227-2.786-13.556-0.785-17.504,4.777c-3.948,5.564-3.416,13.143,1.271,18.099c4.688,4.959,12.223,5.916,17.999,2.287
		c5.777-3.631,8.187-10.834,5.754-17.208C46.187,18.82,51.257,16.871,52.572,20.263z"/>
	<path id="Path_1_" fill="#FFFFFF" d="M35.094,18.045h8.199c0.448,0.009,0.812,0.37,0.823,0.817v8.2
		c0.022,0.309-0.127,0.604-0.392,0.765c-0.263,0.161-0.594,0.161-0.858,0c-0.264-0.161-0.414-0.456-0.392-0.765v-7.376h-7.381
		c-0.429-0.033-0.76-0.391-0.76-0.822C34.333,18.435,34.665,18.078,35.094,18.045z"/>
	<path id="Path_2_" fill="#FFFFFF" d="M35.076,20.779h5.485c0.45,0.01,0.811,0.373,0.822,0.823v5.475
		c-0.032,0.43-0.39,0.761-0.82,0.761c-0.43,0-0.787-0.332-0.819-0.761v-4.657h-4.668c-0.429-0.033-0.76-0.391-0.76-0.821
		C34.314,21.169,34.645,20.811,35.076,20.779L35.076,20.779z"/>
</g>
<g id="Combined-Shape">
	<g>
		<linearGradient id="path-2_2_" gradientUnits="userSpaceOnUse" x1="34.1565" y1="67.5549" x2="34.1565" y2="59.1157">
			<stop  offset="0" style="stop-color:#055697"/>
			<stop  offset="1" style="stop-color:#2096D5"/>
		</linearGradient>
		<path id="path-2_1_" fill="url(#path-2_2_)" d="M67.529,61.32c0.499,0.655,0.748,1.47,0.698,2.291l0.004,0.542H63.65
			c-0.021,0.613,0.187,1.207,0.584,1.674c0.402,0.403,0.956,0.618,1.526,0.587c0.733-0.001,1.444-0.257,2.013-0.721v0.976
			c-0.669,0.44-1.458,0.658-2.257,0.618c-0.815,0.044-1.607-0.28-2.16-0.882c-0.562-0.702-0.842-1.591-0.786-2.489
			c-0.037-0.9,0.27-1.782,0.859-2.465c0.533-0.617,1.314-0.967,2.129-0.954C66.306,60.451,67.034,60.757,67.529,61.32z
			 M43.758,61.389c0.575,0.693,0.865,1.578,0.812,2.479c0.044,0.913-0.27,1.805-0.879,2.488c-0.616,0.638-1.478,0.978-2.364,0.931
			c-0.857,0.04-1.693-0.292-2.291-0.908c-0.593-0.656-0.902-1.524-0.858-2.409c-0.058-0.937,0.266-1.856,0.893-2.554
			c0.637-0.625,1.505-0.959,2.397-0.919C42.326,60.442,43.163,60.767,43.758,61.389z M14.015,61.389
			c0.576,0.693,0.866,1.578,0.813,2.479c0.043,0.913-0.271,1.805-0.877,2.488c-0.616,0.636-1.476,0.976-2.36,0.931
			c-0.857,0.039-1.69-0.293-2.29-0.908c-0.593-0.656-0.901-1.524-0.859-2.409c-0.056-0.937,0.266-1.856,0.893-2.554
			c0.642-0.63,1.519-0.964,2.417-0.919C12.6,60.448,13.427,60.775,14.015,61.389z M4.708,57.901c0.732-0.021,1.461,0.107,2.141,0.38
			v1.146c-0.659-0.372-1.403-0.565-2.16-0.563c-0.959-0.038-1.888,0.344-2.542,1.046c-0.675,0.769-1.024,1.771-0.974,2.795
			c-0.049,0.968,0.279,1.918,0.916,2.649c0.614,0.657,1.486,1.02,2.386,0.983c0.832,0.022,1.653-0.189,2.37-0.61v1.031
			c-0.781,0.378-1.643,0.561-2.511,0.529c-1.167,0.052-2.297-0.404-3.104-1.248c-0.793-0.898-1.204-2.074-1.145-3.271
			c-0.062-1.301,0.407-2.573,1.298-3.524C2.253,58.347,3.46,57.86,4.708,57.901z M31.701,57.533v4.257h0.022
			c0.442-0.823,1.312-1.324,2.246-1.294c0.753-0.034,1.478,0.29,1.953,0.874c0.501,0.671,0.749,1.497,0.707,2.332
			c0.046,0.935-0.234,1.857-0.794,2.607c-0.525,0.651-1.329,1.015-2.165,0.977c-0.801,0.033-1.554-0.388-1.947-1.088h-0.022v0.936
			h-1.038v-9.601H31.701z M53.729,60.496c1.526,0,2.29,0.807,2.29,2.42l-0.005,4.218h-1.037v-1.02h-0.026
			c-0.35,0.59-0.935,1-1.609,1.124c-0.672,0.126-1.366-0.045-1.903-0.471c-0.369-0.354-0.566-0.853-0.547-1.363
			c0-1.209,0.714-1.913,2.143-2.114l1.943-0.271c0-1.103-0.446-1.653-1.337-1.656c-0.779-0.001-1.532,0.284-2.115,0.802v-1.058
			C52.184,60.693,52.951,60.48,53.729,60.496z M59.682,58.728v1.909h1.634v0.896h-1.634v3.652c-0.025,0.33,0.051,0.654,0.225,0.933
			c0.187,0.202,0.457,0.308,0.731,0.279c0.244,0.005,0.482-0.069,0.678-0.214v0.891c-0.3,0.146-0.634,0.215-0.968,0.201
			c-1.137,0-1.703-0.636-1.703-1.909v-3.833H57.53v-0.886h1.115v-1.584L59.682,58.728z M26.082,60.496
			c1.527,0,2.291,0.807,2.291,2.42l0.007,4.218h-1.039v-1.02h-0.027c-0.392,0.732-1.167,1.177-1.997,1.145
			c-0.557,0.036-1.104-0.148-1.528-0.511c-0.371-0.354-0.57-0.851-0.549-1.362c0-1.208,0.714-1.913,2.142-2.115l1.947-0.271
			c0-1.101-0.446-1.653-1.336-1.657c-0.78,0-1.534,0.286-2.119,0.803v-1.038C24.535,60.693,25.302,60.48,26.082,60.496z
			 M21.309,57.533v9.601h-1.038v-9.601H21.309z M17.844,57.533v9.601h-1.038v-9.601H17.844z M49.917,60.621l0.005,1.081
			c-0.23-0.155-0.508-0.228-0.784-0.208c-0.454,0.004-0.873,0.24-1.111,0.623c-0.324,0.509-0.482,1.105-0.451,1.708v3.304h-1.043
			v-6.487h1.043v1.335h0.022c0.12-0.412,0.356-0.782,0.681-1.064c0.28-0.249,0.644-0.384,1.019-0.382
			C49.508,60.521,49.719,60.552,49.917,60.621z M33.71,61.37c-0.557-0.022-1.094,0.212-1.459,0.633
			c-0.373,0.44-0.569,1.003-0.549,1.581v0.904c-0.013,0.506,0.175,0.997,0.523,1.363c0.377,0.387,0.901,0.591,1.439,0.56
			c0.538-0.032,1.037-0.294,1.365-0.719c0.39-0.597,0.577-1.299,0.536-2.009c0.034-0.607-0.144-1.209-0.5-1.698
			C34.734,61.577,34.233,61.351,33.71,61.37z M54.977,63.856l-1.565,0.212c-0.386,0.035-0.759,0.159-1.088,0.36
			c-0.273,0.22-0.416,0.562-0.383,0.909c-0.007,0.291,0.118,0.57,0.338,0.762c0.251,0.211,0.574,0.319,0.905,0.303
			c0.482,0.014,0.947-0.185,1.274-0.542c0.342-0.371,0.523-0.866,0.503-1.371L54.977,63.856z M27.342,63.856l-1.565,0.212
			c-0.386,0.037-0.76,0.159-1.092,0.36c-0.273,0.22-0.417,0.562-0.382,0.909c-0.005,0.292,0.12,0.57,0.34,0.762
			c0.25,0.211,0.573,0.32,0.9,0.303c0.485,0.014,0.952-0.185,1.28-0.542c0.345-0.367,0.532-0.856,0.519-1.358V63.856z M11.667,61.37
			c-0.604-0.028-1.189,0.226-1.585,0.683c-0.415,0.536-0.622,1.202-0.583,1.879c-0.034,0.653,0.176,1.294,0.587,1.802
			c0.401,0.446,0.98,0.689,1.581,0.664c0.587,0.038,1.159-0.197,1.55-0.638c0.394-0.536,0.586-1.192,0.542-1.856
			c0.044-0.668-0.148-1.33-0.542-1.873C12.831,61.582,12.258,61.338,11.667,61.37z M41.399,61.37
			c-0.604-0.028-1.188,0.227-1.583,0.683c-0.414,0.536-0.622,1.202-0.583,1.879c-0.033,0.653,0.177,1.294,0.587,1.802
			c0.401,0.445,0.979,0.689,1.579,0.664c0.588,0.034,1.161-0.207,1.549-0.652c0.394-0.536,0.585-1.193,0.542-1.857
			c0.043-0.667-0.148-1.329-0.542-1.873C42.558,61.573,41.985,61.334,41.399,61.37z M65.543,61.37
			c-0.473-0.003-0.926,0.194-1.244,0.544c-0.354,0.378-0.577,0.862-0.632,1.376l3.5-0.02c0.025-0.501-0.127-0.997-0.433-1.397
			C66.436,61.531,65.997,61.347,65.543,61.37z"/>
	</g>
</g>
</svg>
