<?xml version="1.0" encoding="utf-8"?>
<!-- Generator: Adobe Illustrator 16.0.0, SVG Export Plug-In . SVG Version: 6.00 Build 0)  -->
<!DOCTYPE svg PUBLIC "-//W3C//DTD SVG 1.1//EN" "http://www.w3.org/Graphics/SVG/1.1/DTD/svg11.dtd">
<svg version="1.1" id="圖層_1" xmlns="http://www.w3.org/2000/svg" xmlns:xlink="http://www.w3.org/1999/xlink" x="0px" y="0px"
	 width="300px" height="300px" viewBox="0 0 300 300" enable-background="new 0 0 300 300" xml:space="preserve">
<g>
	<g>
		
			<linearGradient id="SVGID_1_" gradientUnits="userSpaceOnUse" x1="941.0449" y1="-625.4556" x2="1051.3647" y2="-639.689" gradientTransform="matrix(0.3 0 0 -0.3 -146.9001 -76.0403)">
			<stop  offset="0.1571" style="stop-color:#274EA0"/>
			<stop  offset="0.1835" style="stop-color:#2955A5"/>
			<stop  offset="0.3007" style="stop-color:#3876BC"/>
			<stop  offset="0.4229" style="stop-color:#4893CD"/>
			<stop  offset="0.5496" style="stop-color:#57AAD5"/>
			<stop  offset="0.6827" style="stop-color:#5FBADB"/>
			<stop  offset="0.8265" style="stop-color:#66C5DE"/>
			<stop  offset="1" style="stop-color:#69C6DD"/>
		</linearGradient>
		<path fill="url(#SVGID_1_)" d="M183.375,104.026c0,2.97-1.291,5.609-3.359,7.41c-0.51,0.449-2.041,1.41-2.25,1.5
			c-1.471,0.72-3.031,1.35-4.621,1.859c-1.77,0.541-3.6,0.961-5.49,1.201c-0.389,0.029-0.75,0.09-1.109,0.119
			c-6.51,0.84-12.51,3.211-17.641,6.779c-0.09,0.061-2.43,1.801-3.449,2.701c-0.029,0.029-1.32,1.199-1.32,1.199
			c-2.4,2.281-4.5,4.861-6.271,7.65c-0.12-0.84-0.18-1.68-0.24-2.52c0,0,0,0,0-0.031c-0.029-0.66-0.06-1.35-0.06-2.01
			c0-2.429,0.24-4.83,0.72-7.109c0.721-3.63,2.011-7.08,3.75-10.23c0.57-1.05,1.23-2.04,1.891-3.029c0.36-0.511,0.72-1.021,1.11-1.5
			c0.99-1.291,2.039-2.49,3.18-3.631c0.061-0.06,0.15-0.15,0.211-0.209c0.119-0.121,0.238-0.24,0.389-0.361
			c5.67-5.369,13.051-8.879,21.27-9.629c0.061,0,0.092,0,0.121,0c0.84-0.03,1.65-0.061,2.49-0.061c0.811,0,1.619,0.03,2.43,0.061
			C179.805,95.026,183.375,99.106,183.375,104.026z"/>
		
			<linearGradient id="SVGID_2_" gradientUnits="userSpaceOnUse" x1="960.9883" y1="-767.8672" x2="977.928" y2="-609.7638" gradientTransform="matrix(0.3 0 0 -0.3 -146.9001 -76.0403)">
			<stop  offset="0" style="stop-color:#6CC4BD"/>
			<stop  offset="0.1975" style="stop-color:#6DC4BA"/>
			<stop  offset="0.3668" style="stop-color:#6EC3B2"/>
			<stop  offset="0.5256" style="stop-color:#70C2A4"/>
			<stop  offset="0.6781" style="stop-color:#73C190"/>
			<stop  offset="0.8261" style="stop-color:#79C174"/>
			<stop  offset="0.9688" style="stop-color:#7DC056"/>
			<stop  offset="1" style="stop-color:#80C04F"/>
		</linearGradient>
		<path fill="url(#SVGID_2_)" d="M149.115,152.445c-0.09-0.09-0.211-0.15-0.33-0.211c-4.711-3.239-8.311-8.01-10.021-13.62
			c-0.33-1.051-0.87-3.84-0.9-4.109c-0.12-0.84-0.18-1.68-0.21-2.551c0,0,0,0,0-0.029c-0.03-0.66-0.06-1.35-0.06-2.01
			c0-2.431,0.239-4.83,0.72-7.111c0.72-3.628,2.01-7.08,3.75-10.229c0.57-1.05,1.2-2.07,1.89-3.06c0.36-0.511,0.722-0.99,1.11-1.471
			c0.99-1.29,2.041-2.49,3.18-3.63c0.061-0.06,0.15-0.149,0.211-0.21c0.119-0.12,0.24-0.24,0.391-0.359
			c5.67-5.371,13.049-8.881,21.27-9.631c-9.99,0.45-19.32,3.42-27.36,8.311c-0.66,2.189-2.7,3.81-5.131,3.81
			c-0.119,0-0.239,0-0.359-0.03c-2.49,1.92-4.8,4.051-6.96,6.33c-1.26,1.32-2.431,2.73-3.54,4.17c-3.3,4.74-5.25,10.5-5.25,16.71
			c0,7.5,2.819,14.311,7.439,19.5c0.181,0.18,0.36,0.359,0.511,0.539c0.09,0.09,0.18,0.211,0.27,0.301s0.18,0.209,0.271,0.301
			c0.029,0.029,0.06,0.059,0.09,0.09c0.3,0.299,0.6,0.6,0.93,0.898c0.06,0.061,0.15,0.121,0.21,0.182c0.09,0.09,0.21,0.18,0.3,0.238
			c0.09,0.092,0.21,0.15,0.271,0.211c3.12,2.369,7.02,3.75,11.22,3.75c1.681,0,3.331-0.24,4.89-0.66
			c0.961-0.27,1.74-0.93,2.221-1.77c0.029-0.061,0.061-0.121,0.09-0.18c0.24-0.48,0.391-1.021,0.391-1.621
			C150.584,154.186,150.016,153.105,149.115,152.445z"/>
		<g>
			<g>
				<defs>
					<path id="SVGID_3_" d="M127.694,91.276v24.33h24.331v-24.33H127.694z M137.564,106.366c-2.97,0-5.37-2.4-5.37-5.37
						s2.43-5.37,5.37-5.37s5.37,2.4,5.37,5.37S140.534,106.366,137.564,106.366z"/>
				</defs>
				<clipPath id="SVGID_4_">
					<use xlink:href="#SVGID_3_"  overflow="visible"/>
				</clipPath>
				<g clip-path="url(#SVGID_4_)">
					<g>
						<circle fill="#FFFFFF" cx="137.564" cy="100.996" r="5.37"/>
					</g>
				</g>
			</g>
		</g>
		
			<linearGradient id="SVGID_5_" gradientUnits="userSpaceOnUse" x1="1054.8857" y1="-513.2041" x2="876.2775" y2="-690.2177" gradientTransform="matrix(0.3 0 0 -0.3 -146.9001 -76.0403)">
			<stop  offset="0.3887" style="stop-color:#F4C21F"/>
			<stop  offset="0.4913" style="stop-color:#F5BB1B"/>
			<stop  offset="0.6426" style="stop-color:#F4A817"/>
			<stop  offset="0.8231" style="stop-color:#F18A17"/>
			<stop  offset="1" style="stop-color:#EC6615"/>
		</linearGradient>
		<path fill="url(#SVGID_5_)" d="M173.266,67.246c-0.031,0-0.031,0-0.061,0c-0.301-0.06-4.621-0.42-6.48-0.42
			c-13.529,0-25.86,5.25-35.04,13.83c-10.08,9.36-16.38,22.739-16.38,37.591c0,5.429,0.84,10.647,2.399,15.567
			c2.25,7.051,5.94,13.441,10.801,18.811l0,0c0.119,0.15,0.27,0.301,0.42,0.42c-4.62-5.19-7.44-12-7.44-19.5
			c0-6.208,1.95-11.968,5.25-16.708c1.05-1.5,2.25-2.91,3.54-4.171c2.13-2.31,4.47-4.41,6.96-6.33c-2.79-0.18-5.01-2.521-5.01-5.34
			c0-2.97,2.399-5.37,5.37-5.37c2.97,0,5.37,2.4,5.37,5.37c0,0.54-0.091,1.05-0.24,1.56c8.041-4.89,17.371-7.859,27.359-8.31
			c0.061,0,0.092,0,0.121,0c0.301-0.03,0.629-0.06,0.93-0.06c0.061,0,1.08-0.061,1.141-0.061c6.959-0.57,12.42-6.391,12.42-13.5
			C184.695,73.846,179.744,68.266,173.266,67.246z"/>
	</g>
	<g>
		<g>
			<path fill="#373C38" d="M127.71,223.453l-1.621-1.889c-1.469,1.08-3.299,1.979-5.49,2.729c-0.568-0.988-1.318-1.92-2.309-2.85
				l0.18-0.15h8.609v-5.818h-5.58c0.57-0.48,1.141-0.99,1.74-1.59v-1.592h-7.17c0.33-0.328,0.66-0.689,0.99-1.02h-0.029
				c0.238-0.24,0.449-0.449,0.568-0.6h-3.18l0,0l0,0h-0.029c-2.131,2.1-4.681,3.721-7.621,4.859l0,0l0,0l1.561,1.891
				c0.391-0.18,0.75-0.33,1.109-0.51v4.379h5.701c-1.801,0.811-4.35,1.471-7.59,2.041l1.289,2.1c3.09-0.779,5.611-1.709,7.59-2.789
				c0.24,0.18,0.451,0.389,0.66,0.629c-2.25,1.381-5.369,2.49-9.33,3.42l1.201,2.1c3.84-1.049,6.898-2.369,9.24-3.988
				c0.18,0.299,0.359,0.629,0.51,0.988c-2.67,1.861-6.42,3.361-11.191,4.561l1.262,2.131c4.289-1.17,7.799-2.641,10.469-4.471
				c0,0.09,0.031,0.24,0.031,0.391c0,0.959-0.182,1.561-0.57,1.92c-0.42,0.299-0.99,0.48-1.621,0.51
				c-0.57,0.029-1.32,0.061-2.189,0.061l0.75,2.25c0.631,0,1.199-0.031,1.709-0.061c1.621-0.18,2.73-0.51,3.361-1.08
				c0.719-0.66,1.08-1.891,1.08-3.6c0-0.061-0.031-0.15-0.031-0.211c1.65,1.441,3.631,2.73,5.971,3.871l1.23-2.131
				c-2.67-1.109-4.891-2.43-6.689-3.9C124.319,225.254,126.149,224.414,127.71,223.453z M124.62,217.543v1.711h-5.16v-1.711H124.62z
				 M116.999,219.254h-5.01v-1.711h5.01V219.254z M112.05,215.475c0.629-0.42,1.23-0.84,1.859-1.291h6.18
				c-0.57,0.48-1.139,0.9-1.709,1.291H112.05z"/>
			<path fill="#373C38" d="M62.459,217.424l-0.271-0.15l0.03-0.029l1.29-1.98c-0.03,0-0.06-0.029-0.06-0.029
				c-0.69-0.33-1.44-0.66-2.19-0.93c0.66-0.66,1.26-1.262,1.71-1.801l-2.1-1.289c-0.21,0.328-0.54,0.75-0.96,1.199
				c-0.301,0.33-0.601,0.66-0.99,1.051c-0.12-0.031-0.271-0.092-0.39-0.121c-0.15-0.061-0.33-0.09-0.511-0.15
				c-0.029,0-0.06-0.029-0.09-0.029c-0.06-0.721-0.06-1.561-0.06-2.461h-13.92l0,0h-2.011h-0.449v2.461h0.449h13.38h0.061
				c0.03,0.779,0.06,1.5,0.15,2.16c0.18,1.32,0.449,2.43,0.899,3.27c0.03,0.061,0.09,0.15,0.12,0.211c0.3,0.568,0.69,1.08,1.17,1.5
				h-4.65v-5.102h-2.55v5.102h-2.729v-3.42v-1.65h-2.37h-0.12h-3.84v2.459h3.84v2.641h-3.36h-0.449v2.34h0.449h3.301
				c-0.061,0.811-0.181,1.561-0.301,2.279c-0.54,2.73-1.68,4.83-3.42,6.33l0,0l0,0l2.011,1.771l0,0l0,0
				c0.27-0.24,0.51-0.512,0.779-0.781c2.04-2.279,3.21-5.459,3.48-9.6h2.76v10.26h2.55v-10.26h2.311c0.06,2.791,0.42,4.98,1.08,6.6
				c1.109,2.311,2.609,3.51,4.529,3.66c0.69-0.029,1.261-0.24,1.74-0.66c0.66-0.629,1.26-1.529,1.74-2.699l-2.37-1.291
				c-0.42,1.26-0.93,1.92-1.47,1.951c-0.9-0.211-1.62-0.99-2.16-2.4c-0.15-0.42-0.271-0.99-0.36-1.711
				c1.561,0.66,3.09,1.471,4.62,2.432l1.41-2.16c-0.87-0.51-1.771-0.961-2.73-1.41c0.9-0.781,1.65-1.5,2.221-2.16l-2.011-1.26
				c-0.479,0.66-1.26,1.5-2.399,2.49c-0.45-0.211-0.87-0.361-1.32-0.512c-0.06-0.898-0.06-1.92-0.06-3.059l0,0
				c0.09,0.059,0.18,0.15,0.239,0.209c0.721,0.541,1.561,0.84,2.551,0.9c0.42,0,0.84-0.09,1.17-0.209
				c0.27-0.092,0.54-0.24,0.779-0.42c0.69-0.512,1.29-1.262,1.83-2.191c0.03-0.059,0.061-0.119,0.12-0.18l0,0l0,0L62.459,217.424z
				 M58.139,215.594c1.32,0.449,2.61,1.02,3.93,1.68c-0.51,1.02-1.079,1.561-1.71,1.561c-0.81-0.15-1.409-0.811-1.859-2.01
				c-0.12-0.27-0.24-0.631-0.3-1.08C58.139,215.715,58.139,215.654,58.139,215.594z"/>
			<path fill="#373C38" d="M183.541,214.094h6.898h0.061v1.561h2.52v-1.891v-1.68v-0.029h-8.279c0.15-0.33,0.27-0.66,0.42-1.051
				l-2.279-0.301c-0.6,1.682-1.711,3.061-3.391,4.17l1.35,1.801C181.891,215.924,182.791,215.055,183.541,214.094z"/>
			<path fill="#373C38" d="M191.221,219.943c0.51,0.15,1.109,0.301,1.709,0.391l0.99-2.07c-2.49-0.299-4.59-1.17-6.299-2.699
				c0.09-0.301,0.18-0.6,0.299-0.9l-2.1-0.42c-0.57,2.129-2.43,3.48-5.58,4.02l0.9,1.439h-5.82v9.99h4.02
				c-1.619,0.631-3.84,1.111-6.66,1.561l1.111,1.92c3.299-0.57,5.818-1.32,7.59-2.221l-0.961-1.26h5.371l-0.75,1.441
				c2.76,0.479,5.43,1.139,7.949,2.039l0.811-1.98c-2.1-0.629-4.32-1.109-6.631-1.5h4.02v-9.75H191.221z M188.791,227.715H177.75
				v-1.051h11.041V227.715z M188.791,225.074H177.75v-0.961h11.041V225.074z M188.791,222.523H177.75v-0.99h11.041V222.523z
				 M182.791,219.674c1.68-0.51,2.939-1.32,3.869-2.49c1.109,1.109,2.371,1.92,3.811,2.49H182.791z"/>
			<rect x="172.74" y="216.373" fill="#373C38" width="6.42" height="2.131"/>
			<rect x="237.061" y="220.094" fill="#373C38" width="7.109" height="2.34"/>
			<path fill="#373C38" d="M237.061,233.145h2.459h2.25h2.432v-9.271h-7.111v9.271H237.061z M239.49,226.273h2.25v4.471h-2.25
				V226.273z"/>
			<rect x="237.061" y="216.523" fill="#373C38" width="7.109" height="2.311"/>
			<polygon fill="#373C38" points="241.92,212.684 241.92,210.674 239.221,210.674 239.221,212.684 237.061,212.684 
				237.061,215.145 244.17,215.145 244.17,212.684 242.01,212.684 			"/>
			<path fill="#373C38" d="M257.49,230.744c-0.57,0-1.02-0.451-1.02-1.02v-10.711v-8.34h-2.611h-8.309v2.551h2.639v6.719h-2.639
				v2.521h2.639v10.648h2.58v-10.648h2.76h0.33v8.068c0,1.41,1.141,2.58,2.58,2.58h2.1v-2.398h-1.049V230.744z M253.531,219.943
				h-2.762v-6.719h3.09v5.789v0.93H253.531z"/>
			<polygon fill="#373C38" points="179.189,212.084 178.68,212.084 178.68,212.084 172.711,212.084 172.711,212.084 
				172.711,212.084 172.711,214.184 179.189,214.184 			"/>
		</g>
		<g>
			<polygon fill="#373C38" points="41.459,199.184 44.639,199.184 46.049,191.174 54.029,191.174 55.169,191.174 55.739,187.994 
				54.568,187.994 46.589,187.994 47.459,183.135 56.579,183.135 57.148,179.984 44.849,179.984 			"/>
			<polygon fill="#373C38" points="67.679,180.014 64.499,180.014 61.108,199.184 74.068,199.184 74.608,196.064 64.829,196.064 			
				"/>
			<path fill="#373C38" d="M92.549,180.164c-0.15,0.209-0.33,0.449-0.57,0.75c-0.239,0.301-0.42,0.539-0.6,0.779
				c-0.87,1.17-1.771,2.34-2.67,3.541c-0.72,0.959-1.44,1.92-2.16,2.85c-0.33-0.811-0.66-1.619-0.99-2.49
				c-0.45-1.141-0.87-2.221-1.29-3.27l-0.899-2.371h-3.54l4.14,10.381c0.09,0.209,0.18,0.42,0.271,0.631
				c0.06,0.18,0.149,0.359,0.21,0.539l-1.351,7.65h3.15l1.319-7.5l8.82-11.701h-3.689L92.549,180.164z"/>
			<polygon fill="#373C38" points="99.449,199.184 111.749,199.184 112.29,196.064 103.14,196.064 104.009,191.174 112.019,191.174 
				113.249,191.174 113.79,187.994 112.56,187.994 104.579,187.994 105.419,183.135 114.569,183.135 115.14,179.984 
				102.839,179.984 			"/>
			<polygon fill="#373C38" points="139.679,199.184 151.979,199.184 152.55,196.064 143.399,196.064 144.239,191.174 
				152.249,191.174 153.479,191.174 154.019,187.994 152.819,187.994 144.81,187.994 145.649,183.135 154.829,183.135 
				155.37,179.984 143.069,179.984 			"/>
			<polygon fill="#373C38" points="125.849,180.014 122.7,180.014 119.31,199.184 132.239,199.184 132.81,196.064 123.03,196.064 
							"/>
			<path fill="#373C38" d="M173.25,181.664c-0.42-0.51-0.959-0.93-1.59-1.23c-0.629-0.299-1.35-0.449-2.1-0.449h-6.631l-3.42,19.199
				h3.15l1.41-8.039h3.66c0.75,0,1.5-0.15,2.221-0.451c0.719-0.27,1.35-0.689,1.949-1.17s1.08-1.08,1.5-1.74s0.689-1.41,0.811-2.16
				c0.148-0.779,0.119-1.529-0.061-2.219C173.971,182.773,173.67,182.174,173.25,181.664z M168.121,187.994h-3.48l0.869-4.859h3.631
				c0.33,0,0.629,0.059,0.9,0.18c0.27,0.119,0.479,0.27,0.629,0.479c0.18,0.211,0.301,0.48,0.361,0.75
				c0.09,0.301,0.09,0.602,0.029,0.932s-0.18,0.66-0.359,0.959c-0.182,0.301-0.422,0.57-0.691,0.811s-0.57,0.42-0.9,0.539
				C168.781,187.934,168.451,187.994,168.121,187.994z"/>
			<polygon fill="#373C38" points="189.99,187.994 183.99,187.994 185.4,179.984 182.25,179.984 178.859,199.184 182.01,199.184 
				183.42,191.174 189.42,191.174 188.01,199.184 191.16,199.184 194.551,179.984 191.4,179.984 			"/>
			<path fill="#373C38" d="M214.02,181.904c-0.539-0.66-1.229-1.17-2.039-1.561s-1.711-0.57-2.699-0.57
				c-0.99,0-1.951,0.18-2.881,0.57c-0.9,0.359-1.74,0.871-2.49,1.5c-0.75,0.631-1.379,1.381-1.891,2.221
				c-0.51,0.869-0.869,1.77-1.049,2.76l-2.189,12.359h3.18l1.17-6.6h7.979l-1.17,6.6h3.15l2.16-12.209
				c0.18-0.99,0.15-1.92-0.09-2.791C214.92,183.314,214.531,182.564,214.02,181.904z M210.359,183.225
				c0.422,0.209,0.811,0.479,1.08,0.84c0.301,0.359,0.512,0.779,0.631,1.229c0.119,0.48,0.119,0.99,0.029,1.531l-0.449,2.641h-7.98
				l0.42-2.461c0.09-0.57,0.301-1.08,0.6-1.561c0.301-0.479,0.691-0.93,1.111-1.32c0.449-0.359,0.93-0.658,1.469-0.869
				C208.32,182.805,209.49,182.805,210.359,183.225z"/>
			<path fill="#373C38" d="M236.281,181.904c-0.541-0.66-1.23-1.17-2.041-1.561c-1.619-0.75-3.721-0.75-5.551,0
				c-0.898,0.359-1.738,0.871-2.488,1.5c-0.75,0.631-1.381,1.381-1.891,2.221c-0.51,0.869-0.871,1.77-1.051,2.76l-2.189,12.359h3.15
				l2.16-12.209c0.09-0.57,0.299-1.08,0.6-1.561s0.66-0.93,1.109-1.32c0.451-0.359,0.93-0.66,1.471-0.869
				c1.049-0.42,2.221-0.42,3.09,0c0.42,0.209,0.811,0.479,1.08,0.84c0.301,0.359,0.51,0.779,0.629,1.229
				c0.121,0.48,0.121,0.99,0.031,1.531l-2.189,12.359h3.148l2.16-12.209c0.18-0.99,0.15-1.92-0.09-2.791
				C237.211,183.344,236.82,182.564,236.281,181.904z"/>
			<polygon fill="#373C38" points="245.16,180.074 244.59,183.225 249.689,183.225 246.871,199.184 250.08,199.184 252.871,183.225 
				258,183.225 258.541,180.074 			"/>
		</g>
	</g>
</g>
</svg>
