<?xml version="1.0" encoding="utf-8"?>
<!-- Generator: Adobe Illustrator 16.0.0, SVG Export Plug-In . SVG Version: 6.00 Build 0)  -->
<!DOCTYPE svg PUBLIC "-//W3C//DTD SVG 1.1//EN" "http://www.w3.org/Graphics/SVG/1.1/DTD/svg11.dtd">
<svg version="1.1" id="圖層_1" xmlns="http://www.w3.org/2000/svg" xmlns:xlink="http://www.w3.org/1999/xlink" x="0px" y="0px"
	 width="257.5px" height="257.501px" viewBox="0 0 257.5 257.501" enable-background="new 0 0 257.5 257.501" xml:space="preserve">
<g>
	<g>
		<polygon fill="#FFFFFF" points="40.592,80.379 77.568,75.452 84.343,129.648 94.889,72.834 130.609,69.139 129.609,161.674 
			107.207,165.138 105.128,113.174 96.814,165.138 74.874,169.757 66.098,120.564 63.557,171.374 45.312,174.146 		"/>
		<polygon fill="#FFFFFF" points="144.852,97.469 173.952,92.85 173.952,136.731 189.194,134.19 187.348,83.611 216.909,79.686 
			215.292,179.688 189.656,183.152 188.964,147.816 173.721,150.819 173.952,184.538 149.471,188.362 		"/>
	</g>
</g>
<path fill="#FFFFFF" d="M128.75,0C57.644,0,0,57.643,0,128.75c0,71.106,57.644,128.751,128.75,128.751
	c71.108,0,128.75-57.645,128.75-128.751C257.501,57.643,199.858,0,128.75,0z M253.556,110.037c0,0.002,0,0.005,0,0.007
	c-0.023-0.165-0.051-0.329-0.076-0.493C253.505,109.713,253.53,109.875,253.556,110.037z M253.28,101.485
	c-0.053-0.241-0.104-0.483-0.158-0.724c0-0.003,0-0.007-0.002-0.01C253.175,100.995,253.228,101.24,253.28,101.485z M252.798,105.52
	c0.055,0.296,0.107,0.594,0.16,0.891c-0.055-0.301-0.107-0.602-0.164-0.903C252.796,105.512,252.796,105.516,252.798,105.52z
	 M252.626,98.642c-0.068-0.283-0.135-0.566-0.207-0.848c0-0.006-0.002-0.012-0.004-0.017
	C252.487,98.064,252.556,98.353,252.626,98.642z M252.196,102.494c0.029,0.139,0.057,0.277,0.086,0.416
	c-0.031-0.143-0.059-0.287-0.09-0.43C252.194,102.485,252.194,102.489,252.196,102.494z M252.013,96.197
	c-0.002-0.005-0.004-0.011-0.006-0.016c-0.115-0.44-0.234-0.879-0.355-1.317c-0.002-0.008-0.004-0.016-0.006-0.023
	C251.769,95.292,251.892,95.744,252.013,96.197z M251.876,101.022c0,0.005,0.002,0.01,0.002,0.016
	c-0.109-0.493-0.223-0.984-0.34-1.474C251.653,100.049,251.767,100.535,251.876,101.022z M250.782,96.532
	c0.135,0.513,0.266,1.029,0.395,1.544c0.002,0.007,0.004,0.014,0.006,0.021c-0.133-0.529-0.268-1.056-0.406-1.582
	C250.778,96.521,250.78,96.526,250.782,96.532z M250.413,95.168c0.002,0.008,0.004,0.017,0.006,0.025
	c-0.066-0.246-0.137-0.49-0.207-0.736C250.278,94.695,250.347,94.931,250.413,95.168z M249.593,92.327
	c-0.166-0.553-0.332-1.106-0.508-1.656c0.002,0.005,0.004,0.009,0.006,0.014c0.168,0.535,0.332,1.072,0.494,1.61
	C249.587,92.306,249.591,92.317,249.593,92.327z M249.347,87.388c-0.002-0.006-0.004-0.012-0.006-0.019
	c-0.115-0.336-0.236-0.671-0.355-1.006c-0.006-0.019-0.014-0.038-0.02-0.058C249.093,86.667,249.224,87.026,249.347,87.388z
	 M248.698,89.477c0.004,0.011,0.008,0.022,0.01,0.034c-0.141-0.433-0.285-0.866-0.43-1.298
	C248.419,88.633,248.56,89.054,248.698,89.477z M248.159,84.084c-0.051-0.135-0.102-0.271-0.154-0.406
	c-0.008-0.025-0.018-0.049-0.027-0.074C248.038,83.765,248.099,83.925,248.159,84.084z M247.774,86.759
	c-0.215-0.604-0.428-1.209-0.65-1.81c0.002,0.005,0.004,0.009,0.006,0.014c0.215,0.58,0.42,1.164,0.627,1.748
	C247.763,86.727,247.769,86.743,247.774,86.759z M247.233,81.673c-0.002-0.005-0.004-0.01-0.006-0.016
	c-0.066-0.164-0.135-0.326-0.201-0.49c-0.014-0.035-0.027-0.07-0.043-0.106C247.065,81.266,247.151,81.469,247.233,81.673z
	 M245.784,81.498c0.014,0.034,0.029,0.068,0.043,0.103c-0.582-1.439-1.191-2.864-1.822-4.277
	C244.62,78.703,245.216,80.093,245.784,81.498z M238.222,63.435c-0.014-0.022-0.027-0.044-0.041-0.066
	c-0.014-0.022-0.025-0.045-0.039-0.068C238.167,63.345,238.194,63.39,238.222,63.435z M237.134,64.101
	c0.453,0.759,0.902,1.521,1.34,2.291c0.016,0.028,0.031,0.058,0.049,0.086c0.203,0.358,0.393,0.725,0.592,1.085
	c-0.658-1.186-1.324-2.368-2.02-3.53C237.106,64.056,237.12,64.078,237.134,64.101z M235.649,61.682
	c0.455,0.724,0.906,1.452,1.346,2.186c0.004,0.006,0.008,0.011,0.01,0.017c-0.453-0.754-0.914-1.503-1.383-2.247
	C235.632,61.652,235.64,61.667,235.649,61.682z M235.155,58.563c-0.008-0.012-0.016-0.023-0.023-0.035
	c-0.041-0.062-0.082-0.124-0.123-0.186C235.058,58.415,235.106,58.489,235.155,58.563z M235.464,61.384
	c0.004,0.005,0.006,0.01,0.01,0.016c-0.289-0.458-0.588-0.911-0.885-1.365C234.882,60.484,235.177,60.931,235.464,61.384z
	 M233.515,56.143c-0.006-0.01-0.014-0.02-0.02-0.029c-0.01-0.014-0.02-0.028-0.029-0.042
	C233.481,56.095,233.499,56.119,233.515,56.143z M232.468,56.87c0.373,0.538,0.74,1.081,1.107,1.625
	c-0.373-0.554-0.746-1.107-1.127-1.655C232.454,56.85,232.462,56.86,232.468,56.87z M231.741,53.651
	c-0.047-0.062-0.092-0.124-0.137-0.185c-0.004-0.005-0.008-0.01-0.01-0.016C231.644,53.517,231.692,53.584,231.741,53.651z
	 M230.78,54.497c0.494,0.679,0.984,1.363,1.467,2.053c0.004,0.006,0.008,0.012,0.012,0.018c-0.492-0.703-0.99-1.399-1.494-2.091
	C230.769,54.483,230.774,54.49,230.78,54.497z M229.034,52.161c0.133,0.174,0.262,0.352,0.395,0.526
	c-0.135-0.18-0.268-0.362-0.404-0.541C229.028,52.151,229.032,52.156,229.034,52.161z M228.194,49.022
	c-0.037-0.047-0.074-0.094-0.113-0.141c-0.002-0.003-0.006-0.007-0.008-0.011C228.114,48.922,228.155,48.972,228.194,49.022z
	 M227.235,49.863c0.543,0.677,1.08,1.361,1.609,2.05c0.004,0.004,0.008,0.009,0.01,0.013c-0.535-0.698-1.078-1.39-1.629-2.075
	C227.229,49.855,227.231,49.859,227.235,49.863z M226.36,46.789c-0.002-0.002-0.004-0.005-0.006-0.008
	c-0.029-0.034-0.057-0.067-0.086-0.1c-0.002-0.004-0.006-0.008-0.01-0.012C226.294,46.709,226.327,46.749,226.36,46.789z
	 M225.378,47.6c0.285,0.34,0.564,0.686,0.846,1.029c-0.283-0.345-0.563-0.692-0.852-1.034
	C225.374,47.597,225.376,47.598,225.378,47.6z M225.296,47.502c0.002,0.002,0.004,0.005,0.006,0.008
	c-1.217-1.445-2.467-2.863-3.746-4.252C222.833,44.645,224.079,46.06,225.296,47.502z M29.393,48.915
	c-0.042,0.052-0.084,0.104-0.126,0.157c-0.001,0.001-0.002,0.002-0.003,0.003C29.307,49.021,29.35,48.968,29.393,48.915z
	 M28.659,51.91c0.528-0.687,1.063-1.368,1.604-2.043c-0.543,0.676-1.078,1.359-1.606,2.047
	C28.657,51.912,28.658,51.911,28.659,51.91z M26.932,54.208c0.504-0.687,1.015-1.368,1.531-2.044
	c0.001-0.001,0.002-0.002,0.003-0.003c-0.519,0.678-1.031,1.361-1.536,2.05C26.931,54.21,26.932,54.209,26.932,54.208z
	 M24.206,55.826c-0.001,0.002-0.003,0.004-0.004,0.006c-0.067,0.097-0.135,0.194-0.202,0.291c-0.002,0.003-0.004,0.006-0.007,0.01
	C24.064,56.031,24.134,55.928,24.206,55.826z M23.617,58.951c0.038-0.058,0.078-0.114,0.117-0.172
	c-0.039,0.059-0.08,0.117-0.119,0.175C23.616,58.953,23.616,58.952,23.617,58.951z M22.555,58.245
	c-0.001,0.002-0.002,0.004-0.003,0.005c-0.064,0.096-0.127,0.192-0.189,0.288c-0.003,0.004-0.006,0.008-0.008,0.012
	C22.421,58.449,22.488,58.347,22.555,58.245z M20.954,60.713c-0.001,0.001-0.002,0.003-0.003,0.005
	c-0.052,0.082-0.102,0.163-0.152,0.245c-0.004,0.005-0.007,0.01-0.01,0.015C20.844,60.89,20.898,60.801,20.954,60.713z M20.5,63.875
	c0.238-0.396,0.483-0.786,0.726-1.178c-0.243,0.395-0.49,0.788-0.729,1.186C20.498,63.88,20.5,63.877,20.5,63.875z M19.406,63.222
	c-0.001,0.002-0.002,0.005-0.004,0.007c-0.017,0.027-0.032,0.055-0.049,0.083C19.371,63.281,19.388,63.251,19.406,63.222z
	 M19.008,66.427c0.005-0.009,0.01-0.018,0.015-0.026c0.445-0.783,0.901-1.559,1.363-2.332c0.006-0.01,0.012-0.02,0.018-0.029
	c-0.698,1.167-1.367,2.353-2.028,3.543C18.589,67.199,18.792,66.808,19.008,66.427z M11.691,81.561
	c0.566-1.404,1.161-2.793,1.776-4.171c-0.636,1.424-1.249,2.859-1.833,4.31C11.653,81.652,11.672,81.606,11.691,81.561z
	 M10.711,84.067c0.244-0.644,0.488-1.288,0.742-1.927c0.003-0.007,0.006-0.014,0.009-0.021c-0.271,0.681-0.532,1.367-0.792,2.054
	C10.684,84.139,10.698,84.103,10.711,84.067z M9.734,86.74c0.211-0.596,0.421-1.193,0.641-1.786c0.003-0.008,0.006-0.017,0.01-0.025
	c-0.234,0.632-0.459,1.268-0.684,1.904C9.712,86.802,9.723,86.771,9.734,86.74z M9.505,83.653c-0.014,0.036-0.027,0.072-0.041,0.108
	C9.374,84,9.281,84.237,9.192,84.477c-0.003,0.008-0.007,0.017-0.01,0.025C9.288,84.218,9.398,83.937,9.505,83.653z M8.796,89.498
	c0.186-0.568,0.371-1.136,0.564-1.7c0.004-0.01,0.008-0.021,0.012-0.031c-0.207,0.603-0.406,1.208-0.604,1.815
	C8.778,89.554,8.787,89.526,8.796,89.498z M7.91,92.32c0.165-0.549,0.331-1.099,0.504-1.645c0.004-0.013,0.008-0.025,0.013-0.037
	c-0.185,0.583-0.362,1.169-0.539,1.756C7.895,92.37,7.902,92.345,7.91,92.32z M7.38,89.73c-0.056,0.173-0.113,0.346-0.168,0.519
	c-0.004,0.012-0.008,0.023-0.012,0.034C7.259,90.098,7.321,89.914,7.38,89.73z M7.083,95.188c0.147-0.537,0.297-1.073,0.451-1.608
	c0.004-0.013,0.009-0.027,0.013-0.041c-0.165,0.569-0.324,1.141-0.481,1.713C7.072,95.23,7.077,95.209,7.083,95.188z M6.321,98.092
	c0.111-0.446,0.226-0.892,0.342-1.336c-0.121,0.465-0.24,0.93-0.357,1.397C6.311,98.133,6.316,98.112,6.321,98.092z M5.994,99.431
	c-0.132,0.553-0.259,1.107-0.384,1.662c0.005-0.02,0.009-0.04,0.014-0.06c0.115-0.517,0.234-1.032,0.356-1.547
	C5.985,99.468,5.99,99.449,5.994,99.431z M5.851,94.858c-0.006,0.021-0.011,0.043-0.017,0.064c-0.111,0.405-0.222,0.81-0.329,1.216
	c-0.004,0.016-0.009,0.031-0.013,0.047C5.609,95.742,5.73,95.3,5.851,94.858z M5.322,102.417c-0.116,0.548-0.229,1.097-0.339,1.647
	c0.004-0.019,0.007-0.037,0.011-0.056c0.102-0.509,0.206-1.017,0.313-1.524C5.312,102.461,5.318,102.439,5.322,102.417z
	 M5.083,97.789c-0.006,0.021-0.011,0.043-0.016,0.065c-0.098,0.391-0.193,0.781-0.287,1.173C4.879,98.613,4.98,98.2,5.083,97.789z
	 M4.434,107.01c0.087-0.501,0.179-1.001,0.271-1.5c0.005-0.026,0.011-0.053,0.016-0.079c-0.102,0.543-0.201,1.087-0.296,1.633
	C4.428,107.046,4.431,107.028,4.434,107.01z M3.945,110.044c0.073-0.494,0.152-0.986,0.231-1.478
	c0.005-0.032,0.011-0.064,0.016-0.096c-0.087,0.541-0.174,1.082-0.255,1.625C3.94,110.078,3.942,110.061,3.945,110.044z
	 M3.183,116.188c0.047-0.475,0.102-0.948,0.154-1.421c0.005-0.05,0.012-0.1,0.017-0.15c-0.06,0.539-0.122,1.077-0.175,1.618
	C3.181,116.22,3.182,116.204,3.183,116.188z M3.177,106.795c-0.003,0.018-0.006,0.036-0.009,0.054
	c-0.031,0.179-0.06,0.359-0.089,0.539C3.112,107.191,3.143,106.993,3.177,106.795z M2.914,119.295
	c0.034-0.458,0.076-0.913,0.115-1.369c0.006-0.065,0.012-0.129,0.018-0.194c-0.047,0.536-0.096,1.07-0.136,1.607
	C2.912,119.325,2.913,119.31,2.914,119.295z M2.72,122.427c0.021-0.429,0.051-0.856,0.076-1.285
	c0.006-0.091,0.012-0.181,0.018-0.271c-0.033,0.533-0.069,1.064-0.096,1.598C2.719,122.455,2.719,122.441,2.72,122.427z
	 M1.328,125.589c-0.014,0.559-0.015,1.121-0.021,1.682c-0.006,0.493-0.019,0.984-0.019,1.479c0-1.071,0.015-2.139,0.04-3.203
	C1.328,125.561,1.328,125.575,1.328,125.589z M1.386,123.971c-0.007,0.162-0.014,0.323-0.019,0.484
	c0.014-0.415,0.031-0.828,0.047-1.241C1.406,123.466,1.395,123.719,1.386,123.971z M1.64,119.248
	c-0.037,0.507-0.065,1.017-0.097,1.526c-0.006,0.097-0.013,0.193-0.019,0.29c0.037-0.622,0.072-1.244,0.118-1.863
	C1.642,119.217,1.641,119.232,1.64,119.248z M1.703,139.047c0.018,0.224,0.04,0.446,0.06,0.669c0.002,0.023,0.004,0.046,0.006,0.069
	C1.748,139.538,1.723,139.294,1.703,139.047z M1.778,117.609c-0.006,0.069-0.013,0.137-0.019,0.206
	c0.021-0.238,0.043-0.477,0.063-0.715C1.808,117.27,1.792,117.439,1.778,117.609z M2.194,143.954
	c0.003,0.025,0.006,0.05,0.009,0.075c0.007,0.058,0.014,0.115,0.02,0.173C2.213,144.119,2.204,144.037,2.194,143.954z
	 M2.474,111.358c-0.006,0.039-0.012,0.078-0.017,0.117c0.02-0.146,0.041-0.291,0.062-0.437
	C2.504,111.146,2.489,111.252,2.474,111.358z M2.562,128.75c0-0.484,0.013-0.965,0.019-1.447
	C2.575,127.785,2.563,128.266,2.562,128.75c0.001,0.791,0.011,1.58,0.027,2.367C2.572,130.33,2.562,129.541,2.562,128.75z
	 M2.602,125.577c0.009-0.356,0.026-0.711,0.038-1.067c0.006-0.158,0.013-0.315,0.019-0.472c-0.02,0.527-0.044,1.052-0.057,1.581
	C2.602,125.605,2.602,125.591,2.602,125.577z M2.658,133.429c-0.022-0.604-0.038-1.21-0.054-1.816
	c0.016,0.625,0.032,1.249,0.056,1.871C2.659,133.465,2.658,133.446,2.658,133.429z M2.693,134.359
	c0.066,1.534,0.158,3.063,0.28,4.582c-0.001-0.012-0.003-0.023-0.003-0.035c-0.119-1.494-0.209-2.996-0.276-4.505
	C2.694,134.387,2.693,134.373,2.693,134.359z M2.911,149.096c0.003,0.013,0.005,0.025,0.007,0.038
	c0.047,0.293,0.096,0.585,0.146,0.878c0.002,0.015,0.005,0.029,0.007,0.044C3.016,149.735,2.962,149.416,2.911,149.096z
	 M3.46,143.811c-0.163-1.372-0.304-2.75-0.423-4.135c-0.002-0.024-0.004-0.049-0.006-0.072c0.122,1.433,0.267,2.858,0.437,4.277
	C3.465,143.857,3.463,143.834,3.46,143.811z M3.455,105.267c0.08-0.431,0.163-0.86,0.247-1.29c-0.079,0.403-0.156,0.807-0.231,1.211
	C3.464,105.214,3.459,105.24,3.455,105.267z M3.528,113.103c0.06-0.485,0.126-0.969,0.192-1.452
	c0.005-0.039,0.011-0.078,0.016-0.117c-0.073,0.539-0.147,1.078-0.214,1.619C3.524,113.136,3.525,113.119,3.528,113.103z
	 M3.897,154.529c0.002,0.008,0.004,0.016,0.005,0.022c0.008,0.04,0.018,0.079,0.026,0.119c0.005,0.027,0.012,0.054,0.017,0.08
	C3.93,154.677,3.913,154.604,3.897,154.529z M4.169,148.896c-0.235-1.468-0.449-2.942-0.634-4.426
	c-0.001-0.01-0.002-0.02-0.003-0.029c0.187,1.506,0.404,3.004,0.644,4.493C4.174,148.922,4.172,148.909,4.169,148.896z
	 M4.916,159.025c0.003,0.014,0.006,0.026,0.01,0.04c0.065,0.269,0.129,0.537,0.196,0.805c0.002,0.009,0.004,0.018,0.006,0.026
	C5.055,159.606,4.986,159.316,4.916,159.025z M5.146,154.275c-0.302-1.469-0.569-2.95-0.82-4.438
	c-0.002-0.015-0.005-0.029-0.007-0.045c0.253,1.511,0.526,3.015,0.833,4.507C5.15,154.292,5.148,154.283,5.146,154.275z
	 M6.156,158.731c-0.344-1.409-0.67-2.826-0.966-4.254c-0.006-0.029-0.013-0.058-0.019-0.086c0.304,1.47,0.64,2.929,0.994,4.38
	C6.162,158.758,6.159,158.745,6.156,158.731z M6.279,164.169c0.002,0.007,0.005,0.015,0.007,0.021
	c0.055,0.191,0.113,0.382,0.17,0.572C6.396,164.565,6.335,164.368,6.279,164.169z M7.505,163.821
	c-0.405-1.403-0.785-2.818-1.144-4.242c-0.002-0.009-0.004-0.018-0.006-0.026c0.361,1.439,0.745,2.869,1.155,4.288
	C7.509,163.835,7.507,163.828,7.505,163.821z M7.747,168.897c0.005,0.014,0.009,0.027,0.014,0.042
	c0.047,0.142,0.091,0.284,0.139,0.426c0.001,0.005,0.003,0.011,0.005,0.016C7.849,169.22,7.8,169.058,7.747,168.897z M8.963,168.517
	c-0.435-1.311-0.847-2.632-1.239-3.961c-0.004-0.012-0.008-0.023-0.011-0.035c0.399,1.355,0.819,2.702,1.264,4.038
	C8.972,168.545,8.968,168.531,8.963,168.517z M9.394,173.556c0.003,0.006,0.005,0.012,0.008,0.019
	c0.104,0.276,0.209,0.553,0.314,0.828c0.003,0.007,0.005,0.013,0.007,0.019C9.613,174.133,9.503,173.845,9.394,173.556z
	 M10.591,173.117c-0.516-1.373-1.014-2.756-1.482-4.15c-0.001-0.006-0.003-0.011-0.005-0.016c0.473,1.407,0.975,2.801,1.494,4.185
	C10.596,173.129,10.593,173.123,10.591,173.117z M11.38,178.538c0.001,0.003,0.003,0.006,0.004,0.009
	c0.011,0.025,0.021,0.05,0.033,0.075C11.405,178.594,11.392,178.566,11.38,178.538z M12.557,178.049
	c-0.574-1.353-1.119-2.72-1.647-4.095c-0.003-0.007-0.005-0.013-0.007-0.02c0.531,1.386,1.08,2.762,1.658,4.123
	C12.56,178.055,12.559,178.052,12.557,178.049z M13.251,182.714c0.002,0.005,0.004,0.009,0.007,0.014
	c0.109,0.235,0.218,0.471,0.329,0.705c0.001,0.003,0.002,0.006,0.004,0.009C13.476,183.199,13.365,182.956,13.251,182.714z
	 M14.414,182.19c-0.595-1.271-1.172-2.55-1.726-3.843c-0.003-0.009-0.007-0.018-0.011-0.026c0.559,1.307,1.143,2.6,1.743,3.883
	C14.418,182.2,14.417,182.195,14.414,182.19z M15.603,187.481c0.1,0.189,0.201,0.379,0.301,0.568
	c0.001,0.003,0.003,0.006,0.004,0.009C15.807,187.866,15.705,187.674,15.603,187.481z M16.67,186.772
	c-0.666-1.283-1.31-2.579-1.933-3.888c-0.001-0.003-0.002-0.006-0.004-0.009c0.625,1.313,1.271,2.614,1.939,3.902
	C16.672,186.776,16.671,186.774,16.67,186.772z M128.75,253.678c-68.994,0-124.927-55.934-124.927-124.928
	C3.824,59.755,59.756,3.823,128.75,3.823c68.995,0,124.926,55.932,124.926,124.927C253.677,197.744,197.745,253.678,128.75,253.678z
	 M234.022,200.624c0.09-0.13,0.182-0.258,0.27-0.389c0.002-0.001,0.002-0.002,0.004-0.003
	C234.206,200.363,234.114,200.493,234.022,200.624z M235.587,195.92c-0.307,0.486-0.631,0.962-0.943,1.444
	c0.314-0.486,0.641-0.965,0.949-1.455C235.591,195.913,235.589,195.916,235.587,195.92z M236.073,195.14
	c-0.002,0.004-0.006,0.008-0.008,0.013c0.203-0.329,0.395-0.666,0.596-0.996C236.464,194.482,236.274,194.815,236.073,195.14z
	 M239.405,192.055c0.002-0.003,0.004-0.006,0.004-0.009c0.006-0.008,0.01-0.017,0.014-0.024
	C239.417,192.032,239.411,192.044,239.405,192.055z M240.454,187.485c-0.641,1.217-1.299,2.425-1.979,3.618
	c-0.006,0.01-0.01,0.021-0.016,0.03c0.689-1.211,1.355-2.436,2.006-3.671C240.462,187.471,240.458,187.478,240.454,187.485z
	 M241.575,188.095c0.004-0.008,0.008-0.015,0.012-0.022c0.014-0.027,0.029-0.055,0.043-0.082
	C241.612,188.024,241.593,188.06,241.575,188.095z M242.755,182.903c-0.617,1.295-1.254,2.577-1.912,3.848
	c-0.004,0.005-0.006,0.01-0.008,0.014c0.664-1.279,1.305-2.571,1.926-3.876C242.759,182.894,242.757,182.898,242.755,182.903z
	 M243.901,183.46c0.002-0.005,0.004-0.01,0.006-0.015c0.117-0.245,0.23-0.493,0.346-0.74c0.004-0.008,0.008-0.016,0.012-0.023
	C244.144,182.941,244.024,183.201,243.901,183.46z M245.956,178.916c0.004-0.012,0.01-0.024,0.016-0.037
	c0.023-0.053,0.045-0.105,0.068-0.158C246.013,178.785,245.983,178.851,245.956,178.916z M246.585,173.974
	c-0.412,1.07-0.846,2.13-1.283,3.187c0.439-1.063,0.875-2.127,1.289-3.203C246.589,173.962,246.587,173.968,246.585,173.974z
	 M246.917,173.099c-0.002,0.005-0.004,0.011-0.006,0.016c0.412-1.097,0.801-2.205,1.184-3.315
	C247.714,170.904,247.327,172.007,246.917,173.099z M249.595,169.392c0-0.004,0.002-0.007,0.002-0.011
	c0.051-0.148,0.098-0.299,0.146-0.448C249.692,169.086,249.646,169.239,249.595,169.392z M249.771,164.58
	c-0.387,1.305-0.789,2.6-1.217,3.887c0.43-1.295,0.836-2.599,1.223-3.911C249.774,164.563,249.772,164.571,249.771,164.58z
	 M249.999,163.809c0,0.004-0.002,0.009-0.004,0.013c0.252-0.869,0.477-1.75,0.709-2.627
	C250.474,162.067,250.249,162.943,249.999,163.809z M252.308,154.491c-0.293,1.419-0.617,2.826-0.959,4.227
	c0,0.005-0.002,0.01-0.004,0.015c0.346-1.412,0.672-2.831,0.967-4.262C252.312,154.478,252.31,154.484,252.308,154.491z
	 M252.507,159.353c0.025-0.109,0.053-0.218,0.078-0.326c0.002-0.005,0.004-0.01,0.004-0.015
	C252.562,159.125,252.534,159.238,252.507,159.353z M252.356,154.271c-0.002,0.002-0.002,0.004-0.002,0.006
	c0.258-1.255,0.482-2.521,0.701-3.791C252.837,151.754,252.612,153.019,252.356,154.271z M253.552,154.771
	c0.002-0.009,0.004-0.018,0.006-0.027c0.014-0.07,0.031-0.142,0.045-0.213c0.002-0.002,0.002-0.005,0.002-0.007
	C253.589,154.607,253.569,154.688,253.552,154.771z M253.333,148.89c-0.002,0.002-0.002,0.005-0.002,0.008
	c0.156-0.979,0.287-1.966,0.422-2.951C253.618,146.929,253.489,147.914,253.333,148.89z M253.757,103.756
	c0.068,0.341,0.133,0.684,0.197,1.026c-0.064-0.339-0.129-0.679-0.195-1.018C253.759,103.762,253.757,103.759,253.757,103.756z
	 M253.974,113.103c-0.061-0.485-0.127-0.969-0.193-1.452c0.002,0.004,0.002,0.009,0.002,0.013c0.066,0.478,0.131,0.956,0.191,1.435
	C253.974,113.1,253.974,113.101,253.974,113.103z M254.317,116.188c-0.047-0.475-0.102-0.948-0.154-1.421
	c0.002,0.003,0.002,0.006,0.002,0.01c0.051,0.469,0.105,0.938,0.152,1.408C254.317,116.186,254.317,116.188,254.317,116.188z
	 M254.323,106.791c0.09,0.522,0.176,1.047,0.26,1.572c0-0.004-0.002-0.009-0.002-0.014c-0.084-0.518-0.168-1.035-0.258-1.55
	C254.323,106.796,254.323,106.793,254.323,106.791z M254.431,150.063c0-0.004,0-0.007,0-0.011c0.039-0.228,0.076-0.456,0.113-0.685
	C254.507,149.599,254.468,149.83,254.431,150.063z M254.587,119.295c-0.025-0.344-0.057-0.686-0.086-1.029
	c0.029,0.342,0.061,0.683,0.086,1.025C254.587,119.293,254.587,119.294,254.587,119.295z M254.78,122.427
	c-0.014-0.292-0.033-0.582-0.051-0.873c0.018,0.29,0.037,0.579,0.051,0.87C254.78,122.426,254.78,122.427,254.78,122.427z
	 M255.042,111.467c-0.072-0.536-0.145-1.072-0.225-1.606c0-0.002,0-0.005,0-0.007c0.08,0.541,0.154,1.084,0.227,1.627
	C255.044,111.477,255.044,111.472,255.042,111.467z M255.282,144.175c0.008-0.072,0.016-0.145,0.023-0.217
	c0.002-0.002,0.002-0.004,0.002-0.006C255.298,144.026,255.29,144.101,255.282,144.175z M255.431,114.625
	c-0.023-0.205-0.047-0.41-0.07-0.614c0.023,0.207,0.047,0.413,0.07,0.62C255.431,114.629,255.431,114.627,255.431,114.625z
	 M255.585,116.06C255.585,116.06,255.585,116.06,255.585,116.06c0.012,0.115,0.027,0.229,0.037,0.344
	C255.612,116.289,255.597,116.175,255.585,116.06z M256.079,134.457c0.016-0.326,0.025-0.653,0.037-0.98
	c0.002-0.001,0.002-0.002,0.002-0.003c-0.014,0.329-0.023,0.658-0.039,0.986C256.079,134.459,256.079,134.458,256.079,134.457z"/>
</svg>
